<?xml version="1.0" encoding="utf-8"?>
<!-- Generator: Adobe Illustrator 24.0.0, SVG Export Plug-In . SVG Version: 6.00 Build 0)  -->
<svg version="1.1" id="Calque_1" xmlns="http://www.w3.org/2000/svg" xmlns:xlink="http://www.w3.org/1999/xlink" x="0px" y="0px"
	 viewBox="0 0 3710 3710" style="enable-background:new 0 0 3710 3710;" xml:space="preserve">
<style type="text/css">
	.st0{fill:#F4F7FA;}
	.st1{fill:#BFC6D1;}
	.st2{fill:#D8DEE8;}
	.st3{fill:url(#SVGID_1_);}
	.st4{fill:url(#SVGID_2_);}
	.st5{fill:url(#SVGID_3_);}
	.st6{fill:url(#SVGID_4_);}
	.st7{fill:url(#SVGID_5_);}
	.st8{opacity:0.8;fill:#FFFFFF;enable-background:new    ;}
	.st9{fill:url(#SVGID_6_);}
	.st10{fill:#26264F;}
	.st11{fill:url(#SVGID_7_);}
	.st12{fill:#FFFFFF;}
	.st13{fill:url(#SVGID_8_);}
	.st14{opacity:0.48;fill:#FFFFFF;enable-background:new    ;}
	.st15{fill:url(#SVGID_9_);}
	.st16{fill:url(#SVGID_10_);}
	.st17{clip-path:url(#SVGID_12_);}
	.st18{fill:url(#SVGID_13_);}
	.st19{opacity:0.3;}
	.st20{fill:url(#SVGID_14_);}
	.st21{fill:url(#SVGID_15_);}
	.st22{fill:url(#SVGID_16_);}
	.st23{fill:url(#SVGID_17_);}
	.st24{fill:url(#SVGID_18_);}
	.st25{fill:url(#SVGID_19_);}
	.st26{fill:url(#SVGID_20_);}
	.st27{fill:url(#SVGID_21_);}
	.st28{fill:url(#SVGID_22_);}
	.st29{fill:url(#SVGID_23_);}
	.st30{fill:url(#SVGID_24_);}
	.st31{fill:url(#SVGID_25_);}
	.st32{opacity:0.3;fill:url(#SVGID_26_);enable-background:new    ;}
	.st33{fill:url(#SVGID_27_);}
	.st34{fill:url(#SVGID_28_);}
	.st35{fill:url(#SVGID_29_);}
	.st36{fill:url(#SVGID_30_);}
	.st37{fill:url(#SVGID_31_);}
	.st38{fill:url(#SVGID_32_);}
	.st39{fill:url(#SVGID_33_);}
	.st40{fill:url(#SVGID_34_);}
	.st41{fill:url(#SVGID_35_);}
	.st42{fill:url(#SVGID_36_);}
	.st43{fill:url(#SVGID_37_);}
	.st44{fill:#CFD8DC;}
</style>
<g id="Illustration">
	<g>
		<path class="st0" d="M1129.4,528c-97.9,140.1,16.9,367.2-128.3,472.5c-141.3,102.6-315-65.5-448.2,22.7
			c-197.6,131-161.5,730.2,127.4,1102.5c86.9,112,159.5,155.5,191.6,282.2c69,271.9-173.6,433.6-127.4,568.1
			c104,302.8,1702.9,556.9,2344.4-353.1c299.6-425,344.5-1038.7,76.8-1504.8C2682,275.8,1349,213.7,1129.4,528z"/>
		<g>
			<path class="st1" d="M1301.6,946.8c37.6,3.2,70.9-27.3,74.3-68s-24.3-76.3-61.9-79.5c-1.9-0.2-3.9-0.2-5.8-0.2
				c-1.8-21-5.1-41.7-9.8-61.7c1.8-0.7,3.6-1.5,5.3-2.4c34.3-17.6,49.3-61.8,33.4-98.7c-15.8-36.9-56.5-52.5-90.8-34.8
				c-1.8,0.9-3.5,2-5.2,3c-11.2-16.9-23.6-32.8-37.1-47.6c1.2-1.6,2.5-3.3,3.6-5c21.8-33.7,14.4-79.7-16.4-102.9
				c-30.9-23.1-73.5-14.5-95.3,19.2c-1.1,1.7-2.1,3.5-3.1,5.3c-17.4-8.4-35.6-15.4-54.5-20.8c0.3-2.1,0.6-4.1,0.8-6.2
				c3.4-40.7,10.9-86.7-26.8-89.3c-87.1-6-106,37.1-109.4,77.8c-0.2,2.1-0.2,4.2-0.2,6.3c-19.5,2.2-38.6,6-57.2,11.4
				c-0.7-1.9-1.3-3.8-2.1-5.7c-15.8-36.9-13-61.5-49-47.6c-78.5,30.1-91.1,74.6-75.2,111.5c0.8,1.9,1.8,3.8,2.7,5.6
				c-15.8,12.3-30.7,26-44.5,40.8c-1.5-1.3-3-2.6-4.6-3.8c-30.9-23.1-73.5-14.5-95.3,19.2s-14.4,79.7,16.4,102.9
				c1.6,1.2,3.2,2.2,4.8,3.3c-8,19-14.7,38.7-20,59.2c-1.9-0.3-3.8-0.6-5.7-0.8c-37.6-3.2-70.9,27.3-74.3,68s24.3,76.3,61.9,79.5
				c1.9,0.2,3.9,0.2,5.8,0.2c1.8,21,5.1,41.7,9.8,61.7c-1.8,0.7-3.6,1.5-5.3,2.4c-34.3,17.6-49.3,61.8-33.4,98.7
				c15.8,36.9,56.5,52.5,90.8,34.8c1.8-0.9,3.5-2,5.2-3c11.2,16.9,23.6,32.8,37.1,47.6c-1.2,1.6-2.5,3.3-3.6,5
				c-21.8,33.7-14.4,79.7,16.4,102.9c30.9,23.1,97.7,12.5,119.5-21.2c1.1-1.7-22-1.5-21.1-3.3c17.4,8.4,35.6,15.4,54.5,20.8
				c-0.3,2.1-0.6,4.1-0.8,6.2c-3.4,40.7,24.3,76.3,61.9,79.5c37.6,3.2,70.9-27.3,74.3-68c0.2-2.1,0.2-4.2,0.2-6.3
				c19.5-2.2,38.6-6,57.2-11.4c0.7,1.9,1.3,3.8,2.1,5.7c15.8,36.9,56.5,52.5,90.8,34.8c34.3-17.6,49.3-61.8,33.4-98.7
				c-0.8-1.9-1.8-3.8-2.7-5.6c15.8-12.3,30.7-26,44.5-40.8c1.5,1.3,3,2.6,4.6,3.8c30.9,23.1,73.5,14.5,95.3-19.2
				s14.4-79.7-16.4-102.9c-1.6-1.2-3.2-2.2-4.8-3.2c8-19,14.7-38.7,20-59.2C1297.8,946.3,1299.7,946.6,1301.6,946.8z M914.8,1109.6
				C778.2,1098.1,677.6,968.9,690,821c12.5-147.9,133.3-258.5,269.9-247s237.2,140.7,224.8,288.6
				C1172.3,1010.6,1051.4,1121.2,914.8,1109.6z"/>
			<path class="st1" d="M1303.8,735c34.3-17.6,49.3-61.8,33.4-98.7c-15.8-36.9-56.5-52.5-90.8-34.8c-1.8,0.9-3.5,2-5.2,3
				c-11.2-16.9-23.6-32.8-37.1-47.6c1.2-1.6,2.5-3.3,3.6-5c21.8-33.7,38.5-100.5,5.4-120.4c-62.8-37.6-95.4,3-117.2,36.7
				c-1.1,1.7-2.1,3.5-3.1,5.3c-17.4-8.4-35.6-15.4-54.5-20.8c0.3-2.1,0.6-4.1,0.8-6.2c1.9-22.2-5.5-42.8-18.7-57.5
				c-8.4,63.7-16.3,127.5-23.6,191.3c117.2,29.5,199,148.3,187.7,282.5c-9.6,113.7-83.2,205.2-178.8,236.3
				c0.2,12.4,0.5,24.9,0.4,37.3c-0.3,33.8-2.5,67.6-4.7,101.4c9.3-1.9,18.4-4.1,27.5-6.7c0.7,1.9,1.3,3.8,2.1,5.7
				c15.8,36.9,51.2,59.3,114.3,29.7c34.9-16.4,25.7-56.6,9.9-93.5c-0.8-1.9-1.8-3.8-2.7-5.6c15.8-12.3,30.7-26,44.5-40.8
				c1.5,1.3,3,2.6,4.6,3.8c30.9,23.1,100.1,10.1,121.9-23.6s-12.1-75.3-43-98.5c-1.6-1.2-3.2-2.2-4.8-3.3c8-19,14.7-38.7,20-59.2
				c1.9,0.3,3.8,0.6,5.7,0.8c37.6,3.2,70.9-27.3,74.3-68s-24.3-76.3-61.9-79.5c-1.9-0.2-3.9-0.2-5.8-0.2c-1.8-21-5.1-41.7-9.8-61.7
				C1300.3,736.7,1302,735.9,1303.8,735z"/>
			<path class="st2" d="M1336.7,937c37.6,3.2,70.9-27.3,74.3-68s-24.3-76.3-61.9-79.5c-1.9-0.2-3.9-0.2-5.8-0.2
				c-1.8-21-5.1-41.7-9.8-61.7c1.8-0.7,3.6-1.5,5.3-2.4c34.3-17.6,49.3-61.8,33.4-98.7c-15.8-36.9-56.5-52.5-90.8-34.8
				c-1.8,0.9-3.5,2-5.2,3c-11.2-16.9-23.6-32.8-37.1-47.6c1.2-1.6,2.5-3.3,3.6-5c21.8-33.7,14.4-79.7-16.4-102.9
				c-30.9-23.1-73.5-14.5-95.3,19.2c-1.1,1.7-2.1,3.5-3.1,5.3c-17.4-8.4-35.6-15.4-54.5-20.8c0.3-2.1,0.6-4.1,0.8-6.2
				c3.4-40.7-24.3-76.3-61.9-79.5c-37.6-3.2-70.9,27.3-74.3,68c-0.2,2.1-0.2,4.2-0.2,6.3c-19.5,2.2-38.6,6-57.2,11.4
				c-0.7-1.9-1.3-3.8-2.1-5.7c-15.8-36.9-56.5-52.5-90.8-34.8c-34.3,17.6-49.3,61.8-33.4,98.7c0.8,1.9,1.8,3.8,2.7,5.6
				c-15.8,12.3-30.7,26-44.5,40.8c-1.5-1.3-3-2.6-4.6-3.8c-30.9-23.1-73.5-14.5-95.3,19.2s-14.4,79.7,16.4,102.9
				c1.6,1.2,3.2,2.2,4.9,3.3c-8,19-14.7,38.7-20,59.2c-1.9-0.3-3.8-0.6-5.7-0.8c-37.6-3.2-70.9,27.3-74.3,68
				c-3.4,40.7,24.3,76.3,61.9,79.5c1.9,0.2,3.9,0.2,5.8,0.2c1.8,21,5.1,41.7,9.8,61.7c-1.8,0.7-3.6,1.5-5.3,2.4
				c-34.3,17.6-49.3,61.8-33.4,98.7c15.8,36.9,56.5,52.5,90.8,34.8c1.8-0.9,3.5-2,5.2-3c11.2,16.9,23.6,32.8,37.1,47.6
				c-1.2,1.6-2.5,3.3-3.6,5c-21.8,33.7-14.4,79.7,16.4,102.9c30.9,23.1,73.5,14.5,95.3-19.2c1.1-1.7,2.1-3.5,3.1-5.3
				c17.4,8.4,35.6,15.4,54.5,20.8c-0.3,2.1-0.6,4.1-0.8,6.2c-3.4,40.7,24.3,76.3,61.9,79.5c37.6,3.2,70.9-27.3,74.3-68
				c0.2-2.1,0.2-4.2,0.2-6.3c19.5-2.2,38.6-6,57.2-11.4c0.7,1.9,1.3,3.8,2.1,5.7c15.8,36.9,56.5,52.5,90.8,34.8
				c34.3-17.6,49.3-61.8,33.4-98.7c-0.8-1.9-1.8-3.8-2.7-5.6c15.8-12.3,30.7-26,44.5-40.8c1.5,1.3,3,2.6,4.6,3.8
				c30.9,23.1,73.5,14.5,95.3-19.2s14.4-79.7-16.4-102.9c-1.6-1.2-3.2-2.2-4.9-3.2c8-19,14.7-38.7,20-59.2
				C1332.9,936.5,1334.8,936.8,1336.7,937z M949.9,1099.8c-136.6-11.5-237.2-140.7-224.8-288.6c12.5-147.9,133.3-258.5,269.9-247
				s237.2,140.7,224.8,288.6C1207.4,1000.8,1086.5,1111.3,949.9,1099.8z"/>
		</g>
		<g>
			
				<linearGradient id="SVGID_1_" gradientUnits="userSpaceOnUse" x1="3390.7424" y1="3381.7876" x2="2900.7095" y2="2910.7847" gradientTransform="matrix(1 0 0 -1 0 3709.2756)">
				<stop  offset="0" style="stop-color:#FBC02D"/>
				<stop  offset="0.9964" style="stop-color:#FF6F00"/>
			</linearGradient>
			<path class="st3" d="M2413,2529.9c-43.2,1.3-85.4-9.6-121.9-31.5c-111.3-66.7-275.7-176.9-423.6-321.1
				c-187.7-183-295.5-369-319.1-551.6l-0.4-2.9l-4.6-779.3c0-154,100.5-279,289.1-361.2c155.8-67.9,362.4-101.5,580.5-95.2
				c215.7,6.2,415.2,50.7,562.9,124.9c175.6,88.1,267.7,212,267.7,358.8l-4.2,744.6l-0.3,2.7c-21.6,174.9-120.8,355.7-296.2,538.5
				c-140.7,146.6-299.6,262.8-408.8,334.8C2498,2515.4,2456.1,2528.6,2413,2529.9z"/>
			
				<linearGradient id="SVGID_2_" gradientUnits="userSpaceOnUse" x1="1934.3754" y1="3274.4624" x2="3600.1155" y2="550.0351" gradientTransform="matrix(1 0 0 -1 0 3709.2756)">
				<stop  offset="0" style="stop-color:#F9A825"/>
				<stop  offset="0.9964" style="stop-color:#E65100"/>
			</linearGradient>
			<path class="st4" d="M2455.8,2529.9c-42.7,1.3-84.3-9.6-120.3-31.5c-109.8-66.7-272-176.9-418-321.1
				c-185.2-183-291.6-369-314.9-551.6l-0.4-2.9l-4.5-779.3c0-154,99.1-279,285.2-361.2c153.8-67.9,357.6-101.5,572.9-95.2
				c212.8,6.2,409.7,50.7,555.5,124.9c173.3,88.1,264.2,212,264.2,358.8l-4.1,744.6l-0.3,2.7c-21.3,174.9-119.2,355.7-292.2,538.5
				c-138.8,146.6-295.7,262.8-403.4,334.8C2539.7,2515.4,2498.4,2528.6,2455.8,2529.9z"/>
			
				<linearGradient id="SVGID_3_" gradientUnits="userSpaceOnUse" x1="2817.5405" y1="1723.2196" x2="1464.7178" y2="4443.4673" gradientTransform="matrix(1 0 0 -1 0 3709.2756)">
				<stop  offset="0" style="stop-color:#F9A825"/>
				<stop  offset="0.9964" style="stop-color:#E65100"/>
			</linearGradient>
			<path class="st5" d="M1649.1,844.1l4.5,775.4c51,395.6,516,715.9,718.5,837.6c58,34.9,132.2,32.8,189.8-5.1
				c198.3-130.5,637.7-458.9,684.7-839.3l4.2-742.6C3250.8,319.2,1649.1,268.8,1649.1,844.1z"/>
			
				<linearGradient id="SVGID_4_" gradientUnits="userSpaceOnUse" x1="1802.6" y1="2250.9863" x2="3108.7998" y2="2250.9863" gradientTransform="matrix(1 0 0 -1 0 3709.2756)">
				<stop  offset="0" style="stop-color:#311944"/>
				<stop  offset="1" style="stop-color:#893976"/>
			</linearGradient>
			<path class="st6" d="M2467.3,2337.6c-3.7,0.1-9.3-0.5-15-4c-83.4-50.5-245-156.2-385.6-294.4
				c-151.9-149.2-239.5-294.2-259.6-430.5l-4.5-762.5c0.2-73.2,58.1-135.8,171.6-185.9c126.7-55.9,306.7-85.3,493-80.9
				c184.4,4.4,359.1,41.5,480.2,101.6c107.1,53.1,161.2,115.8,161.4,186.4l-4.2,736.1c-18.7,131.8-101,273.9-245.3,423.3
				c-135.7,140.5-294.3,251.8-377.1,306C2476.6,2336.6,2471,2337.5,2467.3,2337.6z"/>
			<path class="st0" d="M2448.3,2285.4c-84.2-51.9-233.9-152-364.6-280.6c-142.7-140.5-225.3-275.3-244.7-400l-4.4-758.1
				c0.1-52.3,48.2-100.3,142.6-142.1c120.1-53.2,292.1-81.2,471.2-77.2c177.4,4,344.6,39,459.5,95.9
				c89.3,44.2,134.4,92.4,134.6,143.4l-4.1,733.4c-18.2,121-96.1,253.4-232.4,394.1C2679.3,2125,2532.1,2230.1,2448.3,2285.4z"/>
			<g>
				
					<linearGradient id="SVGID_5_" gradientUnits="userSpaceOnUse" x1="2871.9055" y1="2924.8606" x2="2334.6787" y2="1931.8062" gradientTransform="matrix(1 0 0 -1 0 3709.2756)">
					<stop  offset="3.597120e-03" style="stop-color:#81C784"/>
					<stop  offset="1" style="stop-color:#2E7D32"/>
				</linearGradient>
				<path class="st7" d="M2749.6,1292.9l-567,5c-43.6,0.4-79.1,34.4-79.1,75.9v363.3c0,41.3,35.4,73.2,78.8,71.5l565-23.1
					c40.2-1.6,72.8-34.9,73-74.3l1.8-347C2822.2,1324.4,2789.9,1292.5,2749.6,1292.9z"/>
				<path class="st8" d="M2543.6,1501.2c0.1-40.1-34.3-71.8-76.4-69.2c-37.2,2.4-68.1,32.4-70.2,68.5c-1.6,28,13.5,52.2,36.6,64.5
					c9.8,5.2,14.6,16.2,12.7,27l-16.4,91.8c-2.1,11.7,7.2,22,19.4,21.5l41.5-1.5c12.1-0.4,21.4-11.3,19.3-22.8l-15.9-90.9
					c-1.9-10.9,3.7-21.6,13.5-27.5C2529.2,1549.9,2543.6,1527,2543.6,1501.2z"/>
				
					<linearGradient id="SVGID_6_" gradientUnits="userSpaceOnUse" x1="2716.5164" y1="3008.9233" x2="2179.2898" y2="2015.8695" gradientTransform="matrix(1 0 0 -1 0 3709.2756)">
					<stop  offset="0" style="stop-color:#66BB6A"/>
					<stop  offset="1" style="stop-color:#2E7D32"/>
				</linearGradient>
				<path class="st9" d="M2741.6,1256.8c-17,0.1-30.8-13.4-30.7-30.2l0.3-79.1c0.3-79.5-65.4-144.9-147.3-145.7l-185.1-1.8
					c-84.8-0.8-154.4,65.2-154.5,147.2l-0.1,81.6c0,17.3-14.8,31.5-33,31.6c-18.3,0.1-33.1-13.9-33.1-31.3v-82
					c0-117.2,99.8-211.3,220.8-209.6l185.2,2.6c116.3,1.6,209.2,94.7,208.7,207.4l-0.4,78.8
					C2772.4,1243.1,2758.6,1256.7,2741.6,1256.8z"/>
			</g>
		</g>
		<g>
			<path class="st10" d="M3325.6,3013.5l-2815.5-24v71c0,19.3,12.3,35.7,28.9,38.6l796.1,139.8c9.4,1.7,19,2.1,28.6,1.3L3295,3080.8
				c17.2-1.4,30.6-17.9,30.6-37.7V3013.5z"/>
			<g>
				<path class="st10" d="M2303.8,2899.7L539.2,3029.6c-31.6,2.3-57.3-22.4-57.3-55.2V1660.3c0-32.8,25.7-59.4,57.3-59.4h1764.7
					c26,0,47,24,47,53.7v1187.9C2350.9,2872.2,2329.8,2897.8,2303.8,2899.7z"/>
				
					<linearGradient id="SVGID_7_" gradientUnits="userSpaceOnUse" x1="510" y1="1393.9513" x2="2379" y2="1393.9513" gradientTransform="matrix(1 0 0 -1 0 3709.2756)">
					<stop  offset="0" style="stop-color:#444B8C"/>
					<stop  offset="0.9964" style="stop-color:#26264F"/>
				</linearGradient>
				<path class="st11" d="M2332,2899.7L567.3,3029.6c-31.6,2.3-57.3-22.4-57.3-55.2V1660.3c0-32.8,25.7-59.4,57.3-59.4H2332
					c26,0,47,24,47,53.7v1187.9C2379,2872.2,2358,2897.8,2332,2899.7z"/>
				<path class="st12" d="M2277,2815.9L633.4,2928.8c-25.7,1.8-46.6-18.5-46.6-45.3V1733c0-26.8,20.9-48.6,46.6-48.7l1643.6-7.1
					c21.5-0.1,38.8,19.6,38.8,44v1047.9C2315.8,2793.5,2298.4,2814.5,2277,2815.9z"/>
				<path class="st12" d="M1512,1636.9c0,12.2-9.1,22.1-20.3,22.2c-11.2,0-20.3-9.9-20.3-22.1s9.1-22.2,20.3-22.2
					S1512,1624.7,1512,1636.9z"/>
			</g>
			
				<linearGradient id="SVGID_8_" gradientUnits="userSpaceOnUse" x1="510.1" y1="675.3356" x2="3325.7" y2="675.3356" gradientTransform="matrix(1 0 0 -1 0 3709.2756)">
				<stop  offset="0" style="stop-color:#444B8C"/>
				<stop  offset="0.9964" style="stop-color:#26264F"/>
			</linearGradient>
			<path class="st13" d="M2402.3,2892.5L510.1,3029.2l825.1,144.9c9.4,1.7,19,2.1,28.6,1.3l1961.9-162l-893.2-120.1
				C2422.4,2892.1,2412.3,2891.7,2402.3,2892.5z"/>
			<polygon class="st10" points="786.2,3030.4 2361.5,2914.9 2849.1,2979.9 1287.3,3103.4 			"/>
			<g>
				<path class="st2" d="M1296.6,2881.3l-670.5,45.1c-19.7,1.3-36.4-14.3-36.4-34V1718.1c0-18.8,15.2-34,33.9-34.1l672.9-2.7
					L1296.6,2881.3L1296.6,2881.3z"/>
				<polygon class="st2" points="2162.4,2240.9 1456,2265.8 1456,2194.3 2162.4,2172.2 				"/>
				<polygon class="st2" points="2162.4,2353.6 1456,2382.8 1456,2311.4 2162.4,2284.8 				"/>
				<polygon class="st12" points="1227.4,2253.8 821.8,2267.6 821.8,2214.2 1227.4,2201.5 				"/>
				<polygon class="st12" points="1227.4,2339.4 821.8,2355.1 821.8,2301.7 1227.4,2287.1 				"/>
				<polygon class="st12" points="1227.4,2425.1 821.8,2442.5 821.8,2389.1 1227.4,2372.8 				"/>
				<polygon class="st12" points="1227.4,2510.7 821.8,2530 821.8,2476.6 1227.4,2458.4 				"/>
				<polygon class="st2" points="1768.2,2485 1456,2499.8 1456,2428.4 1768.2,2414.7 				"/>
				<g>
					<path class="st2" d="M1717.9,1925.2v107.3c0,31,26.1,55.5,58.2,54.7l79.6-2.1c31.7-0.8,57.3-26.4,57.3-57.1v-106.2
						L1717.9,1925.2z M1791.2,2036.2l14.8-44.8c-6.3-3.3-10.6-9.7-10.6-17.2c0-11,9.2-20.1,20.6-20.3c11.4-0.2,20.6,8.5,20.6,19.5
						c0,7.5-4.3,14.1-10.6,17.6l14.7,44.1L1791.2,2036.2z"/>
					<path class="st2" d="M1890.4,1912.6c-8.4,0.1-15.3-6.4-15.3-14.6c0-31.5-26.5-56.9-59.1-56.4c-32.8,0.4-59.5,26.6-59.5,58.3
						c0,8.3-6.9,15.1-15.5,15.2s-15.5-6.4-15.5-14.7c0-48.3,40.7-88.1,90.6-88.6c49.6-0.6,89.7,37.9,89.7,85.8
						C1905.7,1905.7,1898.8,1912.4,1890.4,1912.6z"/>
				</g>
			</g>
			<path class="st14" d="M567.3,3029.6L2323,2900.3l8.9-0.7c11.9-0.9,22.8-6.8,31.1-15.7c-126.3-6.9-204.8-51.8-255.4-98.1
				c-101.7-93-84-184.8-193.7-246c-136.7-76.3-244.2,20.4-348-75c-62.9-57.8-32-101-109.4-187.4c-85.7-95.7-141.5-63.5-227.7-149.7
				c-108.9-108.9-54.5-193.7-148.3-271.9c-113.8-94.9-236.6-7.1-345-98.1c-46.7-39.2-72.4-96.3-85.8-157h-82.4
				c-31.6,0-57.3,26.6-57.3,59.4v1314.1C510.1,3007.2,535.7,3031.9,567.3,3029.6z"/>
		</g>
		<g>
			
				<linearGradient id="SVGID_9_" gradientUnits="userSpaceOnUse" x1="863.2007" y1="2113.5391" x2="1678.5" y2="2113.5391" gradientTransform="matrix(1 0 0 -1 0 3709.2756)">
				<stop  offset="0" style="stop-color:#004D40"/>
				<stop  offset="1" style="stop-color:#1B5E20"/>
			</linearGradient>
			<path class="st15" d="M1678.5,1594.2c0,227.8-176.6,415.7-397.5,422.2c-224.4,6.6-412.8-175.9-417.7-410.1
				c-5-237.1,179.6-431.4,409-431.4C1498,1174.8,1678.5,1363.7,1678.5,1594.2z"/>
			
				<linearGradient id="SVGID_10_" gradientUnits="userSpaceOnUse" x1="1538.5778" y1="2567.7036" x2="891.6335" y2="1345.6993" gradientTransform="matrix(1 0 0 -1 0 3709.2756)">
				<stop  offset="0" style="stop-color:#689F38"/>
				<stop  offset="1" style="stop-color:#33691E"/>
			</linearGradient>
			<path class="st16" d="M1706,1594.2c0,227.8-176.6,415.7-397.5,422.2c-224.4,6.6-412.8-175.9-417.7-410.1
				c-5-237.1,179.6-431.4,409-431.4C1525.5,1174.8,1706,1363.7,1706,1594.2z"/>
			<path class="st12" d="M1653.8,1595c0.1,100.7-39.4,192.4-103.5,259c-62.2,64.7-416.3,77.9-480.4,21.8
				c-74.1-65-122.1-161.2-124.2-270.3c-4-205.4,155.8-373.8,354.6-374.2C1496.4,1230.8,1653.6,1394.5,1653.8,1595z"/>
			<g>
				<g>
					<defs>
						<path id="SVGID_11_" d="M1653.8,1595c0.3,198.4-153.6,362-345.9,367.2c-195,5.3-358.2-153.5-362.1-356.8
							c-4-205.4,155.8-373.8,354.6-374.2C1496.4,1230.8,1653.6,1394.5,1653.8,1595z"/>
					</defs>
					<clipPath id="SVGID_12_">
						<use xlink:href="#SVGID_11_"  style="overflow:visible;"/>
					</clipPath>
					<g class="st17">
						<g>
							
								<linearGradient id="SVGID_13_" gradientUnits="userSpaceOnUse" x1="1324.9288" y1="2002.3529" x2="1275.0621" y2="2398.5168" gradientTransform="matrix(1 0 0 -1 0 3709.2756)">
								<stop  offset="0" style="stop-color:#311944"/>
								<stop  offset="1" style="stop-color:#6B3976"/>
							</linearGradient>
							<path class="st18" d="M1307.6,1720.2c-67.1,8.4-88,33.4-115,16.7c-24.6-15.2-14.9-40.7-41.2-58.2
								c-36.9-24.6-80.6,8.9-98.3-12.3c-13.8-16.6,12.1-38.1,6.7-82.4c-6.4-52.8-48.2-63.7-42.9-106.2c3.7-30.1,27.8-50.4,29.5-51.9
								c18.6-15.4,28-7.4,45.2-21.4c24.9-20.3,13.8-44,39.3-67.5c2-1.8,27.2-24.5,54.2-18.6c20.9,4.6,20.7,21.5,38.3,25.9
								c31.3,7.9,48.3-42,87.2-41.7c30.7,0.2,32.2,31.4,69.5,38.7c45.8,9,78.9-31.1,96.8-15.2c11.5,10.2-1.3,27.4,11.9,46.9
								c14.4,21.2,36.1,10,60,32.2c14,13,26.5,35.5,25.7,58.6c-0.8,22.9-14.1,28.7-11.1,49c2.9,19.8,16.5,20.4,20,39.3
								c3.9,21.2-8.5,46.4-25.1,60.2c-22.8,18.9-43.5,8-56.2,26.8c-9.5,14-1,24.6-9,41.1c-7.7,15.9-25,25.4-58.2,33.1
								C1376.9,1726.8,1362.9,1713.3,1307.6,1720.2z"/>
							<g class="st19">
								
									<linearGradient id="SVGID_14_" gradientUnits="userSpaceOnUse" x1="1316.4742" y1="2001.2882" x2="1266.6086" y2="2397.4443" gradientTransform="matrix(1 0 0 -1 0 3709.2756)">
									<stop  offset="0" style="stop-color:#311944"/>
									<stop  offset="1" style="stop-color:#6B3976"/>
								</linearGradient>
								<path class="st20" d="M1522.8,1602.2c-38.3-7.4-42.1-44.3-82.8-55.5c-70.1-19.3-127.9,71.1-163.2,49.5
									c-33.9-20.8,11.2-108.4-35.7-160.3c-34.7-38.4-86.9-21.1-98.8-49.9c-5.4-13-1.8-33.7,26.6-68.1c-20.2,2.9-36.5,17.6-38,19.1
									c-25.4,23.5-14.3,47.2-39.3,67.5c-17.2,14-26.5,6.1-45.2,21.4c-1.7,1.4-25.8,21.8-29.5,51.9c-5.3,42.5,36.5,53.4,42.9,106.2
									c5.4,44.3-20.5,65.9-6.7,82.4c17.6,21.2,61.4-12.4,98.3,12.3c26.3,17.6,16.6,43,41.2,58.2c26.9,16.7,47.9-8.3,115-16.7
									c55.3-6.9,69.3,6.5,127.3-7c33.2-7.7,50.5-17.3,58.2-33.1c8-16.5-0.5-27.1,9-41.1c12.7-18.8,33.4-7.9,56.2-26.8
									c6.1-5.1,11.7-11.7,16.1-19.1C1557.5,1601.5,1540.1,1605.5,1522.8,1602.2z"/>
							</g>
						</g>
						
							<linearGradient id="SVGID_15_" gradientUnits="userSpaceOnUse" x1="1306.923" y1="1929.9077" x2="1316.0137" y2="1638.1741" gradientTransform="matrix(1 0 0 -1 0 3709.2756)">
							<stop  offset="0" style="stop-color:#FFC444"/>
							<stop  offset="0.9964" style="stop-color:#F36F56"/>
						</linearGradient>
						<path class="st21" d="M1059.7,1980.7c23.6,35.8,105.4,15.7,259,9.5c153.2-6.1,220.9,8,244.3-27.8c10.9-16.6,6.7-35.4-1.3-71.2
							c-5.5-24.5-16.2-72.6-55.4-105c-48.3-39.9-115.7-36.3-183.9-32.6c-71.7,3.9-171.1,9.2-225.7,74.3
							c-38.2,45.6-41.2,104.6-41.5,113.4C1054.5,1961.9,1054.1,1972.1,1059.7,1980.7z"/>
						
							<linearGradient id="SVGID_16_" gradientUnits="userSpaceOnUse" x1="1316.9631" y1="1857.5682" x2="1325.308" y2="2110.4111" gradientTransform="matrix(1 0 0 -1 0 3709.2756)">
							<stop  offset="0" style="stop-color:#AB316D"/>
							<stop  offset="1" style="stop-color:#792D3D"/>
						</linearGradient>
						<path class="st22" d="M1285.3,1637.4c0,0,10.4,109.2-63.9,132.5c-8.2,2.6-10.2,13.7-3.3,19c23.8,18.4,66.6,47.7,102,50.8
							c36.7,3.2,79.9-36.7,101.9-60.1c5.9-6.3,2.6-16.7-5.7-18c-31.6-5.2-88.6-27.4-83.6-120.5L1285.3,1637.4z"/>
						
							<linearGradient id="SVGID_17_" gradientUnits="userSpaceOnUse" x1="1300.0668" y1="2070.7766" x2="1311.0569" y2="2239.0103" gradientTransform="matrix(1 0 0 -1 0 3709.2756)">
							<stop  offset="0" style="stop-color:#AB316D"/>
							<stop  offset="1" style="stop-color:#792D3D"/>
						</linearGradient>
						<path class="st23" d="M1234.4,1559c0,0-4,109.8,72.5,107.2c76.1-2.6,69.9-95.6,65.5-119.7c0,0,0-63.7-50.9-57.7
							C1270.5,1494.9,1236.1,1512,1234.4,1559z"/>
						
							<linearGradient id="SVGID_18_" gradientUnits="userSpaceOnUse" x1="1376.801" y1="2066.3672" x2="1387.7864" y2="2234.5295" gradientTransform="matrix(1 0 0 -1 0 3709.2756)">
							<stop  offset="0" style="stop-color:#AB316D"/>
							<stop  offset="1" style="stop-color:#792D3D"/>
						</linearGradient>
						<path class="st24" d="M1366.7,1585.6c0,0,7.1-28.7,22.2-14.7c22,20.2-24.4,44.2-24.4,44.2L1366.7,1585.6z"/>
						
							<linearGradient id="SVGID_19_" gradientUnits="userSpaceOnUse" x1="1226.843" y1="2074.6831" x2="1237.7821" y2="2242.1353" gradientTransform="matrix(1 0 0 -1 0 3709.2756)">
							<stop  offset="0" style="stop-color:#AB316D"/>
							<stop  offset="1" style="stop-color:#792D3D"/>
						</linearGradient>
						<path class="st25" d="M1242,1587.3c0,0-7.7-28.6-22.8-14.2c-21.9,21,25.5,43.7,25.5,43.7L1242,1587.3z"/>
						
							<linearGradient id="SVGID_20_" gradientUnits="userSpaceOnUse" x1="1302.3264" y1="2131.5574" x2="1310.032" y2="2444.9231" gradientTransform="matrix(1 0 0 -1 0 3709.2756)">
							<stop  offset="0" style="stop-color:#FFC444"/>
							<stop  offset="0.9964" style="stop-color:#F36F56"/>
						</linearGradient>
						<path class="st26" d="M1232,1557.5c0.7,2.2,3.7,2.2,4.4,0.1c5-14.2,21.1-46.4,64.1-51.5c38.4-4.6,59,24.3,68,42.4
							c2,4,7.7,2.8,8.1-1.7c2.3-26.4-1.6-77.3-66.9-76.7C1226.8,1471.1,1225.3,1536.2,1232,1557.5z"/>
					</g>
				</g>
			</g>
		</g>
		<g>
			
				<linearGradient id="SVGID_21_" gradientUnits="userSpaceOnUse" x1="2940.2891" y1="621.7482" x2="2958.4707" y2="390.3452" gradientTransform="matrix(1 0 0 -1 -626.2627 3709.2756)">
				<stop  offset="3.597000e-03" style="stop-color:#26264F"/>
				<stop  offset="1" style="stop-color:#444B8C"/>
			</linearGradient>
			<path class="st27" d="M2349.5,3202.9c0,0-73.2,33.3-74.4,38.6s47.1-1.8,66.8-1s35.9-5.1,34.1-13.4c-1.8-8.3-8.7-29.3-8.7-29.3
				L2349.5,3202.9z"/>
			
				<linearGradient id="SVGID_22_" gradientUnits="userSpaceOnUse" x1="2987.2476" y1="492.9184" x2="2983.9421" y2="732.5814" gradientTransform="matrix(1 0 0 -1 -626.2627 3709.2756)">
				<stop  offset="0" style="stop-color:#AB316D"/>
				<stop  offset="1" style="stop-color:#792D3D"/>
			</linearGradient>
			<path class="st28" d="M2346.8,3175.9l4.5,33c0,0,11.6,4.1,19.4-0.8l3.3-36.1L2346.8,3175.9z"/>
			
				<linearGradient id="SVGID_23_" gradientUnits="userSpaceOnUse" x1="3283.8701" y1="648.7414" x2="3302.0515" y2="417.3422" gradientTransform="matrix(1 0 0 -1 -626.2627 3709.2756)">
				<stop  offset="3.597000e-03" style="stop-color:#26264F"/>
				<stop  offset="1" style="stop-color:#444B8C"/>
			</linearGradient>
			<path class="st29" d="M2691.5,3176.7l8.5,13.7c2.4,3.8,3.1,8.4,1.9,12.8c-3,11.4-8.9,33.5-11.5,39.3
				c-3.5,7.9-50.9,12.5-50.9,12.5s-4.2-5.9,5.6-13.1c9.8-7.2,16.2-8.3,19.6-18.9c3.5-10.6,5.8-40.6,5.8-40.6L2691.5,3176.7z"/>
			
				<linearGradient id="SVGID_24_" gradientUnits="userSpaceOnUse" x1="3302.1699" y1="497.2624" x2="3298.8643" y2="736.9279" gradientTransform="matrix(1 0 0 -1 -626.2627 3709.2756)">
				<stop  offset="0" style="stop-color:#AB316D"/>
				<stop  offset="1" style="stop-color:#792D3D"/>
			</linearGradient>
			<path class="st30" d="M2656.1,3142c3.1,2.5,18.3,48.6,18.3,48.6s4.9,6.3,14.3-3c9.4-9.3,4.2-4.2,4.2-4.2l-1.8-45.4L2656.1,3142z"
				/>
			
				<linearGradient id="SVGID_25_" gradientUnits="userSpaceOnUse" x1="2303.7153" y1="881.1537" x2="2480.7769" y2="881.1537" gradientTransform="matrix(1 0 0 -1 0 3709.2756)">
				<stop  offset="3.597120e-03" style="stop-color:#66BB6A"/>
				<stop  offset="1" style="stop-color:#558B2F"/>
			</linearGradient>
			<path class="st31" d="M2306.5,2513.9c-3.9,98.3-4,205.1,1.6,319.2c6.4,128.5,19.2,247.2,35.3,354.9c6,0.2,12.3,0.2,18.9,0
				c4.4-0.1,8.7-0.3,12.9-0.6c8.4-22.3,18.3-51.7,27.1-86.7c9.3-36.9,14.9-69.9,18.9-101.6c14.1-111.3-2.4-121,9-203.6
				c10.1-73.1,24.5-75.9,41.4-179.7c18.3-112.6,4.7-129.5-2-135.6C2441.5,2454.3,2375.1,2472,2306.5,2513.9z"/>
			
				<linearGradient id="SVGID_26_" gradientUnits="userSpaceOnUse" x1="2316" y1="881.2322" x2="2480.9521" y2="881.2322" gradientTransform="matrix(1 0 0 -1 0 3709.2756)">
				<stop  offset="3.597120e-03" style="stop-color:#8BC34A"/>
				<stop  offset="1" style="stop-color:#2E7D32"/>
			</linearGradient>
			<path class="st32" d="M2469.8,2480.3c-27-24.8-88.7-9.8-153.8,28c74.9,81,83.1,133.5,74.1,167.6c-10.2,38.5-41,49.6-40.9,91.7
				c0.1,51.8,46.9,65.5,45.9,120.2c-0.7,36.2-21.2,35.8-26,80.6c-5.7,52.9,21.1,71.2,12.4,110.3c-3.7,16.8-14.4,38.9-44.8,61.5
				c2.2,16.1,4.4,32,6.8,47.6c6,0.2,12.3,0.2,18.9,0c4.4-0.1,8.8-0.3,12.9-0.6c8.4-22.3,18.3-51.7,27.1-86.7
				c9.3-36.9,14.9-69.9,18.9-101.6c14.1-111.3-2.4-121,9-203.6c10.1-73.1,24.5-75.9,41.4-179.7
				C2490.1,2503.3,2476.5,2486.4,2469.8,2480.3z"/>
			
				<linearGradient id="SVGID_27_" gradientUnits="userSpaceOnUse" x1="2353" y1="898.6486" x2="2709.7815" y2="898.6486" gradientTransform="matrix(1 0 0 -1 0 3709.2756)">
				<stop  offset="3.597120e-03" style="stop-color:#66BB6A"/>
				<stop  offset="1" style="stop-color:#558B2F"/>
			</linearGradient>
			<path class="st33" d="M2353,2512.3c64.5,94.4,134.1,211.9,196.4,352.6c47,106.3,81.2,206.1,106.2,295c3.4,1.6,11.4,4.7,21.6,3.3
				c13.9-1.8,22.3-10.7,24.5-13.2c10.2-63.8,9.1-117.8,5.6-156.7c-2.2-25-6.1-66.5-22-117.8c-17.8-57.5-30.1-60.7-53.3-121.5
				c-24.1-63.1-18.3-78.8-41.4-157.8c-9.5-32.4-25.4-80.7-51.6-138.5C2476.9,2475.9,2415,2494.1,2353,2512.3z"/>
			
				<linearGradient id="SVGID_28_" gradientUnits="userSpaceOnUse" x1="1087.2526" y1="1946.4713" x2="989.4228" y2="1652.9814" gradientTransform="matrix(-0.9998 2.180000e-02 -2.180000e-02 -0.9998 3124.8838 3677.6902)">
				<stop  offset="0" style="stop-color:#AB316D"/>
				<stop  offset="1" style="stop-color:#792D3D"/>
			</linearGradient>
			<path class="st34" d="M2047.7,1840.1c0,0-12.5-15-20.5-26.2s-44.8-42.2-44.8-42.2s-2.6,5.1,5.3,13s24.6,21.4,21,27.4
				c-3.6,5.9-14.1,11.3-6.2,22.2c7.9,10.9,21,3.1,28,11.8c7,8.7,14.2,18.3,14.2,18.3L2047.7,1840.1z"/>
			
				<linearGradient id="SVGID_29_" gradientUnits="userSpaceOnUse" x1="2206.1685" y1="1695.8262" x2="2373.5015" y2="1002.0358" gradientTransform="matrix(0.9998 -2.180000e-02 -2.180000e-02 -0.9998 79.1086 3744.0564)">
				<stop  offset="0" style="stop-color:#FFC444"/>
				<stop  offset="0.9964" style="stop-color:#F36F56"/>
			</linearGradient>
			<path class="st35" d="M2049.5,1824.4c-8.4,10.5-16.7,21-25.1,31.4c10.7,46.2,33.5,115.9,86.4,183.5
				c56.1,71.7,175.8,179.1,250.3,143.9c45.4-21.5,106.7-95.1,84.7-130.6c-21.2-34.1-112.9-18-175.8-32.2
				C2208.4,2006.5,2128.3,1961.6,2049.5,1824.4z"/>
			
				<linearGradient id="SVGID_30_" gradientUnits="userSpaceOnUse" x1="2468.0452" y1="1462.9235" x2="2605.7871" y2="1462.9235" gradientTransform="matrix(0.9998 -2.180000e-02 -2.180000e-02 -0.9998 79.1086 3744.0564)">
				<stop  offset="0" style="stop-color:#FFC444"/>
				<stop  offset="0.9964" style="stop-color:#F36F56"/>
			</linearGradient>
			<path class="st36" d="M2624.9,2097c0,0,48.8,166.2,18.6,230.1c-30.2,63.9-126.7-6.3-126.7-6.3L2624.9,2097z"/>
			
				<linearGradient id="SVGID_31_" gradientUnits="userSpaceOnUse" x1="2458.9434" y1="1462.9224" x2="2596.6853" y2="1462.9224" gradientTransform="matrix(0.9998 -2.180000e-02 -2.180000e-02 -0.9998 79.1086 3744.0564)">
				<stop  offset="0" style="stop-color:#FFC444"/>
				<stop  offset="0.9075" style="stop-color:#F57C00"/>
			</linearGradient>
			<path class="st37" d="M2615.8,2097.2c0,0,48.8,166.2,18.6,230.1c-30.3,63.9-126.7-6.3-126.7-6.3L2615.8,2097.2z"/>
			
				<linearGradient id="SVGID_32_" gradientUnits="userSpaceOnUse" x1="2345.5081" y1="1729.4329" x2="2512.8408" y2="1035.6432" gradientTransform="matrix(0.9998 -2.180000e-02 -2.180000e-02 -0.9998 79.1086 3744.0564)">
				<stop  offset="0" style="stop-color:#FFC444"/>
				<stop  offset="0.9964" style="stop-color:#F57C00"/>
			</linearGradient>
			<path class="st38" d="M2473,2035.5c-62.7-1.1-111,0.9-137.7,28.8c-28.2,29.4,1.6,61.3-3,136.9c-7.1,115.6-80,145.4-83,262.6
				c-1,39.5,6.4,71.6,12,90.9c16.6,19.7,43.6,47.5,83.1,70.4c57.5,33.3,90.2,26.5,172.2,47.1c134.1,33.6,146.9,76.7,212.7,64.2
				c66.5-12.6,123.9-70.1,116.2-100.8c-4.6-18.4-31.4-12.6-63.1-40.1c-40.7-35.5-26.1-70.5-57.3-108.9
				c-44.8-55.1-104.9-19.5-143.1-67.3c-38.7-48.3-25.9-145.6,4.7-199c20-34.9,27.9-75.6,44.8-112.1c1.4-3,3-8,2.1-14.1
				c-3.4-23.5-42.9-35.4-72.9-44.1C2515,2036.6,2478.2,2035.6,2473,2035.5z"/>
			
				<linearGradient id="SVGID_33_" gradientUnits="userSpaceOnUse" x1="1135.0134" y1="1709.5121" x2="1189.4302" y2="1623.0203" gradientTransform="matrix(0.9998 -2.180000e-02 -2.180000e-02 -0.9998 1328.3749 3716.8213)">
				<stop  offset="0" style="stop-color:#FF9085"/>
				<stop  offset="1" style="stop-color:#FB6FBB"/>
			</linearGradient>
			<path class="st39" d="M2412,2034.3l12.3-4.1c0,0,3.6,16.7,43.4,17.9c22.1-0.5,36-13.1,36-13.1l8.6,6c0,0-18,23.5-47.5,23.6
				C2426.7,2064.6,2412,2034.3,2412,2034.3z"/>
			<g>
				
					<linearGradient id="SVGID_34_" gradientUnits="userSpaceOnUse" x1="2362.9421" y1="1312.1162" x2="2299.2439" y2="1209.0747" gradientTransform="matrix(0.9519 -0.3063 -0.3063 -0.9519 623.275 3925.2395)">
					<stop  offset="0" style="stop-color:#AB316D"/>
					<stop  offset="1" style="stop-color:#792D3D"/>
				</linearGradient>
				<path class="st40" d="M2422.1,1980.5c-3.4-18.2,6.9-33.9,9.1-37.3c9.4-14.1,11.7-16,15.7-18.2l5.6-2.8c0,0,0.3-0.1,0.7-0.2
					c3.5-0.9,15.2-0.2,17.6,0.5c7.4,2.3,12.6,33.8,6.4,77.1c0.3,3.4,0.6,6.8,0.9,10.2c16.9-2.3,21.7-0.7,22.6,1.5
					c1.9,4.9-9.9,33.5-25.9,39.1c-20.1,7.1-48.2-11.3-49.9-18c-0.7-2.7-0.6-0.4,13.2-8.3c1.3-4,5.2-14.8,6.4-18.7
					C2441.5,2003.6,2424.5,1993.9,2422.1,1980.5z"/>
				
					<linearGradient id="SVGID_35_" gradientUnits="userSpaceOnUse" x1="1995.5256" y1="1825.1685" x2="1937.6469" y2="1731.541" gradientTransform="matrix(0.8526 -0.5224 -0.5224 -0.8526 1698.4515 4543.3784)">
					<stop  offset="0" style="stop-color:#AB316D"/>
					<stop  offset="1" style="stop-color:#792D3D"/>
				</linearGradient>
				<path class="st41" d="M2445,1965.8c3.7-4.2,9.1,0.6,8.6,6.4c-0.5,5.9-6.8,11.5-12.2,9.8C2436.1,1980.4,2440,1971.5,2445,1965.8z
					"/>
			</g>
			<g class="st19">
				
					<linearGradient id="SVGID_36_" gradientUnits="userSpaceOnUse" x1="2306.1499" y1="1719.9397" x2="2473.4829" y2="1026.1499" gradientTransform="matrix(0.9998 -2.180000e-02 -2.180000e-02 -0.9998 79.1086 3744.0564)">
					<stop  offset="0" style="stop-color:#FBC02D"/>
					<stop  offset="0.9964" style="stop-color:#F57C00"/>
				</linearGradient>
				<path class="st42" d="M2682.2,2637.1c-63.1-41.9-120.2,6-164.8-30.9c-36.7-30.4-6.6-70.1-46.3-123.6
					c-43.6-58.7-104-43.7-118.4-87.5c-14.9-45.3,44.8-76.1,46.3-139c0.8-32.1-13.7-73.9-71.3-124.1c3.1,18.3,6.3,40.6,4.5,69.2
					c-7.1,115.6-80,145.4-83,262.6c-1,39.5,6.4,71.6,12,90.9c16.6,19.7,43.6,47.5,83.1,70.4c57.5,33.3,90.2,26.5,172.2,47.1
					c134.1,33.6,146.9,76.7,212.7,64.2c19.2-3.6,37.6-11,53.9-20.4c-19.2-3-33.5-9.5-44.4-17C2710.1,2679,2715.1,2659,2682.2,2637.1
					z"/>
			</g>
			
				<linearGradient id="SVGID_37_" gradientUnits="userSpaceOnUse" x1="2416.0166" y1="1737.4779" x2="2754.1707" y2="1737.4779" gradientTransform="matrix(1 0 0 -1 0 3709.2756)">
				<stop  offset="0" style="stop-color:#311944"/>
				<stop  offset="1" style="stop-color:#6B3976"/>
			</linearGradient>
			<path class="st43" d="M2549.5,1846.4c-34.3,3.9-45.9-25.7-76.2-19.7c-38.1,7.6-68,64.1-53.6,92.4c9,17.6,30.5,14.8,43.3,37.4
				c5.3,9.4,8,21.1,4.1,49.2c-9.3,68.1-36.2,81.2-26.8,106.2c11.6,30.8,64.3,42.3,96.8,41.3c11-0.3,40-1.2,63.9-19.7
				c21.4-16.5,19.8-32.6,41.8-42.9c18-8.4,24.7-0.4,48.9-6.3c20.4-4.9,56.4-20.5,61.8-45.2c6.1-27.5-31.5-40.1-28.3-75.3
				c2.1-22.7,18.4-23.8,24.2-50.5c8.2-37.6-16.3-71-20.6-76.7c-19.6-25.8-58.1-51.9-94.8-45.2
				C2592.7,1798.9,2589.7,1841.8,2549.5,1846.4z"/>
		</g>
	</g>
	<g>
		<path class="st44" d="M2015.4,2468.3h-1.1c-66.6,0-120.8,54.2-120.8,120.8v37.6c0,2.2,1.8,4,4,4s4-1.8,4-4v-37.6
			c0-62.2,50.6-112.7,112.7-112.7h1.1c62.2,0,112.7,50.6,112.7,112.7v37.6c0,2.2,1.8,4,4,4s4-1.8,4-4v-37.6
			C2136.2,2522.5,2082,2468.3,2015.4,2468.3z"/>
		<path class="st44" d="M2088.5,2510.5c-19.8-19.2-45.8-29.8-73.2-29.8h-1c-12.7,0.2-45,3.6-72,29.8c-20.4,19.8-29.5,46-31.2,63.8
			c-1.6,16.2-1.4,26.6-1.4,27c0,2.1,0.1,4,0.2,5.7c0.2,6.2,0.4,10.2-1.1,15.3c-1.6,5.3-4.4,10.2-8.5,14.7c-1.5,1.6-1.4,4.2,0.2,5.7
			s4.2,1.4,5.7-0.2c4.9-5.4,8.4-11.4,10.3-17.8c1.9-6.3,1.7-11.5,1.4-17.9c-0.1-1.7-0.1-3.5-0.2-5.6c0-0.1-0.2-10.3,1.3-26.1
			c1.6-16.4,10-40.5,28.8-58.9c25-24.2,54.9-27.3,66.5-27.6h0.9c52.1,0,96.1,43,96.1,94v0.2l3,60.6c0.1,2.1,1.9,3.8,4,3.8h0.2
			c2.2-0.1,3.9-2,3.8-4.2l-3-60.5C2119.4,2555.5,2108.4,2529.9,2088.5,2510.5z"/>
		<path class="st44" d="M2107.1,2589.5c-2.5-30.2-13-54-31.2-70.5c-15.3-14-36.4-22.6-60.9-25h-0.4h-0.8c-10.6,0.2-37.8,3-60.5,25
			c-17.1,16.6-24.8,38.6-26.2,53.6c-1.3,13.9-1.1,22.5-1.1,22.5c0.1,25.4-1.3,31.7-1.4,32.3c-2.6,9-9.2,17.2-19.6,24.3
			c-1.8,1.3-2.3,3.8-1,5.6s3.8,2.3,5.6,1c11.9-8.3,19.5-17.9,22.7-28.7c0.2-0.6,1.8-7.1,1.8-34.6c0-0.1-0.2-8.5,1.1-21.7
			c1.3-13.6,8.2-33.5,23.8-48.6c20.6-20,45.3-22.6,54.9-22.8h0.6c28.6,2.7,46.3,13.9,56.1,22.9c39.1,35.7,29,98.4,25.2,121.9
			c-3.5,21.8-10.7,42.9-21.4,62.8c-1.1,1.9-0.3,4.4,1.6,5.5c0.6,0.3,1.2,0.5,1.9,0.5c1.4,0,2.8-0.8,3.5-2.1
			c11.1-20.6,18.7-42.6,22.3-65.3C2105.5,2636,2109.1,2613.8,2107.1,2589.5z"/>
		<path class="st44" d="M2094.7,2591.3c-2.2-26.5-11.5-47.4-27.4-61.9c-1.6-1.5-4.2-1.4-5.7,0.3c-1.5,1.6-1.4,4.2,0.3,5.7
			c33.9,31,25.2,85.5,21.9,106c-3,19-9.3,37.4-18.7,54.6c-1.1,1.9-0.3,4.4,1.6,5.5c0.6,0.3,1.2,0.5,1.9,0.5c1.4,0,2.8-0.8,3.5-2.1
			c9.8-18,16.3-37.3,19.5-57.2C2093.3,2632.1,2096.5,2612.6,2094.7,2591.3z"/>
		<path class="st44" d="M1945.8,2626.9l0.1-0.4c2.5-12.3,2.2-20.6,1.8-28.6c-0.3-6.6-0.5-12.9,0.7-21.5c0.3-2.1,3.3-20.9,20.3-38.5
			c16.8-17.5,36.7-18.2,44.3-18.5c2.2-0.1,3.9-1.9,3.9-4.2s-1.9-3.9-4.2-3.9c-8.4,0.3-30.7,1.1-49.7,21
			c-18.7,19.5-22.1,40.6-22.5,43c-1.3,9.4-1,16.3-0.7,23c0.4,7.9,0.7,15.3-1.7,26.6l-0.1,0.4c-2.8,13.4-10.4,25.6-21.3,34.4
			l-6.5,5.3c-1.7,1.4-2,3.9-0.6,5.6c0.8,1,1.9,1.5,3.1,1.5c0.9,0,1.8-0.3,2.5-0.9l6.5-5.3C1934,2655.9,1942.6,2642.1,1945.8,2626.9z
			"/>
		<path class="st44" d="M2075.9,2649.4c3.5-21.9,12.9-79.9-24.7-112.1c-12.2-10.4-27.5-14-44.2-10.3c-22.9,5.1-41.6,22.3-48.8,44.8
			c-1.4,4.4-2.3,8.9-2.8,13.4c-1.7,17.9-4.6,47.1-5,49.4l0,0v0.2c0,0.1,0,0.3-0.3,1.2c-4.2,14.1-12.5,26.5-24.1,35.8l-3.4,2.7
			c-1.7,1.4-2,3.9-0.6,5.6c1.4,1.7,3.9,2,5.6,0.6l3.4-2.7c12.8-10.3,22-24,26.8-39.8c0.4-1.1,0.4-1.5,0.5-1.9v-0.3l0,0
			c0.6-3,4.4-42.4,5.1-50.2c0.4-3.9,1.2-7.8,2.4-11.7c6.3-19.9,22.7-35,42.8-39.4c14.4-3.2,26.9-0.3,37.2,8.5
			c34.1,29.3,25.3,84.1,21.9,104.8l-0.2,1.2c-3,19-9.3,37.4-18.7,54.6c-1.1,1.9-0.3,4.4,1.6,5.5c0.6,0.3,1.2,0.5,1.9,0.5
			c1.4,0,2.8-0.8,3.5-2.1c9.8-18,16.3-37.3,19.5-57.2L2075.9,2649.4z"/>
		<path class="st44" d="M1976.3,2630.6c1.9-10.1,1.8-18.9,1.6-26.7c-0.2-12-0.4-21.6,6.5-32.6c8-12.8,23.6-24.8,37.8-22.8
			c17.6,2.4,35.3,25.4,33.4,58.5c-0.1,2.2,1.6,4.1,3.8,4.2c2.2,0.1,4.1-1.6,4.2-3.8c1-16.7-2.8-32.9-10.7-45.5
			c-7.6-12.1-18.4-19.9-29.6-21.4c-18.4-2.5-36.6,12-45.7,26.5c-8.2,13.1-8,24.7-7.8,37c0.2,7.7,0.3,15.7-1.5,25
			c-4.3,22.6-18.8,44.1-43,63.8c-1.7,1.4-2,3.9-0.6,5.6c0.8,1,1.9,1.5,3.1,1.5c0.9,0,1.8-0.3,2.5-0.9
			C1956.2,2678.2,1971.6,2655.2,1976.3,2630.6z"/>
		<path class="st44" d="M2060,2619c-2.2-0.2-4.2,1.4-4.4,3.6c-0.1,0.7-7.1,67.5-36.9,102.4c-1.4,1.7-1.2,4.2,0.4,5.6
			c0.7,0.7,1.7,1,2.6,1c1.1,0,2.3-0.5,3-1.4c31.5-36.8,38.5-104,38.8-106.9C2063.8,2621.2,2062.2,2619.2,2060,2619z"/>
		<path class="st44" d="M1960.6,2697.7c5.7-6.4,10.8-13.5,15.2-21c1.1-1.9,0.5-4.4-1.5-5.5c-1.9-1.1-4.4-0.5-5.5,1.5
			c-4.1,7-8.8,13.6-14.2,19.6c-4.9,5.5-10.4,10.7-16.2,15.2c-1.8,1.4-2.1,3.9-0.7,5.6c0.8,1,2,1.6,3.2,1.6c0.9,0,1.7-0.3,2.5-0.9
			C1949.6,2709.1,1955.4,2703.7,1960.6,2697.7z"/>
		<path class="st44" d="M2033.7,2562.9c-0.4-0.2-0.7-0.5-1-0.7c-7-4.8-16.2-5.9-24.5-3c-6.5,2.2-11.8,5.7-15.7,10.4
			c-7.4,8.9-7.6,19.4-7.8,30.4c0,1.9,0,3.7-0.1,5.6c-0.6,16.9-4,34.2-10.2,51.5c-0.7,2.1,0.4,4.4,2.4,5.1c2.1,0.7,4.4-0.4,5.1-2.4
			c6.5-18.1,10-36.3,10.6-54c0.1-2,0.1-3.9,0.1-5.8c0.2-10,0.3-18.6,5.9-25.4c2.9-3.5,7-6.2,12.1-7.9c6-2,12.5-1.2,17.4,2.1
			c0.2,0.2,0.5,0.4,0.7,0.5c13.2,9.7,12,32.2,11.2,45.6c-2.3,41.1-22,80.8-38.1,106.8c-1.2,1.9-0.6,4.4,1.3,5.5
			c0.7,0.4,1.4,0.6,2.1,0.6c1.3,0,2.6-0.7,3.4-1.9c16.6-26.8,37-67.8,39.3-110.6C2049,2601.3,2050.4,2575.2,2033.7,2562.9z"/>
		<path class="st44" d="M2012.6,2585.2c0.1-2.2-1.7-4.1-3.9-4.2c-2.2-0.1-4.1,1.7-4.2,3.9c-1.6,47.4-15.6,80.9-27.1,100.7
			c-12.4,21.4-24.6,31.8-24.7,31.9c-1.7,1.4-1.9,4-0.5,5.6c0.8,0.9,1.9,1.4,3.1,1.4c0.9,0,1.8-0.3,2.6-0.9
			c0.5-0.4,13.2-11.1,26.3-33.7C1996.2,2669.4,2010.9,2634.5,2012.6,2585.2z"/>
		<path class="st44" d="M2003.8,2698.2c1.2-1.8,28.9-44.8,27.7-93.6c0-2.2-1.9-4-4.1-3.9c-2.2,0-4,1.9-3.9,4.1
			c1.1,46.2-26.1,88.5-26.4,89.1c-1.2,1.9-0.7,4.4,1.2,5.6c0.7,0.4,1.4,0.7,2.2,0.7C2001.8,2700,2003.1,2699.4,2003.8,2698.2z"/>
		<path class="st44" d="M2114.8,2661.3c-2.2-0.3-4.2,1.2-4.5,3.5c-3.6,27.3-15.4,44.1-15.5,44.3c-1.3,1.8-0.9,4.3,0.9,5.6
			c0.7,0.5,1.5,0.7,2.3,0.7c1.2,0,2.5-0.6,3.3-1.7c0.5-0.7,13-18.5,17-48C2118.5,2663.6,2117,2661.6,2114.8,2661.3z"/>
		<path class="st44" d="M2048.1,2527.1c0.8,0.7,1.7,1,2.6,1c1.1,0,2.2-0.5,3-1.4c1.5-1.7,1.3-4.2-0.4-5.7
			c-4.4-3.9-19.7-8.6-22.7-9.5c-2.1-0.6-4.4,0.6-5,2.7c-0.6,2.1,0.6,4.4,2.7,5C2035.2,2521.2,2045.7,2525,2048.1,2527.1z"/>
		<path class="st44" d="M1994.3,2707.6c-1.8-1.4-4.3-1.1-5.6,0.7c-2.7,3.5-4.9,6.9-7.1,10.2c-2.1,3.3-4.1,6.4-6.6,9.6
			c-1.4,1.8-1.1,4.3,0.7,5.6c0.7,0.6,1.6,0.9,2.5,0.9c1.2,0,2.4-0.5,3.2-1.5c2.7-3.5,4.9-6.9,7.1-10.2c2.1-3.3,4.1-6.4,6.5-9.6
			C1996.4,2711.6,1996.1,2709,1994.3,2707.6z"/>
	</g>
</g>
</svg>
