<?xml version="1.0" encoding="utf-8"?>
<!-- Generator: Adobe Illustrator 24.0.0, SVG Export Plug-In . SVG Version: 6.00 Build 0)  -->
<svg version="1.1" id="Capa_1" xmlns="http://www.w3.org/2000/svg" xmlns:xlink="http://www.w3.org/1999/xlink" x="0px" y="0px"
	 viewBox="0 0 2122 2122" style="enable-background:new 0 0 2122 2122;" xml:space="preserve">
<style type="text/css">
	.st0{fill:#F57F17;}
	.st1{fill:#B5DEF5;}
	.st2{fill:#FFB74D;}
	.st3{fill:#000002;}
	.st4{fill:#388E3C;}
	.st5{fill:#323965;}
	.st6{fill:#3C4675;}
	.st7{fill:#1B5E20;}
	.st8{fill:#FFFFFF;}
	.st9{fill:#2D2D2D;}
	.st10{fill:#C8C4C5;}
	.st11{fill:#D6D6D6;}
	.st12{fill:#A2A2A2;}
	.st13{fill:#424242;}
	.st14{fill:#212121;}
	.st15{fill:#757575;}
	.st16{fill:#E65100;}
	.st17{fill:#1A1A1C;}
	.st18{fill:#FAFAFA;}
	.st19{opacity:0.48;}
	.st20{fill:#E0E0E0;}
	.st21{opacity:0.35;fill:#FFFFFF;}
	.st22{fill:url(#SVGID_1_);}
	.st23{opacity:0.35;fill:#EEEEEE;}
	.st24{opacity:0.41;clip-path:url(#SVGID_2_);fill:#BDBDBD;}
	.st25{opacity:0.41;clip-path:url(#SVGID_2_);fill:#9E9E9E;}
	.st26{opacity:0.61;fill:#689F38;}
	.st27{fill:#689F38;}
	.st28{fill:#B3B3B3;}
	.st29{fill:url(#SVGID_3_);}
	.st30{opacity:0.4;fill:#FFFFFF;}
	.st31{fill:url(#SVGID_4_);}
	.st32{fill:url(#SVGID_5_);}
	.st33{fill:url(#SVGID_6_);}
	.st34{opacity:0.61;fill:#FFFFFF;}
	.st35{fill:#856400;}
	.st36{opacity:0.41;clip-path:url(#SVGID_7_);fill:url(#XMLID_2_);}
	.st37{opacity:0.41;clip-path:url(#SVGID_7_);fill:url(#XMLID_3_);}
	.st38{opacity:0.4;}
	.st39{opacity:0.3;fill:#FFFFFF;}
	.st40{opacity:0.42;fill:#FFFFFF;}
	.st41{fill:#667072;}
	.st42{fill:#F2F2F2;}
	.st43{opacity:0.54;}
	.st44{fill:#CCCCCC;}
	.st45{fill:#B3B7BB;}
	.st46{fill:#9AA2A9;}
	.st47{fill:#808E98;}
	.st48{fill:#677986;}
	.st49{fill:#4E6475;}
	.st50{fill:#E6E6E6;}
	.st51{fill:#E1E2E2;}
	.st52{fill:#DDDEDF;}
	.st53{fill:#D8DADB;}
	.st54{fill:#D3D6D8;}
	.st55{fill:#CED2D4;}
	.st56{fill:#CACED1;}
	.st57{fill:#C5CACD;}
	.st58{fill:#C0C6CA;}
	.st59{fill:#BBC1C6;}
	.st60{fill:#B7BDC3;}
	.st61{fill:#B2B9BF;}
	.st62{fill:#ADB5BC;}
	.st63{fill:#A8B1B8;}
	.st64{fill:#A3ADB5;}
	.st65{fill:#9FA9B1;}
	.st66{fill:#9AA5AE;}
	.st67{fill:#95A1AA;}
	.st68{fill:#919DA6;}
	.st69{fill:#8C99A3;}
	.st70{fill:#87959F;}
	.st71{fill:#82919C;}
	.st72{fill:#7E8D98;}
	.st73{fill:#798995;}
	.st74{fill:#748591;}
	.st75{fill:#6F808E;}
	.st76{fill:#6B7C8A;}
	.st77{fill:#667887;}
	.st78{fill:#617483;}
	.st79{fill:#5C7080;}
	.st80{fill:#586C7C;}
	.st81{fill:#536879;}
	.st82{fill:#DCDDDE;}
	.st83{fill:#D6D9DA;}
	.st84{fill:#D1D4D6;}
	.st85{fill:#CCD0D3;}
	.st86{fill:#C7CBCF;}
	.st87{fill:#C1C7CB;}
	.st88{fill:#BCC2C7;}
	.st89{fill:#B7BEC3;}
	.st90{fill:#ACB5BB;}
	.st91{fill:#A7B0B7;}
	.st92{fill:#A2ACB3;}
	.st93{fill:#9DA7AF;}
	.st94{fill:#97A3AC;}
	.st95{fill:#929EA8;}
	.st96{fill:#8D9AA4;}
	.st97{fill:#8895A0;}
	.st98{fill:#7D8C98;}
	.st99{fill:#788894;}
	.st100{fill:#738390;}
	.st101{fill:#6D7F8C;}
	.st102{fill:#687A88;}
	.st103{fill:#637685;}
	.st104{fill:#5E7181;}
	.st105{fill:#586D7D;}
</style>
<path class="st0" d="M619.3,1239.7V476.1c0-54,43.8-97.8,97.8-97.8h29.5h630.3h29.5c54,0,97.8,43.8,97.8,97.8v515.6
	c21.2-6.5,43.6-10,66.9-10c111,0,203.3,79.5,223.3,184.6c23.5-71.2,36.3-147.2,36.3-226.3c0-398.3-322.9-721.1-721.1-721.1
	c-398.3,0-721.1,322.9-721.1,721.1c0,166.1,56.2,319.1,150.6,441c2.6-30.5,9.2-60.8,23.9-87.5
	C575.8,1270.5,595.5,1250.5,619.3,1239.7z"/>
<path class="st0" d="M1593.5,1474.6c17.4-15.8,34.1-32.4,49.9-49.9c-15.9,5.4-32.6,9-49.9,10.7V1474.6z"/>
<path class="st1" d="M1669.3,1370.8c-2.7,1.7-5.5,3.3-8.3,4.8C1663.8,1374,1666.6,1372.4,1669.3,1370.8z"/>
<path class="st1" d="M1658.7,1376.7c-2.1,1.1-4.2,2.2-6.3,3.2C1654.5,1378.9,1656.6,1377.8,1658.7,1376.7z"/>
<path class="st1" d="M1649,1381.5c-1.8,0.8-3.7,1.7-5.5,2.4C1645.4,1383.1,1647.2,1382.3,1649,1381.5z"/>
<path class="st1" d="M1685.2,1359.9c-1.6,1.2-3.2,2.4-4.9,3.5C1682,1362.3,1683.6,1361.1,1685.2,1359.9z"/>
<path class="st1" d="M1699.9,1347.5c-1.4,1.3-2.7,2.5-4.1,3.7C1697.2,1350,1698.6,1348.8,1699.9,1347.5z"/>
<path class="st1" d="M1692.7,1353.9c-1.4,1.2-2.9,2.4-4.4,3.6C1689.8,1356.3,1691.3,1355.1,1692.7,1353.9z"/>
<path class="st1" d="M1752.4,1263.1c-0.3,1-0.6,1.9-0.9,2.9C1751.8,1265,1752.1,1264,1752.4,1263.1z"/>
<path class="st1" d="M1713.4,1333.6c-1.2,1.4-2.5,2.8-3.8,4.2C1710.9,1336.5,1712.2,1335,1713.4,1333.6z"/>
<path class="st1" d="M1706.8,1340.8c-1.3,1.3-2.6,2.6-3.9,3.9C1704.2,1343.4,1705.5,1342.1,1706.8,1340.8z"/>
<path class="st1" d="M1639.8,1385.4c-1.8,0.7-3.6,1.4-5.4,2C1636.2,1386.8,1638,1386.1,1639.8,1385.4z"/>
<path class="st1" d="M1756.7,1245.3c-0.2,1.2-0.5,2.3-0.7,3.5C1756.3,1247.7,1756.5,1246.5,1756.7,1245.3z"/>
<path class="st1" d="M1759.3,1227.4c-0.1,1.2-0.3,2.3-0.4,3.5C1759.1,1229.7,1759.2,1228.6,1759.3,1227.4z"/>
<path class="st1" d="M1754.8,1254.2c-0.3,1.1-0.5,2.2-0.8,3.3C1754.2,1256.4,1754.5,1255.3,1754.8,1254.2z"/>
<path class="st1" d="M1760,1218.3c0,1-0.1,2-0.2,3C1759.8,1220.3,1759.9,1219.3,1760,1218.3z"/>
<path class="st1" d="M1758.2,1236.4c-0.2,1.2-0.4,2.4-0.6,3.6C1757.9,1238.8,1758.1,1237.6,1758.2,1236.4z"/>
<path class="st1" d="M1748.8,1274c0.1-0.2,0.2-0.5,0.3-0.8C1749,1273.5,1748.9,1273.8,1748.8,1274
	C1748.8,1274,1748.8,1274,1748.8,1274z"/>
<path class="st1" d="M1677.4,1365.6c-2,1.3-3.9,2.6-6,3.9C1673.5,1368.2,1675.5,1366.9,1677.4,1365.6z"/>
<path class="st1" d="M1534.6,1394.7c-1.3-0.2-2.5-0.5-3.7-0.8C1532.1,1394.2,1533.4,1394.5,1534.6,1394.7z"/>
<path class="st1" d="M1543.5,1396.3c-1.2-0.2-2.5-0.4-3.7-0.6C1541.1,1395.9,1542.3,1396.1,1543.5,1396.3z"/>
<path class="st1" d="M1552.6,1397.4c-1.2-0.1-2.4-0.3-3.5-0.4C1550.2,1397.1,1551.4,1397.3,1552.6,1397.4z"/>
<path class="st1" d="M1561.8,1398.1c-1,0-2-0.1-3-0.2C1559.8,1397.9,1560.8,1398,1561.8,1398.1z"/>
<path class="st1" d="M1517.1,1390.4c-1.2-0.4-2.4-0.7-3.6-1.1C1514.7,1389.7,1515.9,1390.1,1517.1,1390.4z"/>
<path class="st0" d="M1527.8,1527.5c3.1-11.1,12.3-19.3,23.4-20v-71.8c-16.2-1.4-31.9-4.5-47-9.1v117.1
	C1512.2,1538.4,1520,1533.1,1527.8,1527.5z"/>
<path class="st1" d="M1525.8,1392.8c-1.2-0.3-2.5-0.6-3.7-0.9C1523.3,1392.2,1524.6,1392.5,1525.8,1392.8z"/>
<path class="st1" d="M1508.5,1387.7c-1.1-0.4-2.3-0.8-3.4-1.2C1506.3,1386.9,1507.4,1387.3,1508.5,1387.7z"/>
<path class="st1" d="M1581.3,1398c-3.4,0.2-6.8,0.3-10.3,0.3C1574.5,1398.3,1577.9,1398.2,1581.3,1398z"/>
<path class="st1" d="M1630.4,1388.7c-1.8,0.6-3.6,1.2-5.4,1.7C1626.8,1389.9,1628.6,1389.3,1630.4,1388.7z"/>
<path class="st1" d="M1591.5,1397.2c-2.2,0.2-4.5,0.4-6.8,0.6C1587,1397.6,1589.2,1397.4,1591.5,1397.2z"/>
<path class="st1" d="M1620.9,1391.6c-1.8,0.5-3.7,1-5.5,1.4C1617.3,1392.6,1619.1,1392.1,1620.9,1391.6z"/>
<path class="st1" d="M1611.3,1394c-1.9,0.4-3.8,0.8-5.7,1.1C1607.5,1394.7,1609.4,1394.4,1611.3,1394z"/>
<path class="st1" d="M1601.4,1395.8c-2,0.3-4,0.6-6,0.8C1597.4,1396.4,1599.5,1396.2,1601.4,1395.8z"/>
<path class="st2" d="M390.7,1889.8l223.3,0.1h65.5c-0.1,0-0.2-0.1-0.2-0.1h-200h-22.7h-8.6c-10.1,0-18.4-8.2-18.4-18.4v-17.3v-7.6
	v-8.7v-47v-198.2c0-8.9,6.3-16.3,14.7-18c-7.1-3.1-15.6-6.2-26.7-6.5c-23.1-0.7-48.9,10.5-64,30.6c-20.9,27.9-13.5,62.6-12,69.4
	c8.8,41,41.3,59.6,34,71.9c-6.3,10.6-30.7-3.4-54,12.1c-17.4,11.5-22.4,31.5-24.1,38c-7.3,28.8,5.9,52.3,9,57.6
	c-3.8-4.1-21.7-22.6-49-22.7c-7.1,0-31.4-0.1-41.9,17.8c-8.5,14.6-4.8,35.9,10,51.7h14.9l38.4-1.2L390.7,1889.8z"/>
<path class="st2" d="M619.3,1574.2v-334.5c-23.8,10.8-43.6,30.8-56.4,53.9c-14.8,26.6-21.3,57-23.9,87.5c-0.3,3.6-0.6,7.2-0.8,10.7
	c-2.7,45.9,1.9,92.1,13.6,136.5c-18.1-7.4-39.6-3.3-55.2,8c-14.1,10.2-11.7,27.7-18.3,37.9h1H619.3z"/>
<path class="st2" d="M1620,1659.8c1.4-11.9,2.6-23.7,3.5-35.6c1.7-20.7,2-43.5-6.7-61.6c1.4,29.6,2.3,59.3,3,88.9
	C1619.9,1654.3,1619.9,1657.1,1620,1659.8z"/>
<path class="st2" d="M1621.7,1796.6l0,29l-0.1,14.5l0,7.3l0,3.6c0,0.6,0,1.3-0.1,1.9l-0.1,2l-0.1,2c-0.1,0.7-0.2,1.3-0.3,1.9
	c-0.2,1.3-0.4,2.6-0.7,3.9l-1,3.8c-0.3,1.3-0.9,2.5-1.3,3.7c-0.2,0.6-0.5,1.2-0.7,1.8l-0.9,1.7l-0.9,1.7l-0.4,0.9l-0.5,0.8l-2.1,3.3
	l-2.4,3.1c-1.8,2.2-3.9,4.3-6,6.2h126.7c39.7,1.3,79.4,2.5,119.1,3.8c-0.3-11.8-7.4-23.2-18-28.4c-11.4-5.6-24.8-3.2-34.9,3.7
	c4.7-15.1,7.5-39.1-5.3-50.9c-9.6-8.9-25.6-9.7-36.1-2c37.3-28.3,47-86.9,20.9-125.8c-6.1-9.1-14.3-17.4-24.8-20.7
	c-17-5.3-35.8,4.1-46.7,18.1c-10.9,14-15.7,31.8-20,49c1.6-13.3,1.6-26.8-0.1-40c-2.4-19.4-12.4-41.9-31.8-43.9
	c-15-1.6-26.3,9.8-32.6,24.2c0.6,30.2,1.1,60.4,1.3,90.6L1621.7,1796.6z"/>
<path class="st2" d="M1531.6,1879.6c-2.7-4.2-4.7-8.7-6.1-13.4c-1.2-4.8-1.8-9.7-1.6-14.5l2.6-302.6c-1.6,1.3-3.2,2.7-4.7,4.2
	c-6.5,6.6-12.8,16-17.7,26.6v219.6c0,40.7-24.9,75.6-60.3,90.3h63.4h33.3C1537.1,1886.8,1534.1,1883.4,1531.6,1879.6z"/>
<path class="st3" d="M1473.9,1371.4c-2.3-1.4-4.5-2.8-6.7-4.2C1469.4,1368.7,1471.7,1370.1,1473.9,1371.4z"/>
<path class="st3" d="M1465.6,1366.1c-2.7-1.8-5.4-3.8-8.1-5.7C1460.1,1362.4,1462.8,1364.3,1465.6,1366.1z"/>
<path class="st3" d="M1455.4,1358.7c-1.9-1.5-3.8-3-5.6-4.5C1451.6,1355.8,1453.5,1357.3,1455.4,1358.7z"/>
<path class="st3" d="M1447,1351.9c-1.6-1.4-3.1-2.8-4.7-4.2C1443.9,1349.1,1445.5,1350.5,1447,1351.9z"/>
<path class="st3" d="M652.9,506.6c0-51.5,40.3-93.3,90.1-93.3h27.2H1351c49.8,0,90.1,41.8,90.1,93.3v515.9
	c10.6-7.4,21.8-13.9,33.6-19.4v-527c0-54-43.8-97.8-97.8-97.8H746.6h-29.5c-54,0-97.8,43.8-97.8,97.8v763.5v334.5h33.6V506.6z"/>
<path class="st3" d="M1474.7,1799.5v-384.4c-11.8-5.5-23-12-33.6-19.4V1769c0,51.5-40.3,93.3-90.1,93.3H920.4v9.1
	c0,10.2-8.2,18.4-18.4,18.4h-6.6H708.6h-29.2c0.1,0,0.2,0.1,0.2,0.1h381.1h353.8C1449.8,1875.1,1474.7,1840.2,1474.7,1799.5z"/>
<path class="st4" d="M1351,413.4H770.2H743c-49.8,0-90.1,41.8-90.1,93.3v1067.6h55.7h186.8h6.6c10.1,0,18.4,8.2,18.4,18.4v89.6
	c18.8,0.2,37.6,0.4,56.4,0.5l0,0l0,2.8c51,0.4,102,0.6,153,0.6c53.5,0,106.9-0.2,160.4-0.6l0,0l0,1.8c-53.5,0.4-106.9,0.6-160.4,0.6
	c-51,0-102-0.2-153.1-0.6l0,2.8c-18.8-0.1-37.6-0.3-56.4-0.5v172.7H1351c49.8,0,90.1-41.8,90.1-93.3v-373.2
	c-6.8-4.8-13.4-9.9-19.7-15.4v10.9H699.3v-813h722.2v459.6c6.3-5.5,12.8-10.6,19.7-15.4V506.6C1441.1,455.1,1400.8,413.4,1351,413.4
	z M734.4,507.6c-22.4,0-40.5-18.1-40.5-40.5c0-22.4,18.1-40.5,40.5-40.5c22.4,0,40.5,18.1,40.5,40.5
	C774.9,489.4,756.8,507.6,734.4,507.6z"/>
<path class="st4" d="M1101.8,1556.6v-28.9c0-26.8-21.7-48.6-48.5-48.7c-26.8,0.1-48.5,21.9-48.5,48.7v28.9h12.4H1101.8z"/>
<path class="st5" d="M1440.1,1345.5c-3.1-3-6.2-6.1-9.1-9.3C1433.9,1339.4,1436.9,1342.5,1440.1,1345.5z"/>
<path class="st5" d="M1430.6,1335.8c-2.8-3.1-5.5-6.4-8.2-9.7C1425.1,1329.4,1427.8,1332.7,1430.6,1335.8z"/>
<path class="st6" d="M1391.1,1267.4c-0.3-0.9-0.6-1.7-0.8-2.6C1390.5,1265.6,1390.8,1266.5,1391.1,1267.4z"/>
<path class="st6" d="M1397.4,1284c-0.4-1-0.8-2-1.2-2.9C1396.5,1282.1,1396.9,1283.1,1397.4,1284z"/>
<path class="st6" d="M1410.4,1308.9c-0.5-0.7-0.9-1.5-1.4-2.2C1409.5,1307.5,1409.9,1308.2,1410.4,1308.9z"/>
<path class="st6" d="M1394.1,1276c-0.4-1-0.8-2-1.1-3C1393.3,1274,1393.7,1275,1394.1,1276z"/>
<path class="st6" d="M1387.9,1256.5c0-0.1-0.1-0.3-0.1-0.4C1387.8,1256.2,1387.9,1256.3,1387.9,1256.5z"/>
<path class="st6" d="M1383.1,1230.4c-0.1-1.1-0.2-2.2-0.3-3.3C1382.9,1228.2,1383,1229.3,1383.1,1230.4z"/>
<path class="st6" d="M1420.4,1323.4c-0.6-0.8-1.3-1.7-1.9-2.5C1419.1,1321.7,1419.7,1322.6,1420.4,1323.4z"/>
<path class="st6" d="M1404.8,1299.4c-0.1-0.2-0.2-0.4-0.3-0.6C1404.6,1298.9,1404.7,1299.2,1404.8,1299.4z"/>
<path class="st6" d="M1384.3,1239.3c-0.2-1.1-0.3-2.2-0.5-3.2C1384,1237.2,1384.2,1238.2,1384.3,1239.3z"/>
<path class="st7" d="M699.3,578.3v813h722.2v-10.9c-47.7-41.7-77.8-102.9-77.8-171.2c0-68.3,30.2-129.5,77.8-171.2V578.3H699.3z
	 M794.4,1168.2c-3,0-6-1.3-8-3.8c-3.6-4.4-2.9-10.9,1.6-14.5l16.8-13.5c27.9-22.5,47.3-53.8,54.6-88.2l0.2-0.9
	c6-29,5.2-48.1,4.3-68.3c-0.7-17.2-1.5-34.9,1.9-59.1c0.8-6,9.6-60.3,57.7-110.4c48.9-51,106.2-53.1,127.7-53.9
	c5.7-0.2,10.5,4.2,10.7,9.9c0.2,5.7-4.2,10.5-9.9,10.7c-19.3,0.7-70.5,2.6-113.6,47.5c-43.5,45.3-51.4,93.6-52.1,98.9
	c-3.1,22.3-2.4,38.3-1.7,55.3c0.9,20.6,1.8,41.8-4.7,73.4l-0.2,0.9c-8.2,39-30.2,74.6-61.8,100l-16.8,13.5
	C799,1167.5,796.7,1168.2,794.4,1168.2z M833.8,1240.2c-3,0-6-1.3-8-3.8c-3.6-4.4-2.9-10.9,1.5-14.5c62-50.6,99.1-105.7,110.3-163.8
	c4.6-23.9,4.2-44.4,3.8-64.2c-0.6-31.6-1.2-61.5,19.9-95.1c23.4-37.3,70-74.5,117.3-68.1c28.9,3.9,56.6,24,76.1,55
	c20.2,32.3,30,73.7,27.5,116.7c-0.3,5.7-5.2,10-10.9,9.7c-5.7-0.3-10-5.2-9.7-10.9c4.9-84.8-40.7-144-85.8-150.1
	c-36.5-5-76.4,25.7-97,58.6c-17.8,28.4-17.3,52.9-16.7,83.8c0.4,19.9,0.8,42.5-4.2,68.5c-12.1,63-51.6,122.2-117.5,175.9
	C838.4,1239.5,836.1,1240.2,833.8,1240.2z M866.8,1278.2c-3.1,0-6.1-1.4-8.2-4c-3.5-4.5-2.7-11,1.8-14.5
	c15.1-11.7,29.1-24.8,41.7-39c13.8-15.5,26-32.5,36.4-50.4c2.9-4.9,9.2-6.6,14.1-3.8c4.9,2.9,6.6,9.2,3.8,14.1
	c-11.1,19.2-24.2,37.3-38.9,53.8c-13.5,15.2-28.5,29.2-44.5,41.7C871.2,1277.5,869,1278.2,866.8,1278.2z M910.8,1300.8
	c-1.9,1.6-4.3,2.4-6.6,2.4c-3,0-5.9-1.3-7.9-3.7c-3.6-4.4-3.1-10.9,1.3-14.5c0.3-0.3,31.6-26.9,63.4-81.9
	c29.4-50.7,65.2-136.8,69.5-258.4c0.2-5.7,5-10.1,10.7-10c5.7,0.2,10.1,5,9.9,10.7c-4.4,126.5-42,216.1-72.8,269
	C944.6,1272.2,912.2,1299.7,910.8,1300.8z M1005.8,1274.2c-6.4,8.1-11.5,16.1-16.8,24.6c-5.4,8.6-11.1,17.4-18.1,26.3
	c-2,2.6-5.1,3.9-8.1,3.9c-2.2,0-4.5-0.7-6.4-2.2c-4.5-3.5-5.2-10-1.7-14.5c6.4-8.1,11.5-16.1,16.9-24.6c5.4-8.6,11.1-17.4,18.1-26.3
	c3.5-4.5,10-5.2,14.5-1.7C1008.6,1263.3,1009.4,1269.8,1005.8,1274.2z M1014.2,1238.6c-4.8-3.1-6.1-9.5-3-14.3
	c0.9-1.3,70.7-110,67.9-228.7c-0.1-5.7,4.4-10.4,10.1-10.6c5.7-0.2,10.4,4.4,10.6,10.1c2.9,125.3-68.2,235.8-71.2,240.4
	c-2,3-5.3,4.7-8.6,4.7C1017.9,1240.2,1016,1239.7,1014.2,1238.6z M1032.7,1311.6c-1.9,0-3.7-0.5-5.4-1.5c-4.8-3-6.3-9.4-3.3-14.2
	c41.5-66.8,92.1-168.7,97.9-274.2c1.9-34.4,5-92-28.8-117c-0.6-0.5-1.3-0.9-1.9-1.4c-12.7-8.6-29.4-10.6-44.7-5.3
	c-13.2,4.5-23.6,11.3-31.1,20.3c-14.4,17.3-14.7,39.5-15.1,65.1c-0.1,4.8-0.1,9.8-0.3,14.9c-1.5,45.4-10.7,92-27.3,138.6
	c-1.9,5.4-7.8,8.2-13.2,6.2c-5.4-1.9-8.2-7.8-6.2-13.2c15.9-44.5,24.7-89,26.1-132.3c0.2-4.9,0.2-9.8,0.3-14.5
	c0.4-28.3,0.8-55.1,19.9-78c9.9-11.9,23.5-20.9,40.3-26.6c21.4-7.3,44.9-4.4,62.9,7.8c0.9,0.6,1.8,1.2,2.6,1.8
	c42.8,31.6,39.1,98.7,37.1,134.7c-6,109.9-58.2,215.1-101,284C1039.5,1309.9,1036.1,1311.6,1032.7,1311.6z M1074.4,1321.4
	c-2.4,0-4.8-0.8-6.7-2.5c-4.3-3.7-4.8-10.2-1.1-14.5c76.6-89.6,94.6-261.3,94.8-263c0.6-5.7,5.6-9.8,11.3-9.2
	c5.7,0.6,9.8,5.6,9.2,11.3c-0.7,7.3-18.9,179.9-99.7,274.4C1080.2,1320.2,1077.3,1321.4,1074.4,1321.4z M1153.8,1265.2
	c-1.7,0-3.3-0.4-4.9-1.2c-5-2.7-6.9-9-4.2-14c23.9-44.3,40.1-91.5,47.9-140.2l0.5-3c8.6-53,31.3-193.8-56.3-269
	c-26.5-22.7-58.6-30.1-95.6-21.9c-51.7,11.5-93.8,50.3-110,101.2c-3.2,9.9-5.2,20-6.2,30c-1.9,20.2-11.6,121.1-13.2,129h0l-0.1,0.7
	c-0.2,1-0.4,1.9-1.3,4.8c-12.1,40.3-35.8,75.6-68.7,102.1l-8.7,7c-4.4,3.6-10.9,2.9-14.5-1.6c-3.6-4.4-2.9-10.9,1.6-14.5l8.7-7
	c29.6-23.8,51-55.6,61.8-91.9c0.7-2.3,0.8-2.7,0.8-3l0.1-0.6l0,0c1.1-5.9,8.5-80.9,12.9-126.8c1.1-11.4,3.5-23,7.1-34.3
	c18.4-58,66.4-102.1,125.2-115.1c43-9.5,82.2-0.4,113.5,26.4c96.4,82.7,72.3,231.8,63.3,287.9l-0.5,2.9
	c-8.2,51.1-25.1,100.4-50.1,146.8C1161,1263.2,1157.5,1265.2,1153.8,1265.2z M1084.6,763.1c1.6-5.5,7.4-8.6,12.8-6.9
	c7.7,2.3,46.7,14.4,58.2,24.4c4.3,3.8,4.7,10.3,1,14.6c-2,2.3-4.9,3.5-7.8,3.5c-2.4,0-4.8-0.8-6.8-2.6c-6-5.2-33.1-14.9-50.5-20.2
	C1086.1,774.3,1083,768.5,1084.6,763.1z M1194.8,1245c-1.7,0-3.3-0.4-4.9-1.2c-5-2.7-6.9-9-4.2-14c23.9-44.3,40.1-91.5,47.9-140.2
	c8.5-52.7,31-192.7-56.1-272.2c-4.2-3.8-4.5-10.4-0.7-14.6c3.8-4.2,10.4-4.5,14.6-0.7c41,37.4,64.6,90.9,70.3,159
	c4.6,54.6-3.5,104.7-7.8,131.6c-8.2,51-25.1,100.4-50.1,146.8C1202,1243,1198.5,1245,1194.8,1245z M1218.3,1279.7
	c-1.7,0-3.3-0.4-4.9-1.2c-5-2.7-6.9-9-4.2-14c27.5-50.9,46-105.1,55-161.1c9.7-60.6,35.6-221.4-64.7-313
	c-25.1-22.9-70.4-51.7-144-58.7h-1.5c-24.6,0.5-88.1,7.1-141,58.5c-40,38.8-57.8,89.9-61.1,124.8c-3.2,33.7-2.8,55.4-2.8,55.6
	c0.2,70.6-4,87.1-4.5,88.7c-8.2,27.7-27.8,52.5-58.3,73.7c-4.7,3.3-11.1,2.1-14.4-2.6c-3.3-4.7-2.1-11.1,2.6-14.4
	c26.5-18.4,43.4-39.4,50.2-62.5c0.3-1.3,3.9-17.6,3.7-82.8c0,0-0.5-22.2,2.9-57.8c3.7-38.5,23.3-94.9,67.3-137.6
	c58.2-56.5,127.9-63.8,155.2-64.3h2.1l1,0c62.9,5.9,117,28.1,156.4,64.1c46.6,42.6,73.6,103.5,80.1,181.1
	c5.2,62.4-4,119.6-8.9,150.4c-9.4,58.3-28.6,114.7-57.2,167.6C1225.6,1277.7,1222,1279.7,1218.3,1279.7z M1322.3,1152.3
	c-10,75.5-42.2,121.2-43.6,123.1c-2,2.8-5.2,4.3-8.4,4.3c-2.1,0-4.2-0.6-6-1.9c-4.6-3.3-5.7-9.7-2.4-14.4
	c0.4-0.6,30.6-43.8,39.9-113.8c0.8-5.6,5.9-9.6,11.6-8.9C1319.1,1141.5,1323,1146.7,1322.3,1152.3z M1323.3,1104.8l-0.5,0
	c-5.5,0-10-4.3-10.3-9.8l-7.8-155.5l0-0.5c0-130.8-112.9-241.3-246.6-241.3h-2.3c-29.9,0.6-106.7,8.6-170.8,70.8
	c-48.4,47-70,108.9-74,151.1c-3.9,40.5-3.4,66.7-3.4,67c0.1,5.2,0.3,9.9,0.5,14.3c0.6,16.5,1.1,29.5-3.6,45.9
	c-4.9,16.6-13.7,32-26.4,45.8c-3.8,4.2-10.4,4.5-14.6,0.6c-4.2-3.9-4.5-10.4-0.6-14.6c10.5-11.5,17.9-24.2,21.8-37.7
	c3.8-13.1,3.4-23.5,2.8-39.3c-0.2-4.5-0.4-9.3-0.5-14.7c0-1.1-0.5-27.7,3.5-69.4c4.4-45.9,27.7-113,80.2-163.9
	c69.3-67.4,152.4-76,184.9-76.6h2.5c70.2,0,136.9,27.2,187.8,76.6c51.2,49.7,79.4,115.5,79.5,185.1l7.8,155.2
	C1333.3,1099.7,1328.9,1104.5,1323.3,1104.8z M1368.3,1051.7c0,5.7-4.6,10.3-10.3,10.3c-5.7,0-10.3-4.6-10.3-10.3v-96.4
	c0-159.6-129.8-289.4-289.4-289.4h-2.8c-159.6,0-289.4,129.8-289.4,289.4v96.4c0,5.7-4.6,10.3-10.3,10.3c-5.7,0-10.3-4.6-10.3-10.3
	v-96.4c0-171,139.1-310,310-310h2.8c171,0,310,139.1,310,310V1051.7z"/>
<path class="st6" d="M1415.3,1316.4c-0.6-0.9-1.2-1.7-1.8-2.6C1414.1,1314.7,1414.7,1315.6,1415.3,1316.4z"/>
<path class="st6" d="M1382.3,1221.1c-0.1-1-0.1-1.9-0.2-2.9C1382.2,1219.1,1382.3,1220.1,1382.3,1221.1z"/>
<path class="st6" d="M1385.9,1248c-0.2-0.9-0.4-1.9-0.5-2.8C1385.6,1246.1,1385.7,1247.1,1385.9,1248z"/>
<path class="st6" d="M1400.9,1291.8c-0.4-0.8-0.8-1.7-1.2-2.6C1400.1,1290.1,1400.5,1291,1400.9,1291.8z"/>
<path class="st8" d="M1129.8,1687.9c53.5,0,106.9-0.2,160.4-0.6l0-1.8l0,0c-53.5,0.4-106.9,0.6-160.4,0.6c-51,0-102-0.2-153-0.6
	l0,1.8C1027.8,1687.7,1078.8,1687.9,1129.8,1687.9z"/>
<path class="st8" d="M920.4,1689.6c18.8,0.2,37.6,0.4,56.4,0.5l0-2.8l0-1.8l0-2.8l0,0c-18.8-0.1-37.6-0.3-56.4-0.5V1689.6z"/>
<path class="st8" d="M1058.3,645.3h-2.8c-171,0-310,139.1-310,310v96.4c0,5.7,4.6,10.3,10.3,10.3c5.7,0,10.3-4.6,10.3-10.3v-96.4
	c0-159.6,129.8-289.4,289.4-289.4h2.8c159.6,0,289.4,129.8,289.4,289.4v96.4c0,5.7,4.6,10.3,10.3,10.3c5.7,0,10.3-4.6,10.3-10.3
	v-96.4C1368.3,784.4,1229.2,645.3,1058.3,645.3z"/>
<path class="st8" d="M1245.8,753.7c-50.8-49.4-117.5-76.6-187.8-76.6h-2.5c-32.5,0.6-115.6,9.3-184.9,76.6
	c-52.4,50.9-75.8,118.1-80.2,163.9c-4,41.7-3.5,68.3-3.5,69.4c0.1,5.4,0.3,10.2,0.5,14.7c0.6,15.8,1,26.2-2.8,39.3
	c-4,13.5-11.3,26.2-21.8,37.7c-3.8,4.2-3.6,10.7,0.6,14.6c4.2,3.8,10.7,3.6,14.6-0.6c12.7-13.8,21.6-29.3,26.4-45.8
	c4.8-16.3,4.3-29.4,3.6-45.9c-0.2-4.4-0.3-9.1-0.5-14.3c0-0.3-0.5-26.5,3.4-67c4-42.2,25.6-104.1,74-151.1
	c64.1-62.2,140.9-70.2,170.8-70.8h2.3c133.7,0,246.6,110.5,246.6,241.3l0,0.5l7.8,155.5c0.3,5.5,4.8,9.8,10.3,9.8l0.5,0
	c5.7-0.3,10.1-5.1,9.8-10.8l-7.8-155.2C1325.2,869.1,1297,803.4,1245.8,753.7z"/>
<path class="st8" d="M1293.6,956.3c-6.5-77.6-33.5-138.6-80.1-181.1c-39.4-36-93.5-58.1-156.4-64.1l-1,0h-2.1
	c-27.3,0.5-97,7.8-155.2,64.3c-44,42.7-63.6,99.1-67.3,137.6c-3.4,35.6-2.9,57.8-2.9,57.8c0.2,65.2-3.4,81.5-3.7,82.8
	c-6.8,23-23.7,44.1-50.2,62.5c-4.7,3.3-5.8,9.7-2.6,14.4c3.2,4.7,9.7,5.8,14.4,2.6c30.5-21.2,50.1-46,58.3-73.7
	c0.5-1.6,4.7-18.1,4.5-88.7c0-0.2-0.4-21.9,2.8-55.6c3.3-34.9,21.1-86,61.1-124.8c52.9-51.4,116.4-58,141-58.5h1.5
	c73.5,7,118.9,35.8,144,58.7c100.3,91.6,74.4,252.5,64.7,313c-9,56-27.5,110.2-55,161.1c-2.7,5-0.8,11.3,4.2,14
	c1.6,0.8,3.2,1.2,4.9,1.2c3.7,0,7.2-2,9.1-5.4c28.6-52.9,47.9-109.3,57.2-167.6C1289.6,1075.9,1298.8,1018.7,1293.6,956.3z"/>
<path class="st8" d="M1261.8,961.1c-5.7-68.1-29.4-121.6-70.3-159c-4.2-3.8-10.7-3.5-14.6,0.7c-3.8,4.2-3.5,10.7,0.7,14.6
	c87.1,79.5,64.6,219.5,56.1,272.2c-7.8,48.8-24,95.9-47.9,140.2c-2.7,5-0.8,11.3,4.2,14c1.6,0.8,3.2,1.2,4.9,1.2
	c3.7,0,7.2-2,9.1-5.4c25.1-46.3,41.9-95.7,50.1-146.8C1258.3,1065.9,1266.4,1015.8,1261.8,961.1z"/>
<path class="st8" d="M879.5,1052.4l0.2-0.9c6.5-31.5,5.6-52.8,4.7-73.4c-0.7-17-1.4-33,1.7-55.3c0.8-5.3,8.6-53.6,52.1-98.9
	c43.2-44.9,94.3-46.8,113.6-47.5c5.7-0.2,10.1-5,9.9-10.7c-0.2-5.7-5-10.1-10.7-9.9c-21.5,0.8-78.8,2.9-127.7,53.9
	c-48,50-56.8,104.3-57.7,110.4c-3.4,24.1-2.6,41.9-1.9,59.1c0.9,20.2,1.7,39.3-4.3,68.3l-0.2,0.9c-7.3,34.4-26.6,65.7-54.6,88.2
	l-16.8,13.5c-4.4,3.6-5.1,10.1-1.6,14.5c2,2.5,5,3.8,8,3.8c2.3,0,4.6-0.7,6.5-2.3l16.8-13.5C849.3,1127,871.3,1091.5,879.5,1052.4z"
	/>
<path class="st8" d="M1213.5,1110.1c9.1-56.1,33.1-205.2-63.3-287.9c-31.2-26.8-70.5-35.9-113.5-26.4
	c-58.8,13-106.8,57.2-125.2,115.1c-3.6,11.3-6,22.9-7.1,34.3c-4.4,45.9-11.8,120.9-12.9,126.8l0,0l-0.1,0.6c-0.1,0.3-0.1,0.7-0.8,3
	c-10.9,36.3-32.2,68.1-61.8,91.9l-8.7,7c-4.4,3.6-5.1,10.1-1.6,14.5c3.6,4.4,10.1,5.1,14.5,1.6l8.7-7
	c32.8-26.5,56.6-61.7,68.7-102.1c0.9-2.9,1.1-3.8,1.3-4.8l0.1-0.7h0c1.6-7.8,11.3-108.8,13.2-129c1-10,3-20.1,6.2-30
	c16.2-51,58.4-89.8,110-101.2c36.9-8.2,69.1-0.8,95.6,21.9c87.6,75.2,64.9,216,56.3,269l-0.5,3c-7.8,48.8-24,95.9-47.9,140.2
	c-2.7,5-0.8,11.3,4.2,14c1.6,0.8,3.2,1.2,4.9,1.2c3.7,0,7.2-2,9.1-5.4c25.1-46.3,41.9-95.7,50.1-146.8L1213.5,1110.1z"/>
<path class="st8" d="M957.8,1062c5-26,4.6-48.6,4.2-68.5c-0.6-30.9-1-55.4,16.7-83.8c20.6-32.9,60.5-63.6,97-58.6
	c45.1,6.1,90.7,65.3,85.8,150.1c-0.3,5.7,4,10.6,9.7,10.9c5.7,0.3,10.6-4,10.9-9.7c2.5-43-7.3-84.5-27.5-116.7
	c-19.5-31-47.2-51.1-76.1-55c-47.2-6.4-93.9,30.8-117.3,68.1c-21.1,33.6-20.5,63.5-19.9,95.1c0.4,19.8,0.8,40.3-3.8,64.2
	c-11.1,58.1-48.2,113.2-110.3,163.8c-4.4,3.6-5.1,10.1-1.5,14.5c2,2.5,5,3.8,8,3.8c2.3,0,4.6-0.8,6.5-2.3
	C906.2,1184.2,945.7,1125,957.8,1062z"/>
<path class="st8" d="M1172.7,1032.2c-5.7-0.6-10.7,3.6-11.3,9.2c-0.2,1.7-18.2,173.4-94.8,263c-3.7,4.3-3.2,10.8,1.1,14.5
	c1.9,1.7,4.3,2.5,6.7,2.5c2.9,0,5.8-1.2,7.8-3.6c80.8-94.5,98.9-267.1,99.7-274.4C1182.5,1037.8,1178.3,1032.7,1172.7,1032.2z"/>
<path class="st8" d="M917.6,1234.3c14.7-16.5,27.8-34.6,38.9-53.8c2.9-4.9,1.2-11.2-3.8-14.1c-4.9-2.9-11.2-1.2-14.1,3.8
	c-10.4,18-22.7,34.9-36.4,50.4c-12.6,14.2-26.7,27.4-41.7,39c-4.5,3.5-5.3,10-1.8,14.5c2,2.6,5.1,4,8.2,4c2.2,0,4.4-0.7,6.3-2.2
	C889.2,1263.5,904.2,1249.5,917.6,1234.3z"/>
<path class="st8" d="M1105.3,888c-0.9-0.6-1.7-1.3-2.6-1.8c-18-12.2-41.6-15.1-62.9-7.8c-16.8,5.7-30.4,14.7-40.3,26.6
	c-19.1,22.9-19.5,49.7-19.9,78c-0.1,4.8-0.1,9.6-0.3,14.5c-1.5,43.3-10.2,87.8-26.1,132.3c-1.9,5.4,0.9,11.3,6.2,13.2
	c5.4,1.9,11.3-0.9,13.2-6.2c16.6-46.5,25.8-93.2,27.3-138.6c0.2-5.1,0.2-10.1,0.3-14.9c0.4-25.7,0.7-47.8,15.1-65.1
	c7.5-9,17.9-15.8,31.1-20.3c15.3-5.2,32-3.2,44.7,5.3c0.6,0.4,1.3,0.9,1.9,1.4c33.8,24.9,30.7,82.6,28.8,117
	c-5.8,105.5-56.4,207.4-97.9,274.2c-3,4.8-1.5,11.2,3.3,14.2c1.7,1,3.6,1.5,5.4,1.5c3.4,0,6.8-1.7,8.8-4.9
	c42.7-68.9,95-174.1,101-284C1144.4,986.7,1148.1,919.6,1105.3,888z"/>
<path class="st8" d="M1051,945.4c0.2-5.7-4.3-10.5-9.9-10.7c-5.7-0.2-10.5,4.3-10.7,10c-4.2,121.7-40.1,207.7-69.5,258.4
	c-31.8,55-63.1,81.6-63.4,81.9c-4.4,3.7-4.9,10.2-1.3,14.5c2,2.4,5,3.7,7.9,3.7c2.3,0,4.7-0.8,6.6-2.4c1.4-1.1,33.8-28.6,67.4-86.4
	C1009,1161.5,1046.6,1071.9,1051,945.4z"/>
<path class="st8" d="M1028.5,1235.6c3-4.6,74.2-115.1,71.2-240.4c-0.1-5.7-4.8-10.3-10.6-10.1c-5.7,0.1-10.2,4.9-10.1,10.6
	c2.8,118.7-67,227.3-67.9,228.7c-3.1,4.8-1.8,11.2,3,14.3c1.7,1.1,3.7,1.7,5.6,1.7C1023.2,1240.2,1026.5,1238.6,1028.5,1235.6z"/>
<path class="st8" d="M1313.4,1140.7c-5.6-0.8-10.8,3.2-11.6,8.9c-9.3,70-39.5,113.2-39.9,113.8c-3.3,4.6-2.2,11.1,2.4,14.4
	c1.8,1.3,3.9,1.9,6,1.9c3.2,0,6.4-1.5,8.4-4.3c1.4-1.9,33.5-47.6,43.6-123.1C1323,1146.7,1319.1,1141.5,1313.4,1140.7z"/>
<path class="st8" d="M1142.1,796.1c2,1.7,4.4,2.6,6.8,2.6c2.9,0,5.7-1.2,7.8-3.5c3.8-4.3,3.3-10.8-1-14.6
	c-11.4-10-50.5-22.1-58.2-24.4c-5.5-1.6-11.2,1.5-12.8,6.9c-1.6,5.5,1.5,11.2,6.9,12.8C1108.9,781.1,1136.1,790.9,1142.1,796.1z"/>
<path class="st8" d="M1004.1,1259.7c-4.5-3.5-11-2.8-14.5,1.7c-7,8.9-12.6,17.8-18.1,26.3c-5.4,8.5-10.5,16.5-16.9,24.6
	c-3.5,4.5-2.8,11,1.7,14.5c1.9,1.5,4.1,2.2,6.4,2.2c3,0,6.1-1.3,8.1-3.9c7-8.9,12.7-17.8,18.1-26.3c5.4-8.5,10.5-16.5,16.8-24.6
	C1009.4,1269.8,1008.6,1263.3,1004.1,1259.7z"/>
<path class="st9" d="M734.4,426.5c-22.4,0-40.5,18.1-40.5,40.5c0,22.4,18.1,40.5,40.5,40.5c22.4,0,40.5-18.1,40.5-40.5
	C774.9,444.6,756.8,426.5,734.4,426.5z M734.4,495.7c-15.8,0-28.7-12.8-28.7-28.7c0-15.8,12.8-28.7,28.7-28.7
	c15.8,0,28.7,12.8,28.7,28.7C763,482.9,750.2,495.7,734.4,495.7z"/>
<path class="st3" d="M734.4,438.4c-15.8,0-28.7,12.8-28.7,28.7c0,15.8,12.8,28.7,28.7,28.7c15.8,0,28.7-12.8,28.7-28.7
	C763,451.2,750.2,438.4,734.4,438.4z"/>
<path class="st10" d="M1565.8,1507.4h10.7v-71c-1.8,0-3.6,0.1-5.4,0.1c-1.8,0-3.5-0.1-5.3-0.1V1507.4z"/>
<path class="st10" d="M1552.7,1507.4h5.2v-71.2c-2.3-0.1-4.5-0.3-6.8-0.5v71.8C1551.7,1507.5,1552.2,1507.4,1552.7,1507.4z"/>
<path class="st11" d="M1576.5,1436.5v71h12.9c1.4,0,2.8,0.2,4.2,0.4v-33.2v-39.1C1587.9,1436,1582.2,1436.3,1576.5,1436.5z"/>
<path class="st12" d="M1557.9,1507.4h7.9v-71c-2.6-0.1-5.3-0.1-7.9-0.3V1507.4z"/>
<path class="st3" d="M1571.1,981.7c-23.3,0-45.7,3.5-66.9,10c-10.2,3.1-20,7-29.5,11.4c-11.8,5.5-23,12-33.6,19.4
	c-6.8,4.8-13.4,9.9-19.7,15.4c-47.7,41.7-77.8,102.9-77.8,171.2c0,68.3,30.2,129.5,77.8,171.2c6.3,5.5,12.8,10.6,19.7,15.4
	c10.6,7.4,21.8,13.9,33.6,19.4c9.5,4.5,19.3,8.3,29.5,11.4c15,4.6,30.8,7.7,47,9.1c2.3,0.2,4.5,0.4,6.8,0.5c2.6,0.1,5.2,0.2,7.9,0.3
	c1.8,0,3.5,0.1,5.3,0.1c1.8,0,3.6-0.1,5.4-0.1c5.7-0.1,11.4-0.4,17-1c17.3-1.7,34-5.4,49.9-10.7c90.1-30.2,155-115.3,155-215.6
	c0-14.7-1.4-29-4.1-42.9C1774.4,1061.2,1682,981.7,1571.1,981.7z M1760.2,1209.2c0,3.1-0.1,6.1-0.2,9.2c0,1-0.1,2-0.2,3
	c-0.1,2-0.3,4.1-0.5,6.1c-0.1,1.2-0.3,2.3-0.4,3.5c-0.2,1.9-0.4,3.7-0.7,5.5c-0.2,1.2-0.4,2.4-0.6,3.6c-0.3,1.8-0.6,3.6-1,5.3
	c-0.2,1.2-0.5,2.3-0.7,3.5c-0.4,1.8-0.8,3.6-1.2,5.3c-0.3,1.1-0.5,2.2-0.8,3.3c-0.5,1.9-1,3.7-1.6,5.6c-0.3,1-0.5,1.9-0.9,2.9
	c-0.8,2.5-1.6,4.9-2.5,7.3c-0.1,0.2-0.2,0.5-0.3,0.8c0,0.1-0.1,0.2-0.1,0.3c0,0,0,0,0,0.1c-1,2.7-2.1,5.5-3.2,8.1
	c-0.4,0.9-0.8,1.8-1.2,2.7c-0.8,1.8-1.6,3.6-2.4,5.4c-0.5,1.1-1.1,2.1-1.6,3.2c-0.8,1.5-1.5,3.1-2.4,4.6c-0.6,1.1-1.2,2.2-1.8,3.3
	c-0.8,1.4-1.6,2.9-2.5,4.3c-0.7,1.1-1.3,2.2-2,3.3c-0.9,1.4-1.7,2.8-2.6,4.1c-0.7,1.1-1.5,2.2-2.2,3.2c-0.9,1.3-1.9,2.7-2.8,4
	c-0.8,1-1.5,2.1-2.3,3.1c-1,1.3-2,2.6-3,3.9c-0.8,1-1.6,2-2.4,2.9c-0.3,0.4-0.6,0.8-1,1.2c-0.6,0.7-1.2,1.3-1.8,2
	c-1.2,1.4-2.5,2.8-3.8,4.2c-0.9,1-1.9,2-2.8,2.9c-1.3,1.3-2.6,2.6-3.9,3.9c-1,1-2,1.9-3,2.8c-1.4,1.3-2.7,2.5-4.1,3.7
	c-1,0.9-2,1.8-3.1,2.7c-1.4,1.2-2.9,2.4-4.4,3.6c-1,0.8-2.1,1.6-3.1,2.4c-1.6,1.2-3.2,2.4-4.9,3.5c-1,0.7-2,1.4-3,2.1
	c-2,1.3-3.9,2.6-6,3.9c-0.7,0.4-1.4,0.9-2.1,1.4c-2.7,1.7-5.5,3.3-8.3,4.8c-0.8,0.4-1.5,0.8-2.3,1.2c-2.1,1.1-4.2,2.2-6.3,3.2
	c-1.1,0.5-2.2,1-3.3,1.5c-1.8,0.8-3.7,1.7-5.5,2.4c-1.2,0.5-2.5,1-3.8,1.5c-1.8,0.7-3.6,1.4-5.4,2c-1.3,0.5-2.6,0.9-4,1.3
	c-1.8,0.6-3.6,1.2-5.4,1.7c-1.4,0.4-2.7,0.8-4.1,1.2c-1.8,0.5-3.7,1-5.5,1.4c-1.4,0.3-2.8,0.7-4.2,1c-1.9,0.4-3.8,0.8-5.7,1.1
	c-1.4,0.3-2.8,0.5-4.1,0.7c-2,0.3-4,0.6-6,0.8c-1.3,0.2-2.6,0.4-4,0.5c-2.2,0.2-4.5,0.4-6.8,0.6c-1.1,0.1-2.2,0.2-3.4,0.3
	c-3.4,0.2-6.8,0.3-10.3,0.3c-3.1,0-6.2-0.1-9.3-0.2c-1,0-2-0.1-3-0.2c-2.1-0.1-4.1-0.3-6.1-0.5c-1.2-0.1-2.4-0.3-3.5-0.4
	c-1.8-0.2-3.7-0.4-5.5-0.7c-1.2-0.2-2.5-0.4-3.7-0.6c-1.7-0.3-3.5-0.6-5.2-0.9c-1.3-0.2-2.5-0.5-3.7-0.8c-1.7-0.4-3.4-0.8-5.1-1.2
	c-1.2-0.3-2.5-0.6-3.7-0.9c-1.7-0.4-3.3-0.9-5-1.4c-1.2-0.4-2.4-0.7-3.6-1.1c-1.7-0.5-3.3-1.1-5-1.7c-1.1-0.4-2.3-0.8-3.4-1.2
	c-0.3-0.1-0.7-0.2-1-0.3c-1.5-0.6-3-1.2-4.4-1.8c-0.9-0.4-1.8-0.7-2.7-1.1c-2.6-1.1-5.2-2.3-7.8-3.5c-0.1-0.1-0.3-0.1-0.4-0.2
	c-2.5-1.2-5-2.5-7.5-3.8c-0.9-0.5-1.7-1-2.5-1.4c-1.4-0.8-2.8-1.5-4.1-2.3c-0.3-0.2-0.5-0.3-0.8-0.5c-2.3-1.4-4.5-2.8-6.7-4.2
	c-0.5-0.4-1.1-0.7-1.7-1.1c-2.7-1.8-5.4-3.8-8.1-5.7c-0.7-0.5-1.4-1.1-2.1-1.7c-1.9-1.5-3.8-3-5.6-4.5c-0.9-0.8-1.8-1.6-2.8-2.4
	c-1.6-1.4-3.1-2.8-4.7-4.2c-0.4-0.4-0.8-0.7-1.2-1.1c-0.4-0.3-0.7-0.7-1.1-1.1c-3.1-3-6.2-6.1-9.1-9.3c-0.1-0.1-0.2-0.2-0.3-0.4
	c-2.8-3.1-5.5-6.4-8.2-9.7c-0.3-0.4-0.7-0.8-1-1.2c-0.4-0.5-0.7-1-1.1-1.5c-0.6-0.8-1.3-1.7-1.9-2.5c-1.1-1.5-2.1-2.9-3.1-4.4
	c-0.6-0.9-1.2-1.7-1.8-2.6c-1.1-1.6-2.1-3.3-3.2-4.9c-0.5-0.7-0.9-1.5-1.4-2.2c-1.5-2.4-2.9-4.9-4.2-7.3c-0.1-0.2-0.2-0.4-0.3-0.6
	c-1.2-2.3-2.4-4.6-3.5-6.9c-0.4-0.8-0.8-1.7-1.2-2.6c-0.8-1.7-1.6-3.5-2.4-5.2c-0.4-1-0.8-2-1.2-2.9c-0.7-1.7-1.4-3.4-2-5.1
	c-0.4-1-0.8-2-1.1-3c-0.7-1.8-1.3-3.7-1.9-5.6c-0.3-0.9-0.6-1.7-0.8-2.6c-0.8-2.7-1.6-5.5-2.4-8.3c0-0.1-0.1-0.3-0.1-0.4
	c-0.7-2.7-1.3-5.4-1.9-8.1c-0.2-0.9-0.4-1.9-0.5-2.8c-0.4-1.9-0.7-3.9-1-5.9c-0.2-1.1-0.3-2.2-0.5-3.2c-0.3-1.9-0.5-3.8-0.7-5.7
	c-0.1-1.1-0.2-2.2-0.3-3.3c-0.2-2-0.3-4-0.5-6.1c-0.1-1-0.1-1.9-0.2-2.9c-0.1-3-0.2-6-0.2-9c-1.5-24.8,2.5-50,11.3-73.7
	c8.9-23.6,22.6-45.5,40.3-63.8c17.6-18.5,39.2-33.1,62.7-43.2c23.6-10,49.2-15.1,74.9-15.3c25.6,0.2,51.3,5.3,74.9,15.3
	c23.5,10.1,45.1,24.8,62.7,43.2c17.7,18.3,31.4,40.3,40.3,63.9C1757.7,1159.1,1761.7,1184.4,1760.2,1209.2z"/>
<path class="st13" d="M1576.5,1507.4h-10.7h-7.9h-5.2c-0.5,0-1,0.1-1.5,0.1c-11.1,0.7-20.3,8.9-23.4,20c-0.7,2.5-1.1,5.2-1.1,7.9
	l-0.1,13.6l-2.6,302.6c0.4,4.8,1.3,9.6,3,14.1c1.7,4.4,4.1,8.6,6.9,12.4c3.6,4.7,8.1,8.6,13.1,11.7h45.6c0.7-0.4,1.4-0.8,2.1-1.3
	c3.6-2.7,6.8-5.9,9.5-9.5l1.9-2.7l1.7-2.9l0.4-0.7l0.3-0.8l0.7-1.5l0.7-1.5c0.2-0.5,0.4-1,0.5-1.6c0.3-1.1,0.8-2.1,1-3.2l0.8-3.2
	c0.2-1.1,0.3-2.2,0.5-3.3c0.1-0.5,0.2-1.1,0.2-1.6l0.1-1.6l0.1-1.7c0-0.6,0.1-1.1,0-1.7l-0.1-3.6l-0.1-7.2l-0.3-14.5l-0.4-29
	l-0.2-29c-0.2-38.7-0.1-77.4,0.4-116c0.5-38.7,1.3-77.4,3-116.1c-0.1-14-9.5-25.5-21.9-27.7c-1.4-0.2-2.7-0.4-4.2-0.4H1576.5z"/>
<path class="st14" d="M1612.4,1651.6c-0.5,38.7-0.6,77.4-0.4,116l0.2,29l0.4,29l0.3,14.5l0.1,7.2l0.1,3.6c0,0.6,0,1.2,0,1.7
	l-0.1,1.7l-0.1,1.6c-0.1,0.6-0.2,1.1-0.2,1.6c-0.2,1.1-0.3,2.2-0.5,3.3l-0.8,3.2c-0.3,1.1-0.7,2.1-1,3.2c-0.2,0.5-0.3,1.1-0.5,1.6
	l-0.7,1.5l-0.7,1.5l-0.3,0.8l-0.4,0.7l-1.7,2.9l-1.9,2.7c-2.7,3.6-5.9,6.8-9.5,9.5c-0.7,0.5-1.4,0.9-2.1,1.3h11.5
	c2.1-1.9,4.2-4,6-6.2l2.4-3.1l2.1-3.3l0.5-0.8l0.4-0.9l0.9-1.7l0.9-1.7c0.3-0.6,0.5-1.2,0.7-1.8c0.4-1.2,1-2.4,1.3-3.7l1-3.8
	c0.3-1.3,0.5-2.6,0.7-3.9c0.1-0.6,0.2-1.3,0.3-1.9l0.1-2l0.1-2c0-0.7,0.1-1.3,0.1-1.9l0-3.6l0-7.3l0.1-14.5l0-29l-0.1-29
	c-0.2-30.2-0.6-60.4-1.3-90.6c-0.1-5.7-0.2-11.5-0.3-17.2c-0.1-2.8-0.1-5.5-0.2-8.3c-0.7-29.7-1.6-59.3-3-88.9
	c-0.4-9-0.9-18.1-1.4-27.1C1613.7,1574.2,1612.9,1612.9,1612.4,1651.6z"/>
<path class="st15" d="M1533.8,1878.1c-2.8-3.8-5.2-7.9-6.9-12.4c-1.6-4.5-2.6-9.2-3-14.1c-0.2,4.8,0.4,9.7,1.6,14.5
	c1.4,4.7,3.5,9.2,6.1,13.4c2.5,3.8,5.5,7.2,8.9,10.2h6.3C1541.9,1886.7,1537.4,1882.8,1533.8,1878.1z"/>
<path class="st0" d="M1715.2,1331.7c0.3-0.4,0.6-0.8,1-1.2c0.8-1,1.6-2,2.4-2.9c1-1.3,2-2.6,3-3.9c0.8-1,1.5-2.1,2.3-3.1
	c1-1.3,1.9-2.6,2.8-4c0.7-1.1,1.5-2.1,2.2-3.2c0.9-1.4,1.8-2.7,2.6-4.1c0.7-1.1,1.4-2.2,2-3.3c0.9-1.4,1.7-2.9,2.5-4.3
	c0.6-1.1,1.2-2.2,1.8-3.3c0.8-1.5,1.6-3.1,2.4-4.6c0.5-1.1,1.1-2.1,1.6-3.2c0.8-1.8,1.6-3.6,2.4-5.4c0.4-0.9,0.8-1.8,1.2-2.7
	c1.1-2.7,2.2-5.4,3.2-8.1C1738.4,1294,1727.2,1313.1,1715.2,1331.7z"/>
<path class="st0" d="M1572,1026.9c-0.3,0-0.6,0-0.9,0c-0.3,0-0.6,0-1,0c-22.5,0-44.9,4.3-65.9,12.4v346.9c0.3,0.1,0.7,0.2,1,0.3
	c1.1,0.4,2.2,0.8,3.4,1.2c1.7,0.6,3.3,1.2,5,1.7c1.2,0.4,2.4,0.7,3.6,1.1c1.7,0.5,3.3,1,5,1.4c1.2,0.3,2.5,0.6,3.7,0.9
	c1.7,0.4,3.4,0.8,5.1,1.2c1.2,0.3,2.5,0.5,3.7,0.8c1.7,0.3,3.5,0.6,5.2,0.9c1.2,0.2,2.5,0.4,3.7,0.6c1.8,0.3,3.7,0.5,5.5,0.7
	c1.2,0.1,2.4,0.3,3.5,0.4c2,0.2,4.1,0.3,6.1,0.5c1,0.1,2,0.2,3,0.2c3.1,0.1,6.2,0.2,9.3,0.2c3.4,0,6.9-0.1,10.3-0.3
	c1.1-0.1,2.2-0.2,3.4-0.3c2.3-0.2,4.5-0.3,6.8-0.6c1.3-0.1,2.6-0.3,4-0.5c2-0.3,4-0.5,6-0.8c1.4-0.2,2.8-0.5,4.1-0.7
	c1.9-0.4,3.8-0.7,5.7-1.1c1.4-0.3,2.8-0.6,4.2-1c1.8-0.4,3.7-0.9,5.5-1.4c1.4-0.4,2.7-0.8,4.1-1.2c1.8-0.5,3.6-1.1,5.4-1.7
	c1.3-0.4,2.7-0.9,4-1.3c1.8-0.6,3.6-1.3,5.4-2c1.3-0.5,2.5-1,3.8-1.5c1.9-0.8,3.7-1.6,5.5-2.4c1.1-0.5,2.2-1,3.3-1.5
	c2.1-1,4.2-2.1,6.3-3.2c0.8-0.4,1.5-0.8,2.3-1.2c2.8-1.5,5.6-3.1,8.3-4.8c0.7-0.4,1.4-0.9,2.1-1.4c2-1.3,4-2.5,6-3.9
	c1-0.7,2-1.4,3-2.1c1.6-1.2,3.3-2.3,4.9-3.5c1-0.8,2.1-1.6,3.1-2.4c1.5-1.2,3-2.4,4.4-3.6c1-0.9,2.1-1.8,3.1-2.7
	c1.4-1.2,2.8-2.5,4.1-3.7c1-0.9,2-1.9,3-2.8c1.3-1.3,2.6-2.6,3.9-3.9c0.9-1,1.9-2,2.8-2.9c1.3-1.4,2.5-2.8,3.8-4.2
	c0.6-0.7,1.2-1.3,1.8-2c12-18.5,23.2-37.7,33.5-57.3c0,0,0,0,0-0.1c0-0.1,0.1-0.2,0.1-0.2c0.1-0.3,0.2-0.5,0.3-0.8
	c0.9-2.4,1.7-4.8,2.5-7.3c0.3-1,0.6-1.9,0.9-2.9c0.6-1.9,1.1-3.7,1.6-5.6c0.3-1.1,0.6-2.2,0.8-3.3c0.4-1.8,0.8-3.5,1.2-5.3
	c0.3-1.2,0.5-2.3,0.7-3.5c0.3-1.8,0.7-3.6,1-5.3c0.2-1.2,0.4-2.4,0.6-3.6c0.3-1.8,0.5-3.7,0.7-5.5c0.1-1.2,0.3-2.3,0.4-3.5
	c0.2-2,0.3-4.1,0.5-6.1c0.1-1,0.1-2,0.2-3c0.1-3,0.2-6.1,0.2-9.2c-2.8-49.6-24.3-96.7-59.2-130
	C1666.5,1046,1619.5,1026.9,1572,1026.9z"/>
<path class="st16" d="M1504.2,1039.2c-10.2,3.9-20.1,8.7-29.5,14.3v318.4c1.4,0.8,2.8,1.6,4.1,2.3c0.8,0.5,1.7,1,2.5,1.4
	c2.5,1.3,5,2.6,7.5,3.8c0.1,0.1,0.3,0.1,0.4,0.2c2.6,1.2,5.2,2.4,7.8,3.5c0.9,0.4,1.8,0.7,2.7,1.1c1.5,0.6,2.9,1.2,4.4,1.8V1039.2z"
	/>
<path class="st17" d="M1474.7,1053.6c-12.1,7.2-23.4,15.8-33.6,25.6v267.4c0.4,0.4,0.8,0.7,1.2,1.1c1.5,1.4,3.1,2.8,4.7,4.2
	c0.9,0.8,1.8,1.6,2.8,2.4c1.8,1.5,3.7,3,5.6,4.5c0.7,0.5,1.4,1.1,2.1,1.7c2.6,2,5.3,3.9,8.1,5.7c0.5,0.4,1.1,0.7,1.7,1.1
	c2.2,1.5,4.4,2.9,6.7,4.2c0.3,0.2,0.5,0.3,0.8,0.5V1053.6z"/>
<path class="st4" d="M1441.1,1079.2C1441.1,1079.2,1441.1,1079.2,1441.1,1079.2c-7.1,6.8-13.7,14.2-19.7,22v223.7
	c0.3,0.4,0.7,0.8,1,1.2c2.6,3.3,5.3,6.6,8.2,9.7c0.1,0.1,0.2,0.2,0.3,0.4c2.9,3.2,6,6.3,9.1,9.3c0.4,0.4,0.7,0.7,1.1,1.1V1079.2z"/>
<path class="st7" d="M1421.5,1101.2c-23.3,30.6-37.4,68.5-39.5,108c0,3,0.1,6,0.2,9c0,1,0.1,1.9,0.2,2.9c0.1,2,0.3,4.1,0.5,6.1
	c0.1,1.1,0.2,2.2,0.3,3.3c0.2,1.9,0.5,3.8,0.7,5.7c0.2,1.1,0.3,2.2,0.5,3.2c0.3,2,0.7,3.9,1,5.9c0.2,0.9,0.3,1.9,0.5,2.8
	c0.6,2.7,1.2,5.4,1.9,8.1c0,0.1,0.1,0.3,0.1,0.4c0.7,2.8,1.5,5.6,2.4,8.3c0.3,0.9,0.6,1.7,0.8,2.6c0.6,1.9,1.2,3.7,1.9,5.6
	c0.4,1,0.7,2,1.1,3c0.7,1.7,1.3,3.4,2,5.1c0.4,1,0.8,2,1.2,2.9c0.8,1.8,1.6,3.5,2.4,5.2c0.4,0.9,0.8,1.7,1.2,2.6
	c1.1,2.3,2.3,4.6,3.5,6.9c0.1,0.2,0.2,0.4,0.3,0.6c1.3,2.5,2.8,4.9,4.2,7.3c0.5,0.8,0.9,1.5,1.4,2.2c1,1.7,2.1,3.3,3.2,4.9
	c0.6,0.9,1.2,1.7,1.8,2.6c1,1.5,2.1,3,3.1,4.4c0.6,0.9,1.2,1.7,1.9,2.5c0.4,0.5,0.7,1,1.1,1.5V1101.2z"/>
<path class="st14" d="M1571.1,1020c-104.5,0-189.1,84.7-189.1,189.1c2.2-39.5,16.3-77.4,39.5-108c6-7.8,12.5-15.2,19.6-22
	c0,0,0,0,0,0c10.2-9.8,21.5-18.4,33.6-25.6c9.4-5.6,19.3-10.4,29.5-14.3c21-8.1,43.4-12.4,65.9-12.4c0.3,0,0.6,0,1,0
	c0.3,0,0.6,0,0.9,0c47.5,0,94.6,19.1,129.1,52.3c34.9,33.3,56.4,80.4,59.2,130C1760.2,1104.7,1675.5,1020,1571.1,1020z"/>
<path class="st3" d="M1730.6,1889.8h-126.7h-11.5h-45.6h-6.3h-33.3h-63.4h-29.5h-353.8H679.6H614l-223.3-0.1l-111.7,3.6l-38.4,1.2
	l-17.5,0.6l-55.8,2.2l55.8,2.2l55.8,1.8l111.7,3.6l223.3-0.1h446.6h446.6h223.3c74.4-2.5,148.9-4.4,223.3-7.5
	c-34.7-1.4-69.5-2.6-104.2-3.7C1810,1892.4,1770.3,1891.2,1730.6,1889.8z"/>
<path class="st16" d="M1406.4,378.3h-29.5c54,0,97.8,43.8,97.8,97.8v527c9.5-4.5,19.3-8.3,29.5-11.4V476.1
	C1504.2,422.1,1460.4,378.3,1406.4,378.3z"/>
<path class="st16" d="M1474.7,1799.5c0,40.7-24.9,75.6-60.3,90.3h29.5c35.4-14.7,60.3-49.6,60.3-90.3v-219.6v-36.3v-117.1
	c-10.2-3.1-20-7-29.5-11.4V1799.5z"/>
<path class="st14" d="M1748.9,1135.5c-8.9-23.6-22.6-45.5-40.3-63.9c-17.6-18.5-39.2-33.1-62.7-43.2c-23.6-10-49.2-15.1-74.9-15.3
	c-25.6,0.2-51.3,5.2-74.9,15.3c-23.5,10.1-45.1,24.8-62.7,43.2c-17.7,18.3-31.4,40.3-40.3,63.8c-8.8,23.6-12.8,48.9-11.3,73.7
	c0-104.5,84.7-189.1,189.1-189.1c104.5,0,189.1,84.7,189.1,189.1C1761.7,1184.4,1757.7,1159.1,1748.9,1135.5z"/>
<g>
	<path class="st18" d="M1122.9,1614.7H981.3c-13.7,0-24.7-11.1-24.7-24.7v-100.3c0-13.7,11.1-24.7,24.7-24.7h158.2
		c13.7,0,24.7,11.1,24.7,24.7v93.7L1122.9,1614.7z"/>
	<g class="st19">
		<path class="st20" d="M1064.6,1464.9h-83.3c-13.7,0-24.7,11.1-24.7,24.7v82.2l0.9-47.1L1064.6,1464.9z"/>
		<path class="st21" d="M1164.2,1489.7c0-13.7-11.1-24.7-24.7-24.7h-74.9l-107.1,59.8l-0.9,47.1v18.1c0,9.4,5.3,17.6,13.1,21.8
			l194.6-108.7V1489.7z"/>
		
			<linearGradient id="SVGID_1_" gradientUnits="userSpaceOnUse" x1="1198.3137" y1="1072.1176" x2="1484.7905" y2="989.122" gradientTransform="matrix(1 0 0 1 -260.0235 556.3566)">
			<stop  offset="0" style="stop-color:#F7B261"/>
			<stop  offset="0.244" style="stop-color:#F9CD63"/>
			<stop  offset="0.5006" style="stop-color:#FBE164"/>
			<stop  offset="0.7543" style="stop-color:#FCEE65"/>
			<stop  offset="1" style="stop-color:#FCF265"/>
		</linearGradient>
		<polygon class="st22" points="1091.8,1614.7 1164.2,1574.3 1164.2,1573.9 1164.2,1532.3 1016.6,1614.7 		"/>
		<polygon class="st23" points="1091.8,1614.7 1164.2,1574.3 1164.2,1573.9 1164.2,1532.3 1016.6,1614.7 		"/>
	</g>
	<g>
		<defs>
			<path id="SVGID_9_" d="M1122.3,1615.6H985.4c0,0-29.8-11.1-29.8-24.7v-102.2c0-13.7,11.1-24.7,24.7-24.7h155.3
				c13.7,0,29.5,11.1,29.5,24.7v93.9L1122.3,1615.6z"/>
		</defs>
		<clipPath id="SVGID_2_">
			<use xlink:href="#SVGID_9_"  style="overflow:visible;"/>
		</clipPath>
		<path id="XMLID_5_" class="st24" d="M704.7,1708.3c-11.5-20.9,133.5-122.9,323.8-228c190.3-105,353.9-173.3,365.4-152.5
			c11.5,20.9-133.5,122.9-323.8,228C879.8,1660.9,716.2,1729.2,704.7,1708.3z"/>
		<path id="XMLID_4_" class="st25" d="M841.4,1732.3c-5.9-10.8,109.5-85.9,258-167.8c148.4-81.9,273.5-139.6,279.5-128.9
			c5.9,10.8-109.6,85.9-258,167.8C972.5,1685.4,847.4,1743.1,841.4,1732.3z"/>
	</g>
	<g>
		<path class="st26" d="M1133.8,1465.5h-150c-12.6,0-22,6.2-26.3,15.1l-1.4,6c1.7-10.8,13.4-19.3,27.7-19.3h69.2v7.2
			c-0.3,0-0.5,0.1-0.8,0.2c-1,0.2-2,0.4-3,0.6c-0.5,0.1-1,0.3-1.5,0.4c-0.9,0.3-1.8,0.6-2.7,0.9c-0.4,0.1-0.8,0.3-1.1,0.4
			c-1.2,0.5-2.3,1-3.4,1.6c-0.4,0.2-0.9,0.5-1.3,0.7c-0.7,0.4-1.4,0.8-2,1.3c-0.4,0.2-0.7,0.4-1.1,0.7c-0.7,0.5-1.5,1.1-2.1,1.6
			l-0.3,0.3c-0.6,0.5-1.3,1.1-2,1.8l-0.2,0.2c-0.6,0.6-1.2,1.2-1.7,1.9l-0.2,0.3c-1.2,1.5-2.3,3-3.2,4.6c-0.1,0.2-0.2,0.4-0.3,0.7
			l-0.2,0.4c-0.2,0.5-0.5,0.9-0.7,1.4c-0.1,0.3-0.3,0.6-0.4,0.9l-0.2,0.6h-68.3v1.8h67.6c-0.1,0.3-0.1,0.5-0.2,0.8
			c-0.3,0.9-0.5,1.8-0.6,2.8c-0.1,0.4-0.1,0.8-0.2,1.2c-0.2,1.2-0.3,2.4-0.3,3.7c0,0,0,0,0,0v0c0,0,0,0,0,0c0,6.5,2.2,12.7,6.4,18
			c0.5,0.6,0.9,1.3,1.3,2h-74v1.8h75.1c0.5,1,1,2,1.3,3.1c0.1,0.3,0.2,0.6,0.3,0.9c0.3,0.9,0.5,1.8,0.7,2.8c0.1,0.3,0.1,0.7,0.2,1
			c0.2,1.2,0.3,2.5,0.3,3.7v4.6c0,1.3-0.1,2.6-0.3,3.9c-0.1,0.5-0.2,0.9-0.3,1.4c-0.2,0.8-0.3,1.6-0.6,2.3c-0.2,0.5-0.4,1-0.6,1.5
			c-0.3,0.7-0.5,1.3-0.9,2c-0.2,0.5-0.5,1-0.8,1.5c-0.2,0.3-0.3,0.5-0.5,0.8h-74v1.8h72.8c0,0-0.1,0.1-0.1,0.1
			c-4.2,5.3-6.4,11.6-6.4,18.1c0,0,0,0,0,0c0,0,0,0,0,0c0,1.2,0.1,2.3,0.2,3.5c0,0.2,0.1,0.3,0.1,0.5c0.2,1.1,0.4,2.2,0.7,3.2
			c0,0.1,0,0.1,0,0.2h-67.3v1.8h67.8c0.1,0.3,0.3,0.6,0.4,0.9c0.3,0.7,0.5,1.3,0.8,2c0.2,0.5,0.5,1,0.7,1.5c0.5,0.9,1,1.8,1.6,2.6
			c0.3,0.5,0.7,1,1.1,1.5c0.4,0.5,0.8,1,1.2,1.5c0.4,0.4,0.8,0.9,1.2,1.3c0.8,0.8,1.5,1.6,2.4,2.3c0.3,0.2,0.5,0.4,0.8,0.7
			c0.8,0.6,1.6,1.2,2.4,1.8c0.3,0.2,0.6,0.4,0.9,0.6c2.3,1.5,4.8,2.7,7.4,3.7c0.1,0,0.2,0.1,0.4,0.1c2.5,0.9,5.1,1.6,7.9,2v5.7h1.8
			v-7.3l-0.2,0l-1.3-0.2c-0.2,0-0.4-0.1-0.6-0.1l-0.3,0c-0.7-0.1-1.4-0.2-2-0.4l0,0c-0.2-0.1-0.5-0.1-0.7-0.2
			c-2.9-0.7-5.6-1.7-8.1-2.9c-0.2-0.1-0.3-0.2-0.5-0.3c-1-0.5-1.9-1.1-2.9-1.7c-0.3-0.2-0.5-0.3-0.8-0.5c-1-0.7-1.9-1.4-2.8-2.1
			c-0.4-0.3-0.7-0.6-1-0.9c-0.5-0.5-1-1-1.5-1.5c-0.4-0.4-0.8-0.8-1.1-1.2c-0.5-0.6-0.9-1.2-1.4-1.8c-0.5-0.6-0.9-1.3-1.3-2
			c-0.3-0.5-0.6-1-0.9-1.6c-0.3-0.5-0.5-1-0.7-1.5c-0.4-0.8-0.7-1.7-1-2.6l-0.1-0.5c-0.4-1.3-0.7-2.5-0.9-3.8c0-0.2-0.1-0.3-0.1-0.5
			c-0.2-1.3-0.3-2.5-0.3-3.7c0-6.1,2.1-11.9,6-16.9c0.1-0.1,0.2-0.3,0.3-0.5c0.2-0.3,0.4-0.6,0.6-0.8h0l0.3-0.4
			c0.1-0.1,0.1-0.2,0.1-0.3l0.8-1.2h-0.1c0.2-0.4,0.5-0.8,0.7-1.3c0.3-0.7,0.6-1.4,0.9-2.1c0.2-0.6,0.5-1.1,0.7-1.7
			c0.3-0.8,0.4-1.6,0.6-2.5c0.1-0.5,0.3-1,0.3-1.6c0.2-1.4,0.3-2.8,0.3-4.2v-4.6c0-1.3-0.1-2.7-0.3-4c-0.1-0.5-0.2-0.9-0.3-1.4
			c-0.2-0.8-0.4-1.7-0.6-2.5c-0.1-0.5-0.3-1-0.5-1.4c-0.3-0.7-0.6-1.5-0.9-2.2h0.1l-0.7-1.3c0,0,0,0,0,0l0-0.1c0,0,0-0.1-0.1-0.1
			l-0.2-0.4h0c-0.6-1.1-1.3-2.2-2.1-3.2c-3.9-5-6-10.8-6-16.9c0,0,0,0,0,0c0-1.3,0.1-2.7,0.4-4c0.1-0.3,0.1-0.6,0.2-0.9
			c0.2-1.2,0.5-2.4,0.9-3.5c2.2-6.3,6.7-11.8,12.7-15.7c0.6-0.4,1.2-0.8,1.9-1.1c0.5-0.3,1-0.6,1.5-0.8c0.9-0.5,1.9-0.9,2.9-1.3
			c0.5-0.2,1-0.3,1.4-0.5c0.9-0.3,1.8-0.6,2.7-0.8c0.5-0.1,1-0.3,1.5-0.4c1-0.2,2-0.4,3.1-0.6c0.3,0,0.5-0.1,0.8-0.1l0.8-0.1v-8.9
			h7.9v8.8l0.8,0.1c0.1,0,0.1,0,0.2,0c1.3,0.2,2.6,0.4,3.9,0.7c0.4,0.1,0.7,0.2,1.1,0.3c1.2,0.3,2.3,0.6,3.5,1
			c0.1,0.1,0.3,0.1,0.4,0.1c1.3,0.5,2.5,1,3.6,1.6c0.3,0.2,0.6,0.3,0.9,0.5c1,0.5,2,1.1,3,1.8c5.1,3.4,9,7.9,11.3,13.1
			c0,0.1,0.1,0.2,0.1,0.3c0.3,0.6,0.5,1.3,0.7,1.9c0.4,1.2,0.7,2.4,1,3.7c0.1,0.3,0.1,0.6,0.1,0.9c0.2,1.3,0.4,2.7,0.4,4
			c0,0,0,0,0,0c0,6-2.1,11.9-6,16.9c-0.8,1-1.5,2.1-2.1,3.2h0l-0.2,0.4c0,0-0.1,0.1-0.1,0.1l-0.7,1.4h0.1c-0.3,0.7-0.7,1.5-0.9,2.2
			c-0.1,0.4-0.2,0.7-0.4,1.1c-0.3,0.9-0.5,1.9-0.7,2.9c-0.1,0.4-0.1,0.7-0.2,1.1c-0.2,1.3-0.3,2.7-0.3,4v4.9
			c0,5.3,1.5,10.3,4.3,14.6l0.3,0.4h74.8v25.6h-68.9l-0.2,0.6c-3.3,10.3-12.4,18.2-23.9,21c-1.6,0.4-3.4,0.7-5.1,0.9l-0.8,0.1v7.3
			h1.8v-5.6c1.8-0.2,3.5-0.6,5.1-1c11.6-3.1,20.9-11,24.4-21.4h61.1l1.4,0l-35.7,28.1h2.8l39.9-30.7v-94.9
			C1163.6,1476.1,1150.2,1465.5,1133.8,1465.5z M1161.7,1557.5h-73.8c-2.5-3.9-3.8-8.5-3.8-13.2v-4.9c0-1.3,0.1-2.5,0.3-3.7
			c0-0.3,0.1-0.6,0.2-1c0.2-1,0.4-1.9,0.7-2.9c0.1-0.3,0.1-0.5,0.2-0.8c0.4-1,0.8-2,1.3-3h74.8V1557.5z M1161.7,1526.2H1088
			c0.4-0.7,0.8-1.4,1.4-2.1c4.2-5.3,6.4-11.5,6.4-18c0,0,0,0,0,0v0c0,0,0,0,0,0c0-1.3-0.1-2.5-0.3-3.7c0-0.4-0.1-0.7-0.2-1.1
			c-0.2-1-0.4-2-0.7-3c-0.1-0.2-0.1-0.4-0.1-0.6h67.3V1526.2z M1161.7,1495.9h-68c0,0,0,0,0,0l-0.3-0.6c0,0,0,0,0-0.1
			c-0.1-0.1-0.1-0.3-0.2-0.4c-0.1-0.2-0.1-0.3-0.2-0.5c-0.2-0.5-0.5-1-0.8-1.5l-0.2-0.3c-0.1-0.2-0.2-0.4-0.3-0.6
			c-0.5-0.8-1-1.6-1.5-2.3l-0.3-0.4c-0.4-0.6-0.9-1.2-1.4-1.8l-0.5-0.6c-0.5-0.5-1-1.1-1.5-1.6l-0.5-0.5c-0.4-0.4-0.9-0.8-1.4-1.2
			c0,0-0.1-0.1-0.1-0.1c-0.1-0.1-0.1-0.1-0.2-0.2l-0.5-0.4c-0.4-0.3-0.9-0.7-1.4-1c-0.2-0.1-0.3-0.2-0.5-0.3
			c-0.1-0.1-0.2-0.1-0.3-0.2l-0.2-0.2c-0.2-0.1-0.4-0.2-0.6-0.4c-0.9-0.6-1.7-1.1-2.7-1.6c-0.3-0.2-0.6-0.4-1-0.5
			c-1.2-0.6-2.4-1.1-3.6-1.6c-0.3-0.1-0.5-0.2-0.8-0.3c-1.1-0.4-2.1-0.7-3.2-1c-0.4-0.1-0.7-0.2-1.1-0.3c-1.3-0.3-2.7-0.6-4.1-0.8
			v-7.2h69.2c15.4,0,27.9,9.8,27.9,21.9V1495.9z"/>
		<path class="st27" d="M1135.4,1464h-69.2h-1.8h-7.9h-1.8h-69.2c-16.4,0-29.8,10.6-29.8,23.7v6.6v1.8v28.5v1.8v29.4v1.8v25.6v1.8
			v6.6c0,13.1,13.3,23.7,29.8,23.7h69.2h1.8h7.9h1.8h56.1l42.9-33l0,0l0,0v-24.8v-1.8v-29.4v-1.8v-28.5v-1.8v-6.6
			C1165.1,1474.7,1151.8,1464,1135.4,1464z M957.5,1487.7c0-12.1,12.5-21.9,27.9-21.9h69.2v7.2c-0.3,0-0.5,0.1-0.8,0.2
			c-1,0.2-2,0.4-3,0.6c-0.5,0.1-1,0.3-1.5,0.4c-0.9,0.3-1.8,0.6-2.7,0.9c-0.4,0.1-0.8,0.3-1.1,0.4c-1.2,0.5-2.3,1-3.4,1.6
			c-0.4,0.2-0.9,0.5-1.3,0.7c-0.7,0.4-1.4,0.8-2,1.3c-0.4,0.2-0.7,0.4-1.1,0.7c-0.7,0.5-1.5,1.1-2.1,1.6l-0.3,0.3
			c-0.6,0.5-1.3,1.1-2,1.8l-0.2,0.2c-0.6,0.6-1.2,1.2-1.7,1.9l-0.2,0.3c-1.2,1.5-2.3,3-3.2,4.6c-0.1,0.2-0.2,0.4-0.3,0.7l-0.2,0.4
			c-0.2,0.5-0.5,0.9-0.7,1.4c-0.1,0.3-0.3,0.6-0.4,0.9l-0.2,0.6h-68.5V1487.7z M957.5,1496.2h67.8c-0.1,0.3-0.1,0.5-0.2,0.8
			c-0.3,0.9-0.5,1.8-0.6,2.8c-0.1,0.4-0.1,0.8-0.2,1.2c-0.2,1.2-0.3,2.4-0.3,3.7c0,0,0,0,0,0c0,0,0,0,0,0c0,0,0,0,0,0
			c0,6.5,2.2,12.7,6.4,18.1c0.5,0.6,0.9,1.3,1.3,2h-74.2V1496.2z M957.5,1526.6h75.4c0.5,1,1,2,1.3,3.1c0.1,0.3,0.2,0.6,0.3,0.9
			c0.3,0.9,0.5,1.8,0.7,2.8c0.1,0.3,0.1,0.7,0.2,1c0.2,1.2,0.3,2.5,0.3,3.7v4.6c0,1.3-0.1,2.6-0.3,3.9c-0.1,0.5-0.2,0.9-0.3,1.4
			c-0.2,0.8-0.3,1.6-0.6,2.3c-0.2,0.5-0.4,1-0.6,1.5c-0.3,0.7-0.6,1.3-0.9,2c-0.2,0.5-0.5,1-0.8,1.5c-0.2,0.3-0.3,0.5-0.5,0.8h-74.2
			V1526.6z M957.5,1557.9h73c0,0-0.1,0.1-0.1,0.1c-4.2,5.3-6.4,11.6-6.4,18.1c0,0,0,0,0,0c0,0,0,0,0,0c0,1.2,0.1,2.3,0.2,3.5
			c0,0.2,0.1,0.3,0.1,0.5c0.2,1.1,0.4,2.2,0.7,3.2c0,0.1,0,0.1,0,0.2h-67.5V1557.9z M1054.6,1613.8h-69.2
			c-15.4,0-27.9-9.8-27.9-21.9v-6.6h68.1c0.1,0.3,0.3,0.6,0.4,0.9c0.3,0.7,0.5,1.3,0.8,2c0.2,0.5,0.5,1,0.7,1.5
			c0.5,0.9,1,1.8,1.6,2.6c0.3,0.5,0.7,1,1.1,1.5c0.4,0.5,0.8,1,1.2,1.5c0.4,0.4,0.8,0.9,1.2,1.3c0.8,0.8,1.5,1.6,2.4,2.3
			c0.3,0.2,0.6,0.4,0.8,0.7c0.8,0.6,1.6,1.2,2.4,1.8c0.3,0.2,0.6,0.4,0.9,0.6c2.3,1.5,4.8,2.7,7.4,3.7c0.1,0,0.2,0.1,0.4,0.1
			c2.5,0.9,5.1,1.6,7.9,2V1613.8z M1158.1,1585.3l-36.2,28.5h-55.7v-6.1c1.8-0.2,3.5-0.6,5.1-1c11.6-3.1,20.9-11,24.4-21.4h61.1
			L1158.1,1585.3z M1163.3,1583.4h-68.9l0,0l-0.2,0.6c-3.3,10.3-12.4,18.2-23.9,21c-1.7,0.4-3.4,0.7-5.1,0.9l-0.8,0.1v7.7h-7.9v-7.8
			v0l-0.2,0l-1.3-0.2c-0.2,0-0.4-0.1-0.6-0.1l-0.3-0.1c-0.7-0.1-1.4-0.2-2-0.4l0,0c-0.2-0.1-0.5-0.1-0.7-0.2
			c-2.9-0.7-5.6-1.7-8.1-2.9c-0.2-0.1-0.3-0.2-0.5-0.3c-1-0.5-1.9-1.1-2.9-1.7c-0.3-0.2-0.5-0.3-0.8-0.5c-1-0.7-1.9-1.4-2.8-2.1
			c-0.3-0.3-0.7-0.6-1-0.9c-0.5-0.5-1-1-1.5-1.5c-0.4-0.4-0.8-0.8-1.1-1.2c-0.5-0.6-0.9-1.2-1.4-1.8c-0.5-0.6-0.9-1.3-1.3-2
			c-0.3-0.5-0.6-1-0.9-1.6c-0.3-0.5-0.5-1-0.7-1.5c-0.4-0.8-0.7-1.7-1-2.6l-0.1-0.5c-0.4-1.3-0.7-2.5-0.9-3.8c0-0.2-0.1-0.3-0.1-0.5
			c-0.2-1.3-0.3-2.5-0.3-3.8c0-6.1,2.1-11.9,6-16.9c0.1-0.1,0.2-0.3,0.3-0.5c0.2-0.3,0.4-0.6,0.6-0.8h0l0.3-0.4
			c0.1-0.1,0.1-0.2,0.1-0.3l0.8-1.2h-0.1c0.2-0.4,0.5-0.8,0.7-1.3c0.3-0.7,0.6-1.4,0.9-2.1c0.2-0.6,0.5-1.1,0.7-1.7
			c0.3-0.8,0.4-1.6,0.6-2.5c0.1-0.5,0.3-1,0.3-1.6c0.2-1.4,0.3-2.8,0.3-4.2v0v-4.6c0-1.3-0.1-2.7-0.3-4c-0.1-0.5-0.2-0.9-0.3-1.4
			c-0.2-0.8-0.4-1.7-0.6-2.5c-0.1-0.5-0.3-1-0.5-1.4c-0.3-0.7-0.6-1.5-0.9-2.2h0.1l-0.7-1.3c0,0,0,0,0,0l0-0.1c0,0,0-0.1-0.1-0.1
			l-0.2-0.4h0c-0.6-1.1-1.3-2.2-2.1-3.2c-3.9-5-6-10.9-6-16.9c0,0,0,0,0,0c0-1.3,0.1-2.7,0.4-4c0-0.3,0.1-0.6,0.2-0.9
			c0.2-1.2,0.5-2.4,0.9-3.5c2.2-6.3,6.7-11.8,12.7-15.7c0.6-0.4,1.2-0.8,1.9-1.1c0.5-0.3,1-0.6,1.5-0.8c0.9-0.5,1.9-0.9,2.9-1.3
			c0.5-0.2,0.9-0.3,1.4-0.5c0.9-0.3,1.8-0.6,2.7-0.8c0.5-0.1,1-0.3,1.5-0.4c1-0.2,2-0.4,3.1-0.6c0.3,0,0.5-0.1,0.8-0.1l0.8-0.1v0
			v-8.9h7.9v8.8v0l0.8,0.1c0.1,0,0.1,0,0.2,0c1.3,0.2,2.6,0.4,3.9,0.7c0.4,0.1,0.7,0.2,1.1,0.3c1.2,0.3,2.3,0.6,3.5,1
			c0.1,0.1,0.3,0.1,0.4,0.1c1.3,0.5,2.5,1,3.6,1.6c0.3,0.2,0.6,0.3,0.9,0.5c1,0.5,2,1.1,3,1.8c5.1,3.4,9,7.9,11.3,13.1
			c0,0.1,0.1,0.2,0.1,0.3c0.3,0.6,0.5,1.3,0.7,1.9c0.4,1.2,0.7,2.4,1,3.7c0.1,0.3,0.1,0.6,0.1,0.9c0.2,1.3,0.4,2.7,0.4,4
			c0,0,0,0,0,0c0,6-2.1,11.9-6,16.9c-0.8,1-1.5,2.1-2.1,3.2h0l-0.2,0.4c0,0-0.1,0.1-0.1,0.1l-0.7,1.4h0.1c-0.3,0.7-0.7,1.5-0.9,2.2
			c-0.1,0.4-0.2,0.7-0.4,1.1c-0.3,0.9-0.5,1.9-0.7,2.9c-0.1,0.4-0.1,0.7-0.2,1.1c-0.2,1.3-0.3,2.7-0.3,4v4.9v0
			c0,5.3,1.5,10.3,4.3,14.6l0.3,0.4h74.8V1583.4z M1163.3,1556h-73.8c-2.5-3.9-3.8-8.5-3.8-13.2v-4.9c0-1.3,0.1-2.5,0.3-3.7
			c0-0.3,0.1-0.6,0.2-1c0.2-1,0.4-1.9,0.7-2.9c0.1-0.3,0.1-0.5,0.2-0.8c0.4-1,0.8-2,1.3-3h74.8V1556z M1163.3,1524.8h-73.7
			c0.4-0.7,0.8-1.4,1.4-2.1c4.2-5.3,6.4-11.5,6.4-18c0,0,0,0,0,0c0,0,0,0,0,0c0,0,0,0,0,0c0-1.3-0.1-2.5-0.3-3.7
			c0-0.4-0.1-0.7-0.2-1.1c-0.2-1-0.4-2-0.7-3c-0.1-0.2-0.1-0.4-0.1-0.6h67.3V1524.8z M1095.3,1494.4
			C1095.3,1494.4,1095.3,1494.4,1095.3,1494.4l-0.3-0.7c0,0,0,0,0-0.1c-0.1-0.1-0.1-0.3-0.2-0.4c-0.1-0.2-0.1-0.3-0.2-0.5
			c-0.2-0.5-0.5-1-0.8-1.5l-0.2-0.3c-0.1-0.2-0.2-0.4-0.3-0.6c-0.5-0.8-0.9-1.6-1.5-2.3l-0.3-0.4c-0.5-0.6-0.9-1.2-1.4-1.8l-0.5-0.6
			c-0.5-0.5-1-1.1-1.5-1.6l-0.5-0.5c-0.4-0.4-0.9-0.8-1.4-1.2c0,0-0.1-0.1-0.1-0.1c-0.1-0.1-0.1-0.1-0.2-0.2l-0.5-0.4
			c-0.4-0.3-0.9-0.7-1.4-1c-0.2-0.1-0.3-0.2-0.5-0.3c-0.1-0.1-0.2-0.1-0.3-0.2l-0.2-0.2c-0.2-0.1-0.4-0.2-0.6-0.4
			c-0.9-0.6-1.7-1.1-2.7-1.6c-0.3-0.2-0.6-0.4-1-0.5c-1.2-0.6-2.4-1.1-3.6-1.6c-0.3-0.1-0.5-0.2-0.8-0.3c-1.1-0.4-2.1-0.7-3.2-1
			c-0.4-0.1-0.7-0.2-1.1-0.3c-1.3-0.3-2.7-0.6-4.1-0.8v-7.2h69.2c15.4,0,27.9,9.8,27.9,21.9v6.6H1095.3z"/>
	</g>
	<path class="st28" d="M1135.4,1464h-150c-16.4,0-29.8,10.6-29.8,23.7v104.2c0,13.1,13.3,23.7,29.8,23.7h136.9l42.9-33v-94.9
		C1165.1,1474.7,1151.8,1464,1135.4,1464z M1163.3,1583.4l-5.2,1.8l-36.2,28.5h-55.7v-0.3h-1.8v0.3h-7.9v-0.3h-1.8v0.3h-69.2
		c-15.4,0-27.9-9.8-27.9-21.9v-104.2c0-12.1,12.5-21.9,27.9-21.9h27.9v-0.1h102.9v0.1h19.2c15.4,0,27.9,9.8,27.9,21.9V1583.4z"/>
</g>
<g>
	
		<linearGradient id="SVGID_3_" gradientUnits="userSpaceOnUse" x1="833.6922" y1="1962.3318" x2="1848.3911" y2="1175.3987" gradientTransform="matrix(0 1 -1 0 2120.3179 216.589)">
		<stop  offset="0" style="stop-color:#37474F"/>
		<stop  offset="0.1729" style="stop-color:#3F4F57"/>
		<stop  offset="0.4442" style="stop-color:#54656E"/>
		<stop  offset="0.7781" style="stop-color:#768892"/>
		<stop  offset="1" style="stop-color:#90A4AE"/>
	</linearGradient>
	<path class="st29" d="M1001.4,1304.9H168.7c-22.2,0-40.2,18.6-40.2,41.5v509.1c0,22.9,18,41.5,40.2,41.5h832.7
		c22.2,0,40.2-18.6,40.2-41.5v-509.1C1041.6,1323.5,1023.6,1304.9,1001.4,1304.9z M571.5,1577.1v82.6h-17.8v-82.6
		c0-9.8-7.7-17.8-17.2-17.8H378.4v-18.4h158.1C555.8,1540.9,571.5,1557.1,571.5,1577.1z M221,1540.9h141.5v18.4H220.9
		c-9.5,0-17.2,8-17.2,17.8v82.6h-17.8v-82.6C185.9,1557.1,201.6,1540.9,221,1540.9z M185.9,1752.7v-76.6h17.8v76.6
		c0,9.8,7.7,17.8,17.2,17.8h141.5v18.4H221C201.6,1788.9,185.9,1772.6,185.9,1752.7z M564.3,1720.6l-62.1,61.6
		c-4.4,4.3-10.1,6.7-16.2,6.7H378.4v-18.4H486c1.4,0,2.8-0.6,3.8-1.6l62.2-61.6c1.1-1.1,1.7-2.5,1.7-4.1v-27.1h17.8v27.1
		C571.5,1709.7,568.9,1716.1,564.3,1720.6z"/>
	<path class="st30" d="M362.4,1767.3l-138.4-0.1c-9.3,0-17.5-6.3-17.5-15.8l-0.2-76.7c-0.7,0-1.3,0-2,0v76.3
		c0,9.6,7.6,17.4,16.9,17.4h141.3C362.4,1768,362.4,1767.7,362.4,1767.3z"/>
	<path class="st30" d="M485.3,1767.4l-108.2-0.1c0,0.4,0,0.7-0.1,1h108.1l11-10.9L485.3,1767.4z"/>
	<g>
		
			<linearGradient id="SVGID_4_" gradientUnits="userSpaceOnUse" x1="234.9155" y1="1731.0524" x2="503.5097" y2="1653.2377" gradientTransform="matrix(1 0 0 1 -22.5407 -28.9895)">
			<stop  offset="0" style="stop-color:#F7B261"/>
			<stop  offset="0.244" style="stop-color:#F9CD63"/>
			<stop  offset="0.5006" style="stop-color:#FBE164"/>
			<stop  offset="0.7543" style="stop-color:#FCEE65"/>
			<stop  offset="1" style="stop-color:#FCF265"/>
		</linearGradient>
		<path class="st31" d="M413.5,1737.1H266.9c-13.1,0-23.7-10.6-23.7-23.7v-96.9c0-13.1,10.6-23.7,23.7-23.7l146.5,0
			c13.1,0,23.7,10.6,23.7,23.7v96.9C437.1,1726.5,426.5,1737.1,413.5,1737.1z"/>
		<g class="st19">
			
				<linearGradient id="SVGID_5_" gradientUnits="userSpaceOnUse" x1="222.7755" y1="1688.7371" x2="492.0617" y2="1610.7218" gradientTransform="matrix(1 0 0 1 -22.5407 -28.9895)">
				<stop  offset="0" style="stop-color:#F7B261"/>
				<stop  offset="0.244" style="stop-color:#F9CD63"/>
				<stop  offset="0.5006" style="stop-color:#FBE164"/>
				<stop  offset="0.7543" style="stop-color:#FCEE65"/>
				<stop  offset="1" style="stop-color:#FCF265"/>
			</linearGradient>
			<path class="st32" d="M344.1,1592.9h-77.8c-12.7,0-23.1,10.7-23.1,23.8v79.1l0.9-45.3L344.1,1592.9z"/>
			<path class="st21" d="M437.1,1616.7c0-13.1-10.3-23.8-23.1-23.8h-69.9l-100,57.6l-0.9,45.3v17.5c0,9.1,4.9,17,12.2,21
				l181.6-104.6V1616.7z"/>
			
				<linearGradient id="SVGID_6_" gradientUnits="userSpaceOnUse" x1="248.1464" y1="1777.9402" x2="516.7294" y2="1700.1287" gradientTransform="matrix(1 0 0 1 -22.5407 -28.9895)">
				<stop  offset="0" style="stop-color:#F7B261"/>
				<stop  offset="0.244" style="stop-color:#F9CD63"/>
				<stop  offset="0.5006" style="stop-color:#FBE164"/>
				<stop  offset="0.7543" style="stop-color:#FCEE65"/>
				<stop  offset="1" style="stop-color:#FCF265"/>
			</linearGradient>
			<polygon class="st33" points="369.5,1737.1 437.1,1698.2 437.1,1697.9 437.1,1657.8 299.4,1737.1 			"/>
			<polygon class="st21" points="369.5,1737.1 437.1,1698.2 437.1,1697.9 437.1,1657.8 299.4,1737.1 			"/>
		</g>
		<path class="st34" d="M408.7,1593.5h-64.6h-1.7h-7.4h-1.7h-64.6c-15.3,0-27.8,10.2-27.8,22.8v6.4v1.8v27.5v1.8v28.3v1.8v24.6v1.8
			v6.4c0,12.6,12.5,22.8,27.8,22.8h64.6h1.7h7.4h1.7h64.6c15.3,0,27.8-10.2,27.8-22.8v-6.4v-1.8v-24.6v-1.8v-28.3v-1.8v-27.5v-1.8
			v-6.4C436.5,1603.7,424.1,1593.5,408.7,1593.5z M242.7,1616.3c0-11.6,11.7-21.1,26.1-21.1h64.6v7c-0.3,0-0.5,0.1-0.8,0.2
			c-1,0.2-1.9,0.4-2.8,0.6c-0.5,0.1-0.9,0.3-1.4,0.4c-0.9,0.3-1.7,0.5-2.5,0.9c-0.4,0.1-0.7,0.2-1.1,0.4c-1.1,0.4-2.1,1-3.2,1.5
			c-0.4,0.2-0.8,0.5-1.2,0.7c-0.7,0.4-1.3,0.8-1.9,1.2c-0.3,0.2-0.7,0.4-1,0.6c-0.7,0.5-1.4,1-2,1.6l-0.3,0.2
			c-0.6,0.5-1.2,1.1-1.9,1.8l-0.2,0.2c-0.6,0.6-1.1,1.2-1.6,1.8l-0.2,0.3c-1.1,1.4-2.1,2.9-3,4.4c-0.1,0.2-0.2,0.4-0.3,0.6l-0.2,0.4
			c-0.2,0.4-0.5,0.9-0.7,1.3c-0.1,0.3-0.3,0.6-0.4,0.9l-0.2,0.6h-63.9V1616.3z M242.7,1624.5H306c-0.1,0.3-0.1,0.5-0.2,0.8
			c-0.2,0.9-0.4,1.8-0.6,2.7c-0.1,0.4-0.1,0.7-0.2,1.1c-0.2,1.2-0.3,2.3-0.3,3.5c0,0,0,0,0,0v0c0,0,0,0,0,0c0,6.2,2.1,12.2,6,17.4
			c0.5,0.6,0.8,1.3,1.2,1.9h-69.3V1624.5z M242.7,1653.7H313c0.5,1,0.9,1.9,1.3,2.9c0.1,0.3,0.2,0.6,0.3,0.9
			c0.3,0.9,0.5,1.8,0.6,2.7c0.1,0.3,0.1,0.6,0.2,1c0.2,1.2,0.3,2.4,0.3,3.6v4.5c0,1.3-0.1,2.5-0.3,3.7c-0.1,0.5-0.2,0.9-0.3,1.3
			c-0.2,0.8-0.3,1.5-0.5,2.2c-0.2,0.5-0.3,1-0.5,1.5c-0.2,0.6-0.5,1.3-0.8,1.9c-0.2,0.5-0.5,0.9-0.7,1.4c-0.1,0.3-0.3,0.5-0.5,0.7
			h-69.3V1653.7z M242.7,1683.8h68.1c0,0-0.1,0.1-0.1,0.1c-3.9,5.1-6,11.1-6,17.4c0,0,0,0,0,0c0,0,0,0,0,0c0,1.1,0.1,2.2,0.2,3.4
			c0,0.2,0,0.3,0.1,0.5c0.1,1,0.4,2.1,0.6,3.1c0,0.1,0,0.1,0,0.2h-63V1683.8z M333.3,1737.7h-64.6c-14.4,0-26.1-9.5-26.1-21.1v-6.4
			h63.5c0.1,0.3,0.2,0.6,0.4,0.9c0.2,0.6,0.5,1.3,0.8,1.9c0.2,0.5,0.4,1,0.7,1.5c0.4,0.9,0.9,1.7,1.5,2.5c0.3,0.5,0.7,0.9,1,1.4
			c0.3,0.5,0.7,0.9,1.1,1.4c0.4,0.4,0.7,0.9,1.1,1.3c0.7,0.8,1.4,1.5,2.2,2.2c0.2,0.2,0.5,0.4,0.8,0.6c0.7,0.6,1.5,1.2,2.2,1.7
			c0.3,0.2,0.5,0.4,0.8,0.6c2.1,1.4,4.5,2.6,6.9,3.6c0.1,0,0.2,0.1,0.3,0.1c2.3,0.9,4.8,1.5,7.4,1.9V1737.7z M434.8,1716.6
			c0,11.6-11.7,21.1-26.1,21.1h-64.6v-5.8c1.6-0.2,3.2-0.6,4.8-1c10.9-3,19.5-10.6,22.8-20.6h63.1V1716.6z M434.8,1708.4h-64.3l0,0
			l-0.2,0.6c-3,9.9-11.6,17.5-22.3,20.2c-1.5,0.4-3.1,0.7-4.7,0.9l-0.8,0.1v7.4h-7.4v-7.5v0l-0.1,0l-1.2-0.2c-0.2,0-0.4-0.1-0.6-0.1
			l-0.3,0c-0.6-0.1-1.3-0.2-1.9-0.4l0,0c-0.2,0-0.4-0.1-0.6-0.2c-2.7-0.7-5.2-1.6-7.5-2.8c-0.2-0.1-0.3-0.2-0.5-0.3
			c-0.9-0.5-1.8-1-2.7-1.6c-0.2-0.2-0.5-0.3-0.7-0.5c-0.9-0.6-1.8-1.3-2.6-2c-0.3-0.3-0.6-0.6-0.9-0.9c-0.5-0.5-1-0.9-1.4-1.4
			c-0.4-0.4-0.7-0.8-1.1-1.2c-0.5-0.6-0.9-1.1-1.3-1.7c-0.4-0.6-0.9-1.3-1.2-1.9c-0.3-0.5-0.6-1-0.9-1.5c-0.2-0.5-0.5-0.9-0.7-1.4
			c-0.4-0.8-0.7-1.6-1-2.5l-0.1-0.5c-0.4-1.2-0.6-2.4-0.8-3.6c0-0.2,0-0.3-0.1-0.5c-0.2-1.2-0.3-2.4-0.3-3.6
			c0-5.8,1.9-11.5,5.6-16.3c0.1-0.1,0.2-0.3,0.3-0.4c0.2-0.3,0.4-0.5,0.6-0.8h0l0.3-0.4c0.1-0.1,0.1-0.2,0.1-0.2l0.7-1.1H314
			c0.2-0.4,0.4-0.8,0.6-1.2c0.3-0.7,0.6-1.3,0.9-2c0.2-0.6,0.4-1.1,0.6-1.7c0.2-0.8,0.4-1.6,0.6-2.4c0.1-0.5,0.2-1,0.3-1.5
			c0.2-1.3,0.3-2.7,0.3-4v0v-4.5c0-1.3-0.1-2.6-0.3-3.8c-0.1-0.4-0.2-0.9-0.2-1.3c-0.2-0.8-0.4-1.6-0.6-2.4
			c-0.1-0.5-0.3-0.9-0.4-1.4c-0.3-0.7-0.6-1.4-0.9-2.1h0.1l-0.7-1.2c0,0,0,0,0,0l0-0.1c0,0,0-0.1-0.1-0.1l-0.2-0.4h0
			c-0.6-1.1-1.2-2.1-1.9-3c-3.7-4.8-5.6-10.4-5.6-16.3c0,0,0,0,0,0c0-1.3,0.1-2.6,0.3-3.8c0-0.3,0.1-0.6,0.1-0.9
			c0.2-1.1,0.5-2.3,0.9-3.4c2-6.1,6.2-11.4,11.8-15.1c0.6-0.4,1.1-0.7,1.7-1.1c0.5-0.3,0.9-0.5,1.4-0.8c0.9-0.5,1.8-0.9,2.7-1.2
			c0.4-0.2,0.9-0.3,1.3-0.5c0.8-0.3,1.7-0.6,2.5-0.8c0.5-0.1,0.9-0.2,1.4-0.4c0.9-0.2,1.9-0.4,2.9-0.5c0.2,0,0.5-0.1,0.7-0.1
			l0.7-0.1v0v-8.5h7.4v8.5v0l0.8,0.1c0.1,0,0.1,0,0.2,0c1.2,0.2,2.4,0.4,3.6,0.6c0.3,0.1,0.7,0.2,1,0.3c1.1,0.3,2.2,0.6,3.3,1
			c0.1,0,0.3,0.1,0.4,0.1c1.2,0.4,2.3,1,3.4,1.5c0.3,0.2,0.6,0.3,0.9,0.5c1,0.5,1.9,1.1,2.8,1.7c4.7,3.2,8.4,7.6,10.6,12.6
			c0,0.1,0.1,0.2,0.1,0.3c0.3,0.6,0.5,1.2,0.7,1.9c0.4,1.2,0.7,2.3,0.9,3.5c0.1,0.3,0.1,0.6,0.1,0.8c0.2,1.3,0.3,2.6,0.3,3.9
			c0,0,0,0,0,0c0,5.8-1.9,11.4-5.6,16.2c-0.7,1-1.4,2-2,3.1h0l-0.2,0.4c0,0,0,0.1-0.1,0.1l-0.7,1.3h0.1c-0.3,0.7-0.6,1.4-0.9,2.1
			c-0.1,0.4-0.2,0.7-0.3,1.1c-0.3,0.9-0.5,1.8-0.7,2.8c-0.1,0.4-0.1,0.7-0.2,1.1c-0.2,1.3-0.3,2.6-0.3,3.9v4.7l0,0
			c0,5.1,1.4,9.9,4,14.1l0.3,0.4h69.8V1708.4z M434.8,1682h-68.9c-2.3-3.8-3.5-8.1-3.5-12.7v-4.7c0-1.2,0.1-2.4,0.3-3.6
			c0-0.3,0.1-0.6,0.2-0.9c0.2-0.9,0.4-1.9,0.7-2.7c0.1-0.3,0.1-0.5,0.2-0.8c0.3-1,0.8-2,1.2-2.9h69.8V1682z M434.8,1651.9H366
			c0.4-0.7,0.8-1.4,1.3-2c3.9-5.1,5.9-11.1,5.9-17.3c0,0,0,0,0,0v0c0,0,0,0,0,0c0-1.2-0.1-2.4-0.3-3.6c0-0.3-0.1-0.7-0.2-1
			c-0.2-1-0.4-1.9-0.6-2.9c-0.1-0.2-0.1-0.4-0.1-0.6h62.8V1651.9z M371.4,1622.7C371.3,1622.7,371.3,1622.7,371.4,1622.7l-0.3-0.6
			c0,0,0,0,0-0.1c0-0.1-0.1-0.2-0.1-0.4c-0.1-0.1-0.1-0.3-0.2-0.4c-0.2-0.5-0.4-0.9-0.7-1.5l-0.2-0.3c-0.1-0.2-0.2-0.4-0.3-0.6
			c-0.4-0.8-0.9-1.5-1.4-2.2l-0.3-0.4c-0.4-0.6-0.9-1.2-1.3-1.8l-0.5-0.5c-0.4-0.5-0.9-1-1.4-1.5l-0.5-0.5c-0.4-0.4-0.9-0.8-1.3-1.2
			c0,0-0.1-0.1-0.1-0.1c-0.1-0.1-0.1-0.1-0.2-0.2l-0.4-0.4c-0.4-0.3-0.8-0.6-1.3-1c-0.1-0.1-0.3-0.2-0.4-0.3
			c-0.1-0.1-0.2-0.1-0.3-0.2l-0.2-0.1c-0.2-0.1-0.4-0.2-0.6-0.4c-0.8-0.5-1.6-1.1-2.5-1.5c-0.3-0.2-0.6-0.3-0.9-0.5
			c-1.1-0.6-2.2-1.1-3.4-1.6c-0.2-0.1-0.5-0.2-0.7-0.3c-1-0.4-2-0.7-3-1c-0.3-0.1-0.7-0.2-1-0.3c-1.3-0.3-2.5-0.6-3.8-0.8v-6.9h64.6
			c14.4,0,26.1,9.5,26.1,21.1v6.4H371.4z"/>
		<path class="st35" d="M410.2,1592h-64.6h-1.7h-7.4h-1.7h-64.6c-15.3,0-27.8,10.2-27.8,22.8v6.4v1.8v27.5v1.8v28.3v1.8v24.6v1.8
			v6.4c0,12.6,12.5,22.8,27.8,22.8h64.6h1.7h7.4h1.7h64.6c15.3,0,27.8-10.2,27.8-22.8v-6.4v-1.8v-24.6v-1.8v-28.3v-1.8v-27.5v-1.8
			v-6.4C438,1602.3,425.5,1592,410.2,1592z M244.1,1614.9c0-11.6,11.7-21.1,26.1-21.1h64.6v7c-0.3,0-0.5,0.1-0.8,0.2
			c-1,0.2-1.9,0.4-2.8,0.6c-0.5,0.1-0.9,0.3-1.4,0.4c-0.9,0.3-1.7,0.5-2.5,0.8c-0.4,0.1-0.7,0.3-1.1,0.4c-1.1,0.4-2.1,1-3.2,1.5
			c-0.4,0.2-0.8,0.5-1.2,0.7c-0.7,0.4-1.3,0.8-1.9,1.2c-0.3,0.2-0.7,0.4-1,0.6c-0.7,0.5-1.4,1-2,1.6l-0.3,0.2
			c-0.6,0.5-1.2,1.1-1.9,1.8l-0.2,0.2c-0.6,0.6-1.1,1.2-1.6,1.8l-0.2,0.3c-1.1,1.4-2.1,2.9-3,4.4c-0.1,0.2-0.2,0.4-0.3,0.6l-0.2,0.4
			c-0.2,0.4-0.5,0.9-0.7,1.4c-0.1,0.3-0.3,0.6-0.4,0.9l-0.2,0.6h-63.9V1614.9z M244.1,1623.1h63.3c-0.1,0.3-0.1,0.5-0.2,0.8
			c-0.2,0.9-0.4,1.8-0.6,2.7c-0.1,0.4-0.1,0.7-0.2,1.1c-0.2,1.2-0.3,2.3-0.3,3.5c0,0,0,0,0,0v0c0,0,0,0,0,0c0,6.2,2.1,12.2,6,17.4
			c0.5,0.6,0.8,1.3,1.2,1.9h-69.3V1623.1z M244.1,1652.3h70.3c0.5,1,0.9,1.9,1.3,2.9c0.1,0.3,0.2,0.6,0.3,0.9
			c0.3,0.9,0.5,1.8,0.7,2.7c0.1,0.3,0.1,0.6,0.2,1c0.2,1.2,0.3,2.4,0.3,3.6v4.5c0,1.3-0.1,2.5-0.3,3.7c-0.1,0.5-0.2,0.9-0.3,1.3
			c-0.2,0.8-0.3,1.5-0.5,2.2c-0.2,0.5-0.3,1-0.5,1.5c-0.2,0.6-0.5,1.3-0.8,1.9c-0.2,0.5-0.5,1-0.7,1.4c-0.1,0.3-0.3,0.5-0.5,0.7
			h-69.3V1652.3z M244.1,1682.4h68.2c0,0-0.1,0.1-0.1,0.1c-3.9,5.1-6,11.2-6,17.4c0,0,0,0,0,0c0,0,0,0,0,0c0,1.1,0.1,2.2,0.2,3.4
			c0,0.2,0,0.3,0.1,0.5c0.1,1.1,0.4,2.1,0.6,3.1c0,0.1,0,0.1,0,0.2h-63V1682.4z M334.8,1736.2h-64.6c-14.4,0-26.1-9.5-26.1-21.1
			v-6.4h63.5c0.1,0.3,0.2,0.6,0.4,0.9c0.2,0.6,0.5,1.3,0.8,1.9c0.2,0.5,0.4,1,0.7,1.5c0.5,0.9,0.9,1.7,1.5,2.5
			c0.3,0.5,0.7,0.9,1,1.4c0.3,0.5,0.7,0.9,1.1,1.4c0.4,0.4,0.7,0.9,1.1,1.3c0.7,0.8,1.4,1.5,2.2,2.2c0.2,0.2,0.5,0.4,0.8,0.6
			c0.7,0.6,1.5,1.2,2.2,1.7c0.3,0.2,0.5,0.4,0.8,0.6c2.1,1.4,4.5,2.6,6.9,3.6c0.1,0,0.2,0.1,0.3,0.1c2.3,0.9,4.8,1.5,7.3,1.9V1736.2
			z M436.3,1715.2c0,11.6-11.7,21.1-26.1,21.1h-64.6v-5.8c1.6-0.2,3.2-0.6,4.8-1c10.9-3,19.5-10.6,22.8-20.6h63.1V1715.2z
			 M436.3,1707h-64.3h0l-0.2,0.6c-3,9.9-11.6,17.5-22.3,20.2c-1.5,0.4-3.1,0.7-4.7,0.9l-0.8,0.1v7.4h-7.4v-7.5v0l-0.1,0l-1.2-0.2
			c-0.2,0-0.4-0.1-0.6-0.1l-0.3,0c-0.6-0.1-1.3-0.2-1.9-0.4l0,0c-0.2,0-0.4-0.1-0.6-0.2c-2.7-0.7-5.2-1.6-7.5-2.8
			c-0.2-0.1-0.3-0.2-0.5-0.3c-0.9-0.5-1.8-1-2.7-1.6c-0.2-0.2-0.5-0.3-0.7-0.5c-0.9-0.6-1.8-1.3-2.6-2c-0.3-0.3-0.6-0.6-0.9-0.9
			c-0.5-0.5-1-0.9-1.4-1.4c-0.4-0.4-0.7-0.8-1.1-1.2c-0.5-0.6-0.9-1.1-1.3-1.7c-0.4-0.6-0.9-1.3-1.2-1.9c-0.3-0.5-0.6-1-0.9-1.5
			c-0.2-0.5-0.5-0.9-0.7-1.4c-0.4-0.8-0.7-1.6-1-2.5l-0.1-0.4c-0.4-1.2-0.6-2.4-0.8-3.6c0-0.2-0.1-0.3-0.1-0.5
			c-0.2-1.2-0.3-2.4-0.3-3.6c0-5.8,1.9-11.5,5.6-16.3c0.1-0.1,0.2-0.3,0.3-0.4c0.2-0.3,0.4-0.5,0.6-0.8h0l0.3-0.4
			c0-0.1,0.1-0.2,0.1-0.2l0.7-1.1h-0.1c0.2-0.4,0.4-0.8,0.6-1.2c0.3-0.7,0.6-1.3,0.9-2c0.2-0.6,0.4-1.1,0.6-1.7
			c0.2-0.8,0.4-1.6,0.6-2.4c0.1-0.5,0.2-1,0.3-1.5c0.2-1.3,0.3-2.7,0.3-4v0v-4.5c0-1.3-0.1-2.6-0.3-3.8c-0.1-0.4-0.2-0.9-0.2-1.3
			c-0.2-0.8-0.4-1.6-0.6-2.4c-0.1-0.5-0.3-0.9-0.4-1.4c-0.3-0.7-0.6-1.4-0.9-2.1h0.1l-0.7-1.2c0,0,0,0,0,0l0-0.1c0,0,0-0.1-0.1-0.1
			l-0.2-0.4h0c-0.6-1.1-1.2-2.1-1.9-3c-3.7-4.8-5.6-10.4-5.6-16.3c0,0,0,0,0,0c0-1.3,0.1-2.6,0.3-3.8c0-0.3,0.1-0.6,0.1-0.9
			c0.2-1.1,0.5-2.3,0.9-3.4c2-6.1,6.2-11.4,11.8-15.1c0.6-0.4,1.1-0.7,1.7-1.1c0.5-0.3,0.9-0.5,1.4-0.8c0.9-0.5,1.8-0.9,2.7-1.2
			c0.4-0.2,0.9-0.3,1.3-0.5c0.8-0.3,1.7-0.6,2.5-0.8c0.5-0.1,0.9-0.2,1.4-0.4c0.9-0.2,1.9-0.4,2.9-0.6c0.2,0,0.5-0.1,0.7-0.1
			l0.8-0.1v0v-8.5h7.4v8.5v0l0.8,0.1c0.1,0,0.1,0,0.2,0c1.2,0.1,2.4,0.4,3.6,0.6c0.3,0.1,0.7,0.2,1,0.3c1.1,0.3,2.2,0.6,3.3,1
			c0.1,0.1,0.3,0.1,0.4,0.1c1.2,0.4,2.3,1,3.4,1.5c0.3,0.2,0.6,0.3,0.9,0.5c1,0.5,1.9,1.1,2.8,1.7c4.7,3.2,8.4,7.6,10.6,12.6
			c0,0.1,0.1,0.2,0.1,0.3c0.3,0.6,0.5,1.2,0.7,1.9c0.4,1.2,0.7,2.3,0.9,3.5c0.1,0.3,0.1,0.6,0.1,0.9c0.2,1.3,0.3,2.6,0.3,3.9
			c0,0,0,0,0,0c0,5.8-1.9,11.4-5.6,16.2c-0.7,1-1.4,2-2,3.1h0l-0.2,0.4c0,0,0,0.1-0.1,0.1l-0.7,1.3h0.1c-0.3,0.7-0.6,1.4-0.9,2.1
			c-0.1,0.4-0.2,0.7-0.3,1.1c-0.3,0.9-0.5,1.8-0.7,2.8c-0.1,0.4-0.1,0.7-0.2,1.1c-0.2,1.3-0.3,2.6-0.3,3.9v4.7v0
			c0,5.1,1.4,9.9,4,14.1l0.3,0.4h69.8V1707z M436.3,1680.6h-68.9c-2.3-3.8-3.5-8.2-3.5-12.7v-4.7c0-1.2,0.1-2.4,0.3-3.6
			c0-0.3,0.1-0.6,0.2-0.9c0.2-0.9,0.4-1.8,0.7-2.7c0.1-0.3,0.1-0.5,0.2-0.8c0.3-1,0.8-2,1.2-2.9h69.8V1680.6z M436.3,1650.5h-68.8
			c0.4-0.7,0.8-1.4,1.3-2c3.9-5.1,5.9-11.1,5.9-17.3c0,0,0,0,0,0v0c0,0,0,0,0,0c0-1.2-0.1-2.4-0.3-3.6c0-0.3-0.1-0.7-0.2-1
			c-0.2-1-0.4-1.9-0.7-2.9c-0.1-0.2-0.1-0.4-0.1-0.6h62.8V1650.5z M372.8,1621.3C372.8,1621.3,372.8,1621.3,372.8,1621.3l-0.3-0.6
			c0,0,0,0,0-0.1c-0.1-0.1-0.1-0.3-0.2-0.4c-0.1-0.1-0.1-0.3-0.2-0.4c-0.2-0.5-0.4-0.9-0.7-1.5l-0.2-0.3c-0.1-0.2-0.2-0.4-0.3-0.5
			c-0.4-0.8-0.9-1.5-1.4-2.2l-0.3-0.4c-0.4-0.6-0.9-1.2-1.3-1.8l-0.5-0.5c-0.4-0.5-0.9-1-1.4-1.5l-0.5-0.5c-0.4-0.4-0.9-0.8-1.3-1.2
			c0,0-0.1-0.1-0.1-0.1c-0.1-0.1-0.1-0.1-0.2-0.2l-0.4-0.4c-0.4-0.3-0.8-0.6-1.3-1c-0.1-0.1-0.3-0.2-0.4-0.3
			c-0.1-0.1-0.2-0.1-0.3-0.2l-0.2-0.1c-0.2-0.1-0.4-0.2-0.6-0.4c-0.8-0.5-1.6-1-2.5-1.5c-0.3-0.2-0.6-0.3-0.9-0.5
			c-1.1-0.6-2.2-1.1-3.4-1.6c-0.2-0.1-0.5-0.2-0.7-0.3c-1-0.4-2-0.7-3-1c-0.3-0.1-0.7-0.2-1-0.3c-1.3-0.3-2.5-0.6-3.8-0.8v-6.9h64.6
			c14.4,0,26.1,9.5,26.1,21.1v6.4H372.8z"/>
		<g>
			<defs>
				<path id="SVGID_11_" d="M367.2,1738h-54c-39.1,0-70.8-32.7-70.8-73l0,0c0-40.3,31.7-73,70.8-73h54c39.1,0,70.8,32.7,70.8,73l0,0
					C438,1705.3,406.3,1738,367.2,1738z"/>
			</defs>
			<clipPath id="SVGID_7_">
				<use xlink:href="#SVGID_11_"  style="overflow:visible;"/>
			</clipPath>
			
				<radialGradient id="XMLID_2_" cx="506.3805" cy="-12970.0576" r="2.9038" gradientTransform="matrix(-110.7924 63.0747 -6.6886 -12.5192 -30318.5176 -192669.7656)" gradientUnits="userSpaceOnUse">
				<stop  offset="7.431400e-03" style="stop-color:#FFFF00"/>
				<stop  offset="9.335688e-02" style="stop-color:#E5E501"/>
				<stop  offset="0.2774" style="stop-color:#A2A204"/>
				<stop  offset="0.5052" style="stop-color:#484807"/>
				<stop  offset="0.915" style="stop-color:#00000A"/>
			</radialGradient>
			<path id="XMLID_7_" class="st36" d="M8.2,1827.3c-10.7-20.1,124.6-118.3,302.3-219.5c177.7-101.1,330.4-166.9,341.1-146.8
				c10.7,20.1-124.6,118.3-302.3,219.5C171.7,1781.6,18.9,1847.4,8.2,1827.3z"/>
			
				<radialGradient id="XMLID_3_" cx="507.8527" cy="-12992.499" r="2.9036" gradientTransform="matrix(-86.3914 49.1881 -3.4593 -6.459 -684.1804 -107191.3906)" gradientUnits="userSpaceOnUse">
				<stop  offset="7.431400e-03" style="stop-color:#FFFF00"/>
				<stop  offset="9.335688e-02" style="stop-color:#E5E501"/>
				<stop  offset="0.2774" style="stop-color:#A2A204"/>
				<stop  offset="0.5052" style="stop-color:#484807"/>
				<stop  offset="0.915" style="stop-color:#00000A"/>
			</radialGradient>
			<path id="XMLID_6_" class="st37" d="M135.8,1850.3c-5.5-10.4,102.3-82.7,240.8-161.6c138.5-78.9,255.3-134.4,260.9-124.1
				c5.5,10.4-102.3,82.7-240.8,161.6C258.2,1805.2,141.4,1860.7,135.8,1850.3z"/>
		</g>
	</g>
	<g>
		<g>
			<rect x="553.6" y="1674.6" class="st8" width="17.8" height="1.9"/>
			<path class="st8" d="M378.3,1770.8H486c1.4,0,2.8-0.6,3.8-1.6l62.2-61.6c1.1-1.1,1.7-2.5,1.7-4.1v-1.9c0,1.5-0.6,3-1.7,4.1
				l-62.2,61.6c-1,1-2.4,1.6-3.8,1.6H378.3V1770.8z"/>
			<path class="st8" d="M536.4,1539.4H378.3v1.9h158.1c19.3,0,35.1,16.2,35.1,36.2v-1.9C571.5,1555.6,555.7,1539.4,536.4,1539.4z"/>
			<path class="st8" d="M220.9,1768.9c-9.5,0-17.2-8-17.2-17.8v1.9c0,9.8,7.7,17.8,17.2,17.8h141.5v-1.9H220.9z"/>
			<rect x="185.8" y="1674.6" class="st8" width="17.8" height="1.9"/>
			<path class="st8" d="M220.9,1539.4c-19.3,0-35.1,16.2-35.1,36.2v1.9c0-19.9,15.7-36.2,35.1-36.2h141.5v-1.9H220.9z"/>
		</g>
		<g class="st38">
			<path class="st8" d="M193.5,1554.1c-6.5,6.6-10.5,15.7-10.5,25.8v81.5c0,0.6,0.5,1,1,1l16.8-1.3v-0.4h-15.7
				c-0.4,0-0.7-0.3-0.7-0.7v-81.9C184.5,1568.9,188,1560.5,193.5,1554.1z"/>
			<path class="st8" d="M183,1755.5c0,19.9,15.7,36.2,35.1,36.2l141.5-1.3v-0.5h-140c-19.3,0-35.1-16.2-35.1-36.2v-74.9H183V1755.5z
				"/>
			<path class="st8" d="M209.7,1567.1c3-3.1,7.1-5,11.6-5l138.3-1.1v-0.6H222.7C217.4,1560.4,212.7,1563,209.7,1567.1z"/>
			<path class="st8" d="M1000,1305.9H167.2c-11.8,0-22.3,5.3-29.7,13.7c7.3-7.4,17.2-11.9,28.2-11.9h832.7
				c22.2,0,40.2,18.6,40.2,41.5v509.1c0,10.8-4.1,20.5-10.6,27.8c7.4-7.5,12-18,12-29.6v-509.1
				C1040.2,1324.5,1022.2,1305.9,1000,1305.9z"/>
			<path class="st8" d="M375.5,1790.6c0,0.6,0.5,1.1,1,1.1h106.6c6,0,11.8-2.4,16.2-6.7l62.1-61.6c0.5-0.5,0.8-1,1.3-1.5l-61.9,61.4
				c-4.4,4.3-10.1,6.7-16.2,6.7H378c-0.6,0-1-0.5-1-1.1v-15.6h-0.5L375.5,1790.6z"/>
			<path class="st8" d="M550.8,1703.3c0,1.2-0.5,2.3-1.1,3.3l0.9-0.9c1.1-1.1,1.7-2.5,1.7-4.1v-25.3h-0.5L550.8,1703.3z"/>
			<path class="st8" d="M376.2,1543.7l-0.7,17c0,0.8,0.6,1.4,1.3,1.4h156.7c9.5,0,17.2,7.9,17.2,17.8v81.7c0,0.5,0.4,0.9,0.8,0.9
				l17-1.3v-0.4h-15.5c-0.5,0-0.8-0.4-0.8-0.9v-81.7c0-9.8-7.7-17.8-17.2-17.8H378.3c-0.7,0-1.3-0.6-1.3-1.4v-15.3H376.2z"/>
		</g>
	</g>
	<g>
		<path d="M480.7,1647.7v0.9h-8.5v-0.9h3.8v-13.8c0-0.3,0-0.6,0-0.9l-3.6,3.3c-0.1,0.1-0.2,0.1-0.3,0.1c-0.1,0-0.2-0.1-0.3-0.1
			l-0.3-0.5l4.8-4.3h0.9v16.2H480.7z"/>
		<path d="M494.2,1647.5c0.1,0,0.2,0,0.3,0.1c0.1,0.1,0.1,0.2,0.1,0.3v0.7H484v-0.4c0-0.1,0-0.2,0.1-0.3c0-0.1,0.1-0.2,0.2-0.2
			l5.6-5.9c0.5-0.5,0.9-1,1.3-1.4c0.4-0.5,0.7-0.9,1-1.4c0.3-0.5,0.5-0.9,0.7-1.4c0.2-0.5,0.2-1,0.2-1.6c0-0.6-0.1-1.2-0.3-1.6
			c-0.2-0.5-0.5-0.8-0.8-1.1c-0.3-0.3-0.7-0.5-1.2-0.7c-0.4-0.1-0.9-0.2-1.4-0.2c-0.5,0-1,0.1-1.4,0.2c-0.4,0.2-0.8,0.4-1.2,0.7
			c-0.3,0.3-0.6,0.6-0.8,1c-0.2,0.4-0.4,0.9-0.5,1.3c-0.1,0.2-0.1,0.3-0.2,0.3c-0.1,0.1-0.2,0.1-0.4,0.1l-0.6-0.1
			c0.1-0.7,0.3-1.4,0.6-1.9c0.3-0.6,0.7-1,1.1-1.4c0.4-0.4,1-0.7,1.5-0.9c0.6-0.2,1.2-0.3,1.9-0.3c0.6,0,1.2,0.1,1.8,0.3
			c0.6,0.2,1.1,0.5,1.5,0.9c0.4,0.4,0.8,0.9,1,1.4c0.3,0.6,0.4,1.2,0.4,2c0,0.6-0.1,1.2-0.3,1.8c-0.2,0.6-0.4,1.1-0.8,1.6
			c-0.3,0.5-0.7,1-1.1,1.5c-0.4,0.5-0.9,1-1.4,1.5l-5.2,5.4c0.2-0.1,0.5-0.1,0.8-0.1c0.3,0,0.5,0,0.8,0H494.2z"/>
		<path d="M498,1636c0.1-0.7,0.3-1.4,0.6-1.9c0.3-0.6,0.7-1,1.1-1.4c0.4-0.4,1-0.7,1.5-0.9c0.6-0.2,1.2-0.3,1.9-0.3
			c0.6,0,1.2,0.1,1.8,0.3c0.6,0.2,1.1,0.5,1.5,0.8c0.4,0.4,0.8,0.8,1,1.3c0.2,0.5,0.4,1.2,0.4,1.9c0,0.6-0.1,1.1-0.2,1.5
			c-0.2,0.4-0.4,0.8-0.7,1.2c-0.3,0.3-0.6,0.6-1,0.9c-0.4,0.2-0.8,0.4-1.3,0.5c1.2,0.2,2.1,0.7,2.7,1.4c0.6,0.7,0.9,1.7,0.9,2.8
			c0,0.7-0.1,1.3-0.4,1.9c-0.3,0.6-0.6,1.1-1.1,1.5c-0.5,0.4-1,0.8-1.7,1c-0.6,0.2-1.3,0.4-2.1,0.4c-0.9,0-1.7-0.1-2.3-0.4
			c-0.6-0.3-1.1-0.6-1.5-1c-0.4-0.4-0.7-0.9-0.9-1.4c-0.2-0.5-0.4-1-0.5-1.5l0.4-0.2c0.1-0.1,0.3-0.1,0.4,0c0.1,0,0.2,0.1,0.3,0.3
			c0,0.1,0.1,0.2,0.2,0.5c0.1,0.2,0.2,0.4,0.3,0.7c0.1,0.3,0.3,0.5,0.5,0.8c0.2,0.3,0.4,0.5,0.7,0.7c0.3,0.2,0.7,0.4,1.1,0.5
			c0.4,0.1,0.9,0.2,1.5,0.2c0.7,0,1.3-0.1,1.8-0.4c0.5-0.2,1-0.5,1.3-0.9c0.4-0.4,0.6-0.8,0.8-1.3c0.2-0.5,0.3-0.9,0.3-1.3
			c0-0.5-0.1-1-0.2-1.5c-0.2-0.4-0.4-0.8-0.8-1.2c-0.4-0.3-0.9-0.6-1.5-0.8c-0.6-0.2-1.4-0.3-2.3-0.3v-0.8c0.7,0,1.3-0.1,1.9-0.3
			c0.5-0.2,1-0.4,1.4-0.7c0.4-0.3,0.6-0.7,0.8-1.1c0.2-0.4,0.3-0.9,0.3-1.4c0-0.6-0.1-1.1-0.3-1.6c-0.2-0.4-0.5-0.8-0.8-1.1
			c-0.3-0.3-0.7-0.5-1.1-0.6c-0.4-0.1-0.9-0.2-1.4-0.2c-0.5,0-1,0.1-1.4,0.2c-0.4,0.2-0.8,0.4-1.2,0.7c-0.3,0.3-0.6,0.6-0.8,1
			c-0.2,0.4-0.4,0.9-0.5,1.3c0,0.2-0.1,0.3-0.2,0.3c-0.1,0.1-0.2,0.1-0.4,0.1L498,1636z"/>
		<path d="M522.5,1642.8v0.6c0,0.1,0,0.2-0.1,0.2c0,0-0.1,0.1-0.2,0.1h-2.7v4.9h-1v-4.9h-7.8c-0.1,0-0.2,0-0.3-0.1
			c-0.1-0.1-0.1-0.1-0.1-0.2l-0.1-0.6l8.3-11.3h1v11.2H522.5z M518.5,1642.8v-8.9c0-0.1,0-0.3,0-0.4c0-0.2,0-0.3,0-0.5l-7.1,9.9
			H518.5z"/>
		<path d="M481.8,1668.9c0,1.5-0.2,2.8-0.5,3.9c-0.3,1.1-0.7,2-1.3,2.7c-0.5,0.7-1.2,1.2-1.9,1.6c-0.7,0.3-1.5,0.5-2.3,0.5
			c-0.8,0-1.6-0.2-2.3-0.5c-0.7-0.3-1.3-0.9-1.9-1.6c-0.5-0.7-1-1.6-1.3-2.7c-0.3-1.1-0.5-2.4-0.5-3.9c0-1.5,0.2-2.8,0.5-3.9
			c0.3-1.1,0.7-2,1.3-2.7c0.5-0.7,1.2-1.2,1.9-1.6c0.7-0.3,1.5-0.5,2.3-0.5c0.8,0,1.6,0.2,2.3,0.5c0.7,0.3,1.3,0.9,1.9,1.6
			c0.5,0.7,1,1.6,1.3,2.7C481.6,1666.2,481.8,1667.5,481.8,1668.9z M480.6,1668.9c0-1.4-0.1-2.6-0.4-3.5c-0.3-1-0.6-1.8-1-2.4
			c-0.4-0.6-0.9-1.1-1.5-1.4c-0.6-0.3-1.2-0.4-1.8-0.4s-1.2,0.1-1.8,0.4c-0.6,0.3-1.1,0.7-1.5,1.4c-0.4,0.6-0.8,1.4-1,2.4
			c-0.3,1-0.4,2.2-0.4,3.5c0,1.4,0.1,2.6,0.4,3.5c0.3,1,0.6,1.8,1,2.4c0.4,0.6,0.9,1.1,1.5,1.4c0.6,0.3,1.2,0.4,1.8,0.4
			s1.2-0.1,1.8-0.4c0.6-0.3,1.1-0.7,1.5-1.4c0.4-0.6,0.8-1.4,1-2.4C480.5,1671.5,480.6,1670.3,480.6,1668.9z"/>
		<path d="M495.3,1668.9c0,1.5-0.2,2.8-0.5,3.9c-0.3,1.1-0.7,2-1.3,2.7c-0.5,0.7-1.2,1.2-1.9,1.6c-0.7,0.3-1.5,0.5-2.3,0.5
			s-1.6-0.2-2.3-0.5c-0.7-0.3-1.3-0.9-1.9-1.6c-0.5-0.7-1-1.6-1.3-2.7c-0.3-1.1-0.5-2.4-0.5-3.9c0-1.5,0.2-2.8,0.5-3.9
			c0.3-1.1,0.7-2,1.3-2.7c0.5-0.7,1.2-1.2,1.9-1.6c0.7-0.3,1.5-0.5,2.3-0.5s1.6,0.2,2.3,0.5c0.7,0.3,1.4,0.9,1.9,1.6
			c0.5,0.7,1,1.6,1.3,2.7C495.2,1666.2,495.3,1667.5,495.3,1668.9z M494.1,1668.9c0-1.4-0.1-2.6-0.4-3.5c-0.3-1-0.6-1.8-1-2.4
			c-0.4-0.6-0.9-1.1-1.5-1.4c-0.6-0.3-1.2-0.4-1.8-0.4c-0.6,0-1.2,0.1-1.8,0.4c-0.6,0.3-1.1,0.7-1.5,1.4c-0.4,0.6-0.8,1.4-1,2.4
			c-0.3,1-0.4,2.2-0.4,3.5c0,1.4,0.1,2.6,0.4,3.5c0.3,1,0.6,1.8,1,2.4c0.4,0.6,0.9,1.1,1.5,1.4c0.6,0.3,1.2,0.4,1.8,0.4
			c0.6,0,1.2-0.1,1.8-0.4c0.6-0.3,1.1-0.7,1.5-1.4c0.4-0.6,0.8-1.4,1-2.4C494,1671.5,494.1,1670.3,494.1,1668.9z"/>
		<path d="M508.8,1668.9c0,1.5-0.2,2.8-0.5,3.9c-0.3,1.1-0.7,2-1.3,2.7c-0.5,0.7-1.2,1.2-1.9,1.6c-0.7,0.3-1.5,0.5-2.3,0.5
			c-0.8,0-1.6-0.2-2.3-0.5c-0.7-0.3-1.3-0.9-1.9-1.6c-0.5-0.7-1-1.6-1.3-2.7c-0.3-1.1-0.5-2.4-0.5-3.9c0-1.5,0.2-2.8,0.5-3.9
			c0.3-1.1,0.7-2,1.3-2.7c0.5-0.7,1.2-1.2,1.9-1.6c0.7-0.3,1.5-0.5,2.3-0.5c0.8,0,1.6,0.2,2.3,0.5c0.7,0.3,1.4,0.9,1.9,1.6
			c0.5,0.7,1,1.6,1.3,2.7C508.7,1666.2,508.8,1667.5,508.8,1668.9z M507.7,1668.9c0-1.4-0.1-2.6-0.4-3.5c-0.3-1-0.6-1.8-1-2.4
			c-0.4-0.6-0.9-1.1-1.5-1.4c-0.6-0.3-1.2-0.4-1.8-0.4c-0.6,0-1.2,0.1-1.8,0.4c-0.6,0.3-1.1,0.7-1.5,1.4c-0.4,0.6-0.8,1.4-1,2.4
			c-0.3,1-0.4,2.2-0.4,3.5c0,1.4,0.1,2.6,0.4,3.5c0.3,1,0.6,1.8,1,2.4c0.4,0.6,0.9,1.1,1.5,1.4c0.6,0.3,1.2,0.4,1.8,0.4
			c0.6,0,1.3-0.1,1.8-0.4c0.6-0.3,1.1-0.7,1.5-1.4c0.4-0.6,0.8-1.4,1-2.4C507.5,1671.5,507.7,1670.3,507.7,1668.9z"/>
		<path d="M522.4,1668.9c0,1.5-0.2,2.8-0.5,3.9c-0.3,1.1-0.7,2-1.3,2.7c-0.5,0.7-1.2,1.2-1.9,1.6c-0.7,0.3-1.5,0.5-2.3,0.5
			c-0.8,0-1.6-0.2-2.3-0.5c-0.7-0.3-1.3-0.9-1.9-1.6c-0.5-0.7-1-1.6-1.3-2.7c-0.3-1.1-0.5-2.4-0.5-3.9c0-1.5,0.1-2.8,0.5-3.9
			c0.3-1.1,0.7-2,1.3-2.7c0.5-0.7,1.2-1.2,1.9-1.6c0.7-0.3,1.5-0.5,2.3-0.5c0.8,0,1.6,0.2,2.3,0.5c0.7,0.3,1.3,0.9,1.9,1.6
			c0.5,0.7,1,1.6,1.3,2.7C522.2,1666.2,522.4,1667.5,522.4,1668.9z M521.2,1668.9c0-1.4-0.1-2.6-0.4-3.5c-0.3-1-0.6-1.8-1-2.4
			c-0.4-0.6-0.9-1.1-1.5-1.4c-0.6-0.3-1.2-0.4-1.8-0.4c-0.6,0-1.2,0.1-1.8,0.4c-0.6,0.3-1.1,0.7-1.5,1.4c-0.4,0.6-0.8,1.4-1,2.4
			c-0.3,1-0.4,2.2-0.4,3.5c0,1.4,0.1,2.6,0.4,3.5c0.3,1,0.6,1.8,1,2.4c0.4,0.6,0.9,1.1,1.5,1.4c0.6,0.3,1.2,0.4,1.8,0.4
			c0.6,0,1.3-0.1,1.8-0.4c0.6-0.3,1.1-0.7,1.5-1.4c0.4-0.6,0.8-1.4,1-2.4C521.1,1671.5,521.2,1670.3,521.2,1668.9z"/>
	</g>
	<g>
		<path class="st39" d="M438,1505.7c115.6,0,209.3-89.9,209.3-200.8h-17.4c0,101.7-85.9,184.1-191.8,184.1
			c-105.9,0-191.8-82.4-191.8-184.1h-17.4C228.7,1415.8,322.4,1505.7,438,1505.7z"/>
		<path class="st39" d="M437,1463c91,0,164.8-70.8,164.8-158.1h-13.7c0,80.1-67.7,145-151.1,145s-151.1-64.9-151.1-145h-13.7
			C272.2,1392.2,346,1463,437,1463z"/>
		<path class="st39" d="M990.1,1534.4c18.2,0,35.5-3.5,51.5-9.8v-13.1c-15.8,6.9-33.2,10.8-51.5,10.8
			c-72.2,0-130.8-59.7-130.8-133.3c0-31.9,11-61.2,29.4-84.1h-14.9c-16.6,23.8-26.4,52.8-26.4,84.1
			C847.4,1469.3,911.3,1534.4,990.1,1534.4z"/>
		<path class="st39" d="M720.4,1600.2c-53.3,0-103.8,11.2-148.9,31.2v28.3h-17.8v-19.8c-58.8,30.1-107.3,75.5-139.1,130.6h33.3
			c55.7-85.9,156.9-143.4,272.6-143.4c159.4,0,291.4,109.1,314.5,251.4c4.3-6.6,6.7-14.5,6.7-23v-54.6
			C989.8,1683.1,865.6,1600.2,720.4,1600.2z"/>
		<path class="st40" d="M436.9,1788.9h-32.1c-16.4,33.4-26.9,69.8-30.2,108.1h29C407.3,1858.3,418.9,1821.8,436.9,1788.9z"/>
		<path class="st39" d="M469.8,1897c13.9-116.5,120-207.1,248.9-207.1c128.9,0,235,90.6,248.9,207.1h23
			c-14-128.2-130.4-228.3-271.9-228.3c-54.6,0-105.4,15-148.1,40.6c-1.1,4.2-3.2,8.2-6.3,11.2l-62.1,61.6c-4.2,4.2-9.7,6.5-15.5,6.6
			c-21.4,32-35.5,68.8-39.8,108.2H469.8z"/>
	</g>
	<path class="st41" d="M203.7,1581.5c0,0.1,0,0.1,0,0.2v78h0V1581.5z"/>
	<g>
		<g class="st38">
			<path class="st8" d="M1000.2,1890.3H173.4c-22.1,0-40-18.4-40-41.2v-505.2c0-11.1,4.3-21,11.2-28.4c-8.7,7.6-14.4,18.7-14.4,31.4
				V1852c0,22.8,17.9,41.2,40,41.2H997c11.3,0,21.5-4.9,28.8-12.8C1018.9,1886.5,1010,1890.3,1000.2,1890.3z"/>
		</g>
	</g>
	<g>
		<path class="st42" d="M571.5,1577.1c0-19.9-15.7-36.2-35.1-36.2H378.4v4.6h158.1c19.3,0,35.1,16.2,35.1,36.2v78h0V1577.1z"/>
		<path class="st42" d="M489.8,1773.5l62.2-61.6c1.1-1.1,1.7-2.5,1.7-4.1v-4.5c0,1.5-0.6,2.9-1.7,4l-62.2,61.6c-1,1-2.4,1.6-3.8,1.6
			H378.4v4.6H486C487.4,1775,488.7,1774.5,489.8,1773.5z"/>
		<path class="st42" d="M571.5,1703.2v-27.1h-17.8v4.6h17.8v22.7C571.5,1703.3,571.5,1703.2,571.5,1703.2z"/>
		<path class="st42" d="M362.4,1788.9v-18.4H220.9c-9.5,0-17.2-7.9-17.2-17.8v-76.6h-17.8v4.6h17.8v76.6c0,9.8,7.7,17.8,17.2,17.8
			h141.5L362.4,1788.9L362.4,1788.9z"/>
		<path class="st42" d="M362.4,1540.9H220.9c-19.3,0-35.1,16.2-35.1,36.2v4.2c0.2-19.8,15.8-35.8,35-35.8h141.5v13.8h0V1540.9z"/>
		<g class="st43">
			<path class="st44" d="M571.5,1703.2v-27.1h-17.8v4.6h17.8v22.7C571.5,1703.3,571.5,1703.2,571.5,1703.2z"/>
			<path class="st45" d="M571.5,1703.6V1677h-17.8v4.1h17.8v22.7C571.4,1703.7,571.5,1703.6,571.5,1703.6z"/>
			<path class="st46" d="M571.4,1704v-26.1h-17.8v3.6h17.8v22.7C571.4,1704.1,571.4,1704.1,571.4,1704z"/>
			<path class="st47" d="M571.4,1704.4v-25.7h-17.8v3.2h17.8v22.7C571.4,1704.5,571.4,1704.5,571.4,1704.4z"/>
			<path class="st48" d="M571.4,1704.9v-25.2h-17.8v2.7h17.8v22.7C571.4,1705,571.4,1704.9,571.4,1704.9z"/>
			<path class="st49" d="M571.4,1705.3v-24.7h-17.8v2.2h17.8v22.7C571.4,1705.4,571.4,1705.3,571.4,1705.3z"/>
		</g>
		<g class="st43">
			<path class="st50" d="M571.5,1577.1c0-19.9-15.7-36.2-35.1-36.2H378.3v1.3h158.1c19.3,0,35.1,19.4,35.1,39.4v78h0V1577.1z"/>
			<path class="st51" d="M571.5,1577.1c0-19.9-15.7-36-35.1-36H378.3v1.3h158.1c19.3,0,35.1,19.3,35.1,39.3v78h0V1577.1z"/>
			<path class="st52" d="M571.5,1577.1c0-19.9-15.7-35.9-35.1-35.9H378.3v1.3h158.1c19.3,0,35.1,19.2,35.1,39.2v78h0V1577.1z"/>
			<path class="st53" d="M571.5,1577.2c0-19.9-15.7-35.8-35.1-35.8H378.3v1.3h158.1c19.3,0,35.1,19.1,35.1,39.1v78h0V1577.2z"/>
			<path class="st54" d="M571.5,1577.2c0-19.9-15.7-35.7-35.1-35.7H378.3v1.3h158.1c19.3,0,35.1,19,35.1,39v78h0V1577.2z"/>
			<path class="st55" d="M571.5,1577.3c0-19.9-15.7-35.6-35.1-35.6H378.3v1.2h158.1c19.3,0,35.1,18.9,35.1,38.9v78h0V1577.3z"/>
			<path class="st56" d="M571.5,1577.3c0-19.9-15.7-35.4-35.1-35.4H378.3v1.2h158.1c19.3,0,35.1,18.8,35.1,38.8v78h0V1577.3z"/>
			<path class="st57" d="M571.5,1577.3c0-19.9-15.7-35.3-35.1-35.3H378.3v1.2h158.1c19.3,0,35.1,18.7,35.1,38.7v78h0V1577.3z"/>
			<path class="st58" d="M571.5,1577.4c0-19.9-15.7-35.2-35.1-35.2H378.3v1.2h158.1c19.3,0,35.1,18.6,35.1,38.6v78h0V1577.4z"/>
			<path class="st59" d="M571.5,1577.4c0-19.9-15.7-35.1-35.1-35.1H378.3v1.2h158.1c19.3,0,35.1,18.5,35.1,38.5v78h0V1577.4z"/>
			<path class="st60" d="M571.5,1577.4c0-19.9-15.7-35-35.1-35H378.3v1.2h158.1c19.3,0,35.1,18.4,35.1,38.4v78h0V1577.4z"/>
			<path class="st61" d="M571.5,1577.5c0-19.9-15.7-34.8-35.1-34.8H378.3v1.1h158.1c19.3,0,35.1,18.3,35.1,38.3v78h0V1577.5z"/>
			<path class="st62" d="M571.5,1577.5c0-19.9-15.7-34.7-35.1-34.7H378.3v1.1h158.1c19.3,0,35.1,18.2,35.1,38.2v78h0V1577.5z"/>
			<path class="st63" d="M571.5,1577.5c0-19.9-15.7-34.6-35.1-34.6H378.3v1.1h158.1c19.3,0,35.1,18.1,35.1,38.1v78h0V1577.5z"/>
			<path class="st64" d="M571.5,1577.6c0-19.9-15.7-34.5-35.1-34.5H378.3v1.1h158.1c19.3,0,35.1,18,35.1,38v78h0V1577.6z"/>
			<path class="st65" d="M571.5,1577.6c0-19.9-15.7-34.4-35.1-34.4H378.3v1.1h158.1c19.3,0,35.1,17.9,35.1,37.9v78h0V1577.6z"/>
			<path class="st66" d="M571.5,1577.6c0-19.9-15.7-34.2-35.1-34.2H378.3v1h158.1c19.3,0,35.1,17.8,35.1,37.8v78h0V1577.6z"/>
			<path class="st67" d="M571.5,1577.7c0-19.9-15.7-34.1-35.1-34.1H378.3v1h158.1c19.3,0,35.1,17.7,35.1,37.7v78h0V1577.7z"/>
			<path class="st68" d="M571.5,1577.7c0-19.9-15.7-34-35.1-34H378.3v1h158.1c19.3,0,35.1,17.6,35.1,37.6v78h0V1577.7z"/>
			<path class="st69" d="M571.5,1577.8c0-19.9-15.7-33.9-35.1-33.9H378.3v1h158.1c19.3,0,35.1,17.5,35.1,37.5v78h0V1577.8z"/>
			<path class="st70" d="M571.5,1577.8c0-19.9-15.7-33.8-35.1-33.8H378.3v1h158.1c19.3,0,35.1,17.4,35.1,37.4v78h0V1577.8z"/>
			<path class="st71" d="M571.5,1577.8c0-19.9-15.7-33.6-35.1-33.6H378.3v0.9h158.1c19.3,0,35.1,17.3,35.1,37.3v78h0V1577.8z"/>
			<path class="st72" d="M571.5,1577.9c0-19.9-15.7-33.5-35.1-33.5H378.3v0.9h158.1c19.3,0,35.1,17.2,35.1,37.2v78h0V1577.9z"/>
			<path class="st73" d="M571.5,1577.9c0-19.9-15.7-33.4-35.1-33.4H378.3v0.9h158.1c19.3,0,35.1,17.1,35.1,37.1v78h0V1577.9z"/>
			<path class="st74" d="M571.5,1577.9c0-19.9-15.7-33.3-35.1-33.3H378.3v0.9h158.1c19.3,0,35.1,17,35.1,37v78h0V1577.9z"/>
			<path class="st75" d="M571.5,1578c0-19.9-15.7-33.2-35.1-33.2H378.3v0.9h158.1c19.3,0,35.1,16.9,35.1,36.9v78h0V1578z"/>
			<path class="st76" d="M571.5,1578c0-19.9-15.7-33-35.1-33H378.3v0.8h158.1c19.3,0,35.1,16.8,35.1,36.8v78h0V1578z"/>
			<path class="st77" d="M571.5,1578c0-19.9-15.7-32.9-35.1-32.9H378.3v0.8h158.1c19.3,0,35.1,16.7,35.1,36.7v78h0V1578z"/>
			<path class="st78" d="M571.5,1578.1c0-19.9-15.7-32.8-35.1-32.8H378.3v0.8h158.1c19.3,0,35.1,16.6,35.1,36.6v78h0V1578.1z"/>
			<path class="st79" d="M571.5,1578.1c0-19.9-15.7-32.7-35.1-32.7H378.3v0.8h158.1c19.3,0,35.1,16.5,35.1,36.5v78h0V1578.1z"/>
			<path class="st80" d="M571.5,1578.1c0-19.9-15.7-32.6-35.1-32.6H378.3v0.8h158.1c19.3,0,35.1,16.4,35.1,36.4v78h0V1578.1z"/>
			<path class="st81" d="M571.5,1578.2c0-19.9-15.7-32.4-35.1-32.4H378.3v0.7h158.1c19.3,0,35.1,16.3,35.1,36.3v78h0V1578.2z"/>
			<path class="st49" d="M571.5,1578.2c0-19.9-15.7-32.3-35.1-32.3H378.3v0.7h158.1c19.3,0,35.1,16.2,35.1,36.2v78h0V1578.2z"/>
		</g>
		<g class="st43">
			<path class="st50" d="M489.7,1770.5l62.2-61.6c1.1-1.1,1.7-2.5,1.7-4.1v-4.5c0,1.5-0.6,2.9-1.7,4l-62.2,64.7
				c-1,1-2.4,1.6-3.8,1.6H378.3v1.5h107.6C487.3,1772.1,488.7,1771.6,489.7,1770.5z"/>
			<path class="st51" d="M489.7,1770.7l62.2-61.6c1.1-1.1,1.7-2.5,1.7-4.1v-4.5c0,1.5-0.6,2.9-1.7,4l-62.2,64.7
				c-1,1-2.4,1.6-3.8,1.6H378.3v1.5h107.6C487.3,1772.3,488.7,1771.7,489.7,1770.7z"/>
			<path class="st82" d="M489.7,1770.8l62.2-61.6c1.1-1.1,1.7-2.5,1.7-4.1v-4.5c0,1.5-0.6,2.9-1.7,4l-62.2,64.7
				c-1,1-2.4,1.6-3.8,1.6H378.3v1.5h107.6C487.3,1772.4,488.7,1771.8,489.7,1770.8z"/>
			<path class="st83" d="M489.7,1771l62.2-61.6c1.1-1.1,1.7-2.5,1.7-4.1v-4.5c0,1.5-0.6,2.9-1.7,4l-62.2,64.7c-1,1-2.4,1.6-3.8,1.6
				H378.3v1.5h107.6C487.3,1772.5,488.7,1772,489.7,1771z"/>
			<path class="st84" d="M489.7,1771.1l62.2-61.6c1.1-1.1,1.7-2.5,1.7-4.1v-4.5c0,1.5-0.6,2.9-1.7,4l-62.2,64.7
				c-1,1-2.4,1.6-3.8,1.6H378.3v1.5h107.6C487.3,1772.7,488.7,1772.1,489.7,1771.1z"/>
			<path class="st85" d="M489.7,1771.2l62.2-61.6c1.1-1.1,1.7-2.5,1.7-4.1v-4.5c0,1.5-0.6,2.9-1.7,4l-62.2,64.7
				c-1,1-2.4,1.6-3.8,1.6H378.3v1.5h107.6C487.3,1772.8,488.7,1772.3,489.7,1771.2z"/>
			<path class="st86" d="M489.7,1771.4l62.2-61.6c1.1-1.1,1.7-2.5,1.7-4.1v-4.5c0,1.5-0.6,2.9-1.7,4l-62.2,64.7
				c-1,1-2.4,1.6-3.8,1.6H378.3v1.5h107.6C487.3,1773,488.7,1772.4,489.7,1771.4z"/>
			<path class="st87" d="M489.7,1771.5l62.2-61.6c1.1-1.1,1.7-2.5,1.7-4.1v-4.5c0,1.5-0.6,2.9-1.7,4l-62.2,64.7
				c-1,1-2.4,1.6-3.8,1.6H378.3v1.5h107.6C487.3,1773.1,488.7,1772.5,489.7,1771.5z"/>
			<path class="st88" d="M489.7,1771.7l62.2-61.6c1.1-1.1,1.7-2.5,1.7-4.1v-4.5c0,1.5-0.6,2.9-1.7,4l-62.2,64.7
				c-1,1-2.4,1.6-3.8,1.6H378.3v1.5h107.6C487.3,1773.2,488.7,1772.7,489.7,1771.7z"/>
			<path class="st89" d="M489.7,1771.8l62.2-61.6c1.1-1.1,1.7-2.5,1.7-4.1v-4.5c0,1.5-0.6,2.9-1.7,4l-62.2,64.7
				c-1,1-2.4,1.6-3.8,1.6H378.3v1.5h107.6C487.3,1773.4,488.7,1772.8,489.7,1771.8z"/>
			<path class="st61" d="M489.7,1771.9l62.2-61.6c1.1-1.1,1.7-2.5,1.7-4.1v-4.5c0,1.5-0.6,2.9-1.7,4l-62.2,64.7
				c-1,1-2.4,1.6-3.8,1.6H378.3v1.5h107.6C487.3,1773.5,488.7,1773,489.7,1771.9z"/>
			<path class="st90" d="M489.7,1772.1l62.2-61.6c1.1-1.1,1.7-2.5,1.7-4.1v-4.5c0,1.5-0.6,2.9-1.7,4l-62.2,64.7
				c-1,1-2.4,1.6-3.8,1.6H378.3v1.5h107.6C487.3,1773.7,488.7,1773.1,489.7,1772.1z"/>
			<path class="st91" d="M489.7,1772.2l62.2-61.6c1.1-1.1,1.7-2.5,1.7-4.1v-4.5c0,1.5-0.6,2.9-1.7,4l-62.2,64.7
				c-1,1-2.4,1.6-3.8,1.6H378.3v1.5h107.6C487.3,1773.8,488.7,1773.2,489.7,1772.2z"/>
			<path class="st92" d="M489.7,1772.4l62.2-61.6c1.1-1.1,1.7-2.5,1.7-4.1v-4.5c0,1.5-0.6,2.9-1.7,4l-62.2,64.7
				c-1,1-2.4,1.6-3.8,1.6H378.3v1.4h107.6C487.3,1773.9,488.7,1773.4,489.7,1772.4z"/>
			<path class="st93" d="M489.7,1772.5l62.2-61.6c1.1-1.1,1.7-2.5,1.7-4.1v-4.5c0,1.5-0.6,2.9-1.7,4l-62.2,64.8
				c-1,1-2.4,1.6-3.8,1.6H378.3v1.4h107.6C487.3,1774.1,488.7,1773.5,489.7,1772.5z"/>
			<path class="st94" d="M489.7,1772.6l62.2-61.6c1.1-1.1,1.7-2.5,1.7-4.1v-4.5c0,1.5-0.6,2.9-1.7,4l-62.2,64.8
				c-1,1-2.4,1.6-3.8,1.6H378.3v1.4h107.6C487.3,1774.2,488.7,1773.7,489.7,1772.6z"/>
			<path class="st95" d="M489.7,1772.8l62.2-61.6c1.1-1.1,1.7-2.5,1.7-4.1v-4.5c0,1.5-0.6,2.9-1.7,4l-62.2,64.8
				c-1,1-2.4,1.6-3.8,1.6H378.3v1.4h107.6C487.3,1774.4,488.7,1773.8,489.7,1772.8z"/>
			<path class="st96" d="M489.7,1772.9l62.2-61.6c1.1-1.1,1.7-2.5,1.7-4.1v-4.5c0,1.5-0.6,2.9-1.7,4l-62.2,64.8
				c-1,1-2.4,1.6-3.8,1.6H378.3v1.4h107.6C487.3,1774.5,488.7,1773.9,489.7,1772.9z"/>
			<path class="st97" d="M489.7,1773.1l62.2-61.6c1.1-1.1,1.7-2.5,1.7-4.1v-4.5c0,1.5-0.6,2.9-1.7,4l-62.2,64.8
				c-1,1-2.4,1.6-3.8,1.6H378.3v1.4h107.6C487.3,1774.6,488.7,1774.1,489.7,1773.1z"/>
			<path class="st71" d="M489.7,1773.2l62.2-61.6c1.1-1.1,1.7-2.5,1.7-4.1v-4.5c0,1.5-0.6,2.9-1.7,4l-62.2,64.8
				c-1,1-2.4,1.6-3.8,1.6H378.3v1.4h107.6C487.3,1774.8,488.7,1774.2,489.7,1773.2z"/>
			<path class="st98" d="M489.7,1773.3l62.2-61.6c1.1-1.1,1.7-2.5,1.7-4.1v-4.5c0,1.5-0.6,2.9-1.7,4l-62.2,64.8
				c-1,1-2.4,1.6-3.8,1.6H378.3v1.4h107.6C487.3,1774.9,488.7,1774.4,489.7,1773.3z"/>
			<path class="st99" d="M489.7,1773.5l62.2-61.6c1.1-1.1,1.7-2.5,1.7-4.1v-4.5c0,1.5-0.6,2.9-1.7,4l-62.2,64.8
				c-1,1-2.4,1.6-3.8,1.6H378.3v1.4h107.6C487.3,1775.1,488.7,1774.5,489.7,1773.5z"/>
			<path class="st100" d="M489.7,1773.6l62.2-61.6c1.1-1.1,1.7-2.5,1.7-4.1v-4.5c0,1.5-0.6,2.9-1.7,4l-62.2,64.8
				c-1,1-2.4,1.6-3.8,1.6H378.3v1.4h107.6C487.3,1775.2,488.7,1774.6,489.7,1773.6z"/>
			<path class="st101" d="M489.7,1773.8l62.2-61.6c1.1-1.1,1.7-2.5,1.7-4.1v-4.5c0,1.5-0.6,2.9-1.7,4l-62.2,64.8
				c-1,1-2.4,1.6-3.8,1.6H378.3v1.4h107.6C487.3,1775.3,488.7,1774.8,489.7,1773.8z"/>
			<path class="st102" d="M489.7,1773.9l62.2-61.6c1.1-1.1,1.7-2.5,1.7-4.1v-4.5c0,1.5-0.6,2.9-1.7,4l-62.2,64.8
				c-1,1-2.4,1.6-3.8,1.6H378.3v1.4h107.6C487.3,1775.5,488.7,1774.9,489.7,1773.9z"/>
			<path class="st103" d="M489.7,1774l62.2-61.6c1.1-1.1,1.7-2.5,1.7-4.1v-4.5c0,1.5-0.6,2.9-1.7,4l-62.2,64.8c-1,1-2.4,1.6-3.8,1.6
				H378.3v1.4h107.6C487.3,1775.6,488.7,1775,489.7,1774z"/>
			<path class="st104" d="M489.7,1774.2l62.2-61.6c1.1-1.1,1.7-2.5,1.7-4.1v-4.5c0,1.5-0.6,2.9-1.7,4l-62.2,64.8
				c-1,1-2.4,1.6-3.8,1.6H378.3v1.4h107.6C487.3,1775.8,488.7,1775.2,489.7,1774.2z"/>
			<path class="st105" d="M489.7,1774.3l62.2-61.6c1.1-1.1,1.7-2.5,1.7-4.1v-4.5c0,1.5-0.6,2.9-1.7,4l-62.2,64.8
				c-1,1-2.4,1.6-3.8,1.6H378.3v1.4h107.6C487.3,1775.9,488.7,1775.3,489.7,1774.3z"/>
			<path class="st81" d="M489.7,1774.5l62.2-61.6c1.1-1.1,1.7-2.5,1.7-4.1v-4.5c0,1.5-0.6,2.9-1.7,4l-62.2,64.8
				c-1,1-2.4,1.6-3.8,1.6H378.3v1.4h107.6C487.3,1776,488.7,1775.5,489.7,1774.5z"/>
			<path class="st49" d="M489.7,1774.6l62.2-61.6c1.1-1.1,1.7-2.5,1.7-4.1v-4.5c0,1.5-0.6,2.9-1.7,4l-62.2,64.8
				c-1,1-2.4,1.6-3.8,1.6H378.3v1.4h107.6C487.3,1776.2,488.7,1775.6,489.7,1774.6z"/>
		</g>
		<g class="st43">
			<path class="st50" d="M362.4,1788.6v-18.4H220.9c-9.5,0-17.2-7.9-17.2-17.8v-76.6h-17.8v4.6h17.8v76.6c0,9.8,7.7,15.1,17.2,15.1
				h141.5L362.4,1788.6L362.4,1788.6z"/>
			<path class="st51" d="M362.4,1788.7v-18.3H220.9c-9.5,0-17.2-8.1-17.2-17.9V1676h-17.8v4.5h17.8v76.6c0,9.8,7.7,15.2,17.2,15.2
				h141.5L362.4,1788.7L362.4,1788.7z"/>
			<path class="st82" d="M362.4,1788.7v-18.2H220.9c-9.5,0-17.2-8.2-17.2-18v-76.4h-17.8v4.3h17.8v76.6c0,9.8,7.7,15.3,17.2,15.3
				h141.5L362.4,1788.7L362.4,1788.7z"/>
			<path class="st83" d="M362.4,1788.8v-18.1H220.9c-9.5,0-17.2-8.3-17.2-18.1v-76.3h-17.8v4.2h17.8v76.6c0,9.8,7.7,15.4,17.2,15.4
				h141.5L362.4,1788.8L362.4,1788.8z"/>
			<path class="st84" d="M362.4,1788.8v-17.9H220.9c-9.5,0-17.2-8.4-17.2-18.2v-76.2h-17.8v4.1h17.8v76.6c0,9.8,7.7,15.5,17.2,15.5
				h141.5L362.4,1788.8L362.4,1788.8z"/>
			<path class="st85" d="M362.4,1788.9V1771H220.9c-9.5,0-17.2-8.5-17.2-18.3v-76h-17.8v4h17.8v76.6c0,9.8,7.7,15.6,17.2,15.6h141.5
				L362.4,1788.9L362.4,1788.9z"/>
			<path class="st86" d="M362.4,1788.9v-17.7H220.9c-9.5,0-17.2-8.6-17.2-18.4v-75.9h-17.8v3.9h17.8v76.6c0,9.8,7.7,15.7,17.2,15.7
				h141.5L362.4,1788.9L362.4,1788.9z"/>
			<path class="st87" d="M362.4,1788.9v-17.6H220.9c-9.5,0-17.2-8.8-17.2-18.6V1677h-17.8v3.8h17.8v76.6c0,9.8,7.7,15.8,17.2,15.8
				h141.5L362.4,1788.9L362.4,1788.9z"/>
			<path class="st88" d="M362.4,1789v-17.5H220.9c-9.5,0-17.2-8.9-17.2-18.7v-75.7h-17.8v3.7h17.8v76.6c0,9.8,7.7,15.9,17.2,15.9
				h141.5L362.4,1789L362.4,1789z"/>
			<path class="st89" d="M362.4,1789v-17.4H220.9c-9.5,0-17.2-9-17.2-18.8v-75.6h-17.8v3.6h17.8v76.6c0,9.8,7.7,16,17.2,16h141.5
				L362.4,1789L362.4,1789z"/>
			<path class="st61" d="M362.4,1789.1v-17.2H220.9c-9.5,0-17.2-9.1-17.2-18.9v-75.5h-17.8v3.5h17.8v76.6c0,9.8,7.7,16,17.2,16
				h141.5L362.4,1789.1L362.4,1789.1z"/>
			<path class="st90" d="M362.4,1789.1V1772H220.9c-9.5,0-17.2-9.2-17.2-19v-75.4h-17.8v3.4h17.8v76.6c0,9.8,7.7,16.1,17.2,16.1
				h141.5L362.4,1789.1L362.4,1789.1z"/>
			<path class="st91" d="M362.4,1789.2v-17H220.9c-9.5,0-17.2-9.3-17.2-19.1v-75.3h-17.8v3.3h17.8v76.6c0,9.8,7.7,16.2,17.2,16.2
				h141.5L362.4,1789.2L362.4,1789.2z"/>
			<path class="st92" d="M362.4,1789.2v-16.9H220.9c-9.5,0-17.2-9.5-17.2-19.3v-75.2h-17.8v3.1h17.8v76.6c0,9.8,7.7,16.3,17.2,16.3
				h141.5L362.4,1789.2L362.4,1789.2z"/>
			<path class="st93" d="M362.4,1789.3v-16.8H220.9c-9.5,0-17.2-9.6-17.2-19.4v-75.1h-17.8v3h17.8v76.6c0,9.8,7.7,16.4,17.2,16.4
				h141.5L362.4,1789.3L362.4,1789.3z"/>
			<path class="st94" d="M362.4,1789.3v-16.7H220.9c-9.5,0-17.2-9.7-17.2-19.5v-75h-17.8v2.9h17.8v76.6c0,9.8,7.7,16.5,17.2,16.5
				h141.5L362.4,1789.3L362.4,1789.3z"/>
			<path class="st95" d="M362.4,1789.4v-16.5H220.9c-9.5,0-17.2-9.8-17.2-19.6v-74.8h-17.8v2.8h17.8v76.6c0,9.8,7.7,16.6,17.2,16.6
				h141.5L362.4,1789.4L362.4,1789.4z"/>
			<path class="st96" d="M362.4,1789.4V1773H220.9c-9.5,0-17.2-9.9-17.2-19.7v-74.7h-17.8v2.7h17.8v76.6c0,9.8,7.7,16.7,17.2,16.7
				h141.5L362.4,1789.4L362.4,1789.4z"/>
			<path class="st97" d="M362.4,1789.5v-16.3H220.9c-9.5,0-17.2-10-17.2-19.8v-74.6h-17.8v2.6h17.8v76.6c0,9.8,7.7,16.8,17.2,16.8
				h141.5L362.4,1789.5L362.4,1789.5z"/>
			<path class="st71" d="M362.4,1789.5v-16.2H220.9c-9.5,0-17.2-10.1-17.2-20v-74.5h-17.8v2.5h17.8v76.6c0,9.8,7.7,16.9,17.2,16.9
				h141.5L362.4,1789.5L362.4,1789.5z"/>
			<path class="st98" d="M362.4,1789.6v-16.1H220.9c-9.5,0-17.2-10.3-17.2-20.1V1679h-17.8v2.4h17.8v76.6c0,9.8,7.7,16.9,17.2,16.9
				h141.5L362.4,1789.6L362.4,1789.6z"/>
			<path class="st99" d="M362.4,1789.6v-16H220.9c-9.5,0-17.2-10.4-17.2-20.2v-74.3h-17.8v2.3h17.8v76.6c0,9.8,7.7,17,17.2,17h141.5
				L362.4,1789.6L362.4,1789.6z"/>
			<path class="st100" d="M362.4,1789.7v-15.9H220.9c-9.5,0-17.2-10.5-17.2-20.3v-74.2h-17.8v2.2h17.8v76.6
				c0,9.8,7.7,17.1,17.2,17.1h141.5L362.4,1789.7L362.4,1789.7z"/>
			<path class="st101" d="M362.4,1789.7V1774H220.9c-9.5,0-17.2-10.6-17.2-20.4v-74.1h-17.8v2.1h17.8v76.6c0,9.8,7.7,17.2,17.2,17.2
				h141.5L362.4,1789.7L362.4,1789.7z"/>
			<path class="st102" d="M362.4,1789.8v-15.6H220.9c-9.5,0-17.2-10.7-17.2-20.5v-74h-17.8v1.9h17.8v76.6c0,9.8,7.7,17.3,17.2,17.3
				h141.5L362.4,1789.8L362.4,1789.8z"/>
			<path class="st103" d="M362.4,1789.8v-15.5H220.9c-9.5,0-17.2-10.8-17.2-20.7v-73.9h-17.8v1.8h17.8v76.6
				c0,9.8,7.7,17.4,17.2,17.4h141.5L362.4,1789.8L362.4,1789.8z"/>
			<path class="st104" d="M362.4,1789.9v-15.4H220.9c-9.5,0-17.2-11-17.2-20.8V1680h-17.8v1.7h17.8v76.6c0,9.8,7.7,17.5,17.2,17.5
				h141.5L362.4,1789.9L362.4,1789.9z"/>
			<path class="st105" d="M362.4,1789.9v-15.3H220.9c-9.5,0-17.2-11.1-17.2-20.9v-73.6h-17.8v1.6h17.8v76.6
				c0,9.8,7.7,17.6,17.2,17.6h141.5L362.4,1789.9L362.4,1789.9z"/>
			<path class="st81" d="M362.4,1790v-15.2H220.9c-9.5,0-17.2-11.2-17.2-21v-73.5h-17.8v1.5h17.8v76.6c0,9.8,7.7,17.7,17.2,17.7
				h141.5L362.4,1790L362.4,1790z"/>
			<path class="st49" d="M362.4,1790v-15H220.9c-9.5,0-17.2-11.3-17.2-21.1v-73.4h-17.8v1.4h17.8v76.6c0,9.8,7.7,17.8,17.2,17.8
				h141.5L362.4,1790L362.4,1790z"/>
		</g>
		<g class="st43">
			<path class="st50" d="M362.4,1540.9H220.9c-19.3,0-35.1,16.2-35.1,36.2v4.2c-1.1-20.8,15.8-39,35-39h141.5v17h0V1540.9z"/>
			<path class="st51" d="M362.4,1541.1H220.9c-19.3,0-35.1,16.1-35.1,36v4.2c-1.1-20.7,15.8-38.9,35-38.9h141.5v16.9h0V1541.1z"/>
			<path class="st82" d="M362.4,1541.3H220.9c-19.3,0-35.1,16-35.1,35.9v4.2c-1-20.7,15.8-38.8,35-38.8h141.5v16.8h0V1541.3z"/>
			<path class="st83" d="M362.4,1541.4H220.9c-19.3,0-35.1,15.8-35.1,35.8v4.2c-1-20.7,15.8-38.7,35-38.7h141.5v16.7h0V1541.4z"/>
			<path class="st84" d="M362.4,1541.6H220.9c-19.3,0-35.1,15.7-35.1,35.6v4.2c-0.9-20.6,15.8-38.6,35-38.6h141.5v16.6h0V1541.6z"/>
			<path class="st85" d="M362.4,1541.8H220.9c-19.3,0-35.1,15.6-35.1,35.5v4.2c-0.9-20.6,15.8-38.5,35-38.5h141.5v16.5h0V1541.8z"/>
			<path class="st86" d="M362.4,1542H220.9c-19.3,0-35.1,15.4-35.1,35.4v4.2c-0.9-20.6,15.8-38.4,35-38.4h141.5v16.4h0V1542z"/>
			<path class="st87" d="M362.4,1542.1H220.9c-19.3,0-35.1,15.3-35.1,35.2v4.2c-0.8-20.5,15.8-38.3,35-38.3h141.5v16.3h0V1542.1z"/>
			<path class="st88" d="M362.4,1542.3H220.9c-19.3,0-35.1,15.2-35.1,35.1v4.2c-0.8-20.5,15.8-38.1,35-38.1h141.5v16.2h0V1542.3z"/>
			<path class="st89" d="M362.4,1542.5H220.9c-19.3,0-35.1,15-35.1,35v4.2c-0.7-20.5,15.8-38,35-38h141.5v16h0V1542.5z"/>
			<path class="st61" d="M362.4,1542.6H220.9c-19.3,0-35.1,14.9-35.1,34.8v4.2c-0.7-20.4,15.8-37.9,35-37.9h141.5v15.9h0V1542.6z"/>
			<path class="st90" d="M362.4,1542.8H220.9c-19.3,0-35.1,14.8-35.1,34.7v4.2c-0.6-20.4,15.8-37.8,35-37.8h141.5v15.8h0V1542.8z"/>
			<path class="st91" d="M362.4,1543H220.9c-19.3,0-35.1,14.6-35.1,34.6v4.2c-0.6-20.4,15.8-37.7,35-37.7h141.5v15.7h0V1543z"/>
			<path class="st92" d="M362.4,1543.2H220.9c-19.3,0-35.1,14.5-35.1,34.4v4.2c-0.5-20.3,15.8-37.6,35-37.6h141.5v15.6h0V1543.2z"/>
			<path class="st93" d="M362.4,1543.3H220.9c-19.3,0-35.1,14.4-35.1,34.3v4.2c-0.5-20.3,15.8-37.5,35-37.5h141.5v15.5h0V1543.3z"/>
			<path class="st94" d="M362.4,1543.5H220.9c-19.3,0-35.1,14.2-35.1,34.2v4.2c-0.5-20.3,15.8-37.4,35-37.4h141.5v15.4h0V1543.5z"/>
			<path class="st95" d="M362.4,1543.7H220.9c-19.3,0-35.1,14.1-35.1,34v4.2c-0.4-20.2,15.8-37.3,35-37.3h141.5v15.3h0V1543.7z"/>
			<path class="st96" d="M362.4,1543.8H220.9c-19.3,0-35.1,14-35.1,33.9v4.2c-0.4-20.2,15.8-37.2,35-37.2h141.5v15.2h0V1543.8z"/>
			<path class="st97" d="M362.4,1544H220.9c-19.3,0-35.1,13.8-35.1,33.8v4.2c-0.3-20.2,15.8-37,35-37h141.5v15.1h0V1544z"/>
			<path class="st71" d="M362.4,1544.2H220.9c-19.3,0-35.1,13.7-35.1,33.6v4.2c-0.3-20.1,15.8-36.9,35-36.9h141.5v14.9h0V1544.2z"/>
			<path class="st98" d="M362.4,1544.4H220.9c-19.3,0-35.1,13.6-35.1,33.5v4.2c-0.2-20.1,15.8-36.8,35-36.8h141.5v14.8h0V1544.4z"/>
			<path class="st99" d="M362.4,1544.5H220.9c-19.3,0-35.1,13.4-35.1,33.4v4.2c-0.2-20.1,15.8-36.7,35-36.7h141.5v14.7h0V1544.5z"/>
			<path class="st100" d="M362.4,1544.7H220.9c-19.3,0-35.1,13.3-35.1,33.2v4.2c-0.1-20,15.8-36.6,35-36.6h141.5v14.6h0V1544.7z"/>
			<path class="st101" d="M362.4,1544.9H220.9c-19.3,0-35.1,13.2-35.1,33.1v4.2c-0.1-20,15.8-36.5,35-36.5h141.5v14.5h0V1544.9z"/>
			<path class="st102" d="M362.4,1545H220.9c-19.3,0-35.1,13-35.1,33v4.2c-0.1-20,15.8-36.4,35-36.4h141.5v14.4h0V1545z"/>
			<path class="st103" d="M362.4,1545.2H220.9c-19.3,0-35.1,12.9-35.1,32.8v4.2c0-19.9,15.8-36.3,35-36.3h141.5v14.3h0V1545.2z"/>
			<path class="st104" d="M362.4,1545.4H220.9c-19.3,0-35.1,12.8-35.1,32.7v4.2c0-19.9,15.8-36.2,35-36.2h141.5v14.2h0V1545.4z"/>
			<path class="st105" d="M362.4,1545.6H220.9c-19.3,0-35.1,12.6-35.1,32.6v4.2c0.1-19.9,15.8-36.1,35-36.1h141.5v14.1h0V1545.6z"/>
			<path class="st81" d="M362.4,1545.7H220.9c-19.3,0-35.1,12.5-35.1,32.5v4.2c0.1-19.8,15.8-35.9,35-35.9h141.5v13.9h0V1545.7z"/>
			<path class="st49" d="M362.4,1545.9H220.9c-19.3,0-35.1,12.4-35.1,32.3v4.2c0.2-19.8,15.8-35.8,35-35.8h141.5v13.8h0V1545.9z"/>
		</g>
	</g>
</g>
</svg>
